<svg xmlns="http://www.w3.org/2000/svg" version="1.1" xmlns:xlink="http://www.w3.org/1999/xlink" xmlns:svgjs="http://svgjs.com/svgjs" width="512" height="512" x="0" y="0" viewBox="0 0 512 512" style="enable-background:new 0 0 512 512" xml:space="preserve"><g>
<path xmlns="http://www.w3.org/2000/svg" style="" d="M256,0v512c141.385,0,256-114.615,256-256S397.385,0,256,0z" fill="#0789de" data-original="#0789de"/>
<path xmlns="http://www.w3.org/2000/svg" style="" d="M470.793,256C470.793,114.615,374.626,0,256,0C114.615,0,0,114.615,0,256s114.615,256,256,256  C374.626,512,470.793,397.385,470.793,256z" fill="#2ea2ef" data-original="#2ea2ef" class=""/>
<polygon xmlns="http://www.w3.org/2000/svg" style="" points="405.891,192.129 374.986,192.129 344.08,256 374.986,319.871 405.891,319.871 " fill="#def1ff" data-original="#def1ff"/>
<polygon xmlns="http://www.w3.org/2000/svg" style="" points="202.946,192.129 202.946,145.771 92.716,256 202.946,366.229 202.946,319.871   374.986,319.871 374.986,192.129 " fill="#ffffff" data-original="#ffffff"/>
<g xmlns="http://www.w3.org/2000/svg">
</g>
<g xmlns="http://www.w3.org/2000/svg">
</g>
<g xmlns="http://www.w3.org/2000/svg">
</g>
<g xmlns="http://www.w3.org/2000/svg">
</g>
<g xmlns="http://www.w3.org/2000/svg">
</g>
<g xmlns="http://www.w3.org/2000/svg">
</g>
<g xmlns="http://www.w3.org/2000/svg">
</g>
<g xmlns="http://www.w3.org/2000/svg">
</g>
<g xmlns="http://www.w3.org/2000/svg">
</g>
<g xmlns="http://www.w3.org/2000/svg">
</g>
<g xmlns="http://www.w3.org/2000/svg">
</g>
<g xmlns="http://www.w3.org/2000/svg">
</g>
<g xmlns="http://www.w3.org/2000/svg">
</g>
<g xmlns="http://www.w3.org/2000/svg">
</g>
<g xmlns="http://www.w3.org/2000/svg">
</g>
</g></svg>