<svg xmlns="http://www.w3.org/2000/svg" width="388" height="278"><rect id="backgroundrect" width="100%" height="100%" x="0" y="0" fill="none" stroke="none"/>
    
    
    
    
    
    
    
<g class="currentLayer" style=""><title>Layer 1</title><g id="freepik--Shadow--inject-15" class="">
        <ellipse id="freepik--path--inject-15" cx="193.88999938964844" cy="267.1599884033203" rx="193.88999938964844" ry="11.319999694824219" style="fill:#f5f5f5"/>
    </g><g id="freepik--Device--inject-15" class="">
        <path d="M143.24999938964845,86.91999816894531 H351.60999938964846 a4.27,4.27 0 0 1 4.27,4.27 V241.9199981689453 a0,0 0 0 1 0,0 H138.97999938964844 a0,0 0 0 1 0,0 V91.22999816894531 A4.27,4.27 0 0 1 143.24999938964845,86.91999816894531 z" style="fill:#263238" id="svg_1"/>
        <rect x="143.25" y="96.52999877929688" width="208.36000061035156" height="133.1699981689453" style="fill:#4C85FF" id="svg_2"/>
        <circle cx="245.53001403808594" cy="92.1199951171875" r="2.0799999237060547" style="fill:#fff;opacity:0.2;isolation:isolate" id="svg_3"/>
        <circle cx="249.8400115966797" cy="92.1199951171875" r="1.559999942779541" style="fill:#fff;opacity:0.2;isolation:isolate" id="svg_4"/>
        <path d="M248.27999938964842,232.4299981689453 a2.66,2.66 0 0 0 -0.8500000000000001,-0.15000000000000002 a2.73,2.73 0 1 0 2.73,2.73 a0.6800000000000002,0.6800000000000002 0 0 0 0,-0.15000000000000002 A2.72,2.72 0 0 1 248.27999938964842,232.4299981689453 z" style="fill:#fff;opacity:0.2;isolation:isolate" id="svg_5"/>
        <path d="M372.04999938964846,239.7999981689453 v2 a2.9,2.9 0 0 1 -2.06,2.7600000000000002 L354.88999938964844,248.97999816894531 a20.16,20.16 0 0 1 -5.78,0.8400000000000001 H145.76999938964843 a20.14,20.14 0 0 1 -5.77,-0.8400000000000001 L124.88999938964844,244.51999816894534 a2.9,2.9 0 0 1 -2.07,-2.7600000000000002 v-2 z" style="fill:#263238" id="svg_6"/>
        <path d="M372.04999938964846,239.7999981689453 v2 a2.9,2.9 0 0 1 -2.06,2.7600000000000002 L354.88999938964844,248.97999816894531 a20.16,20.16 0 0 1 -5.78,0.8400000000000001 H145.76999938964843 a20.14,20.14 0 0 1 -5.77,-0.8400000000000001 L124.88999938964844,244.51999816894534 a2.9,2.9 0 0 1 -2.07,-2.7600000000000002 v-2 z" style="fill:#fff;opacity:0.2;isolation:isolate" id="svg_7"/>
        <path d="M372.04999938964846,239.7999981689453 v2 a2.85,2.85 0 0 1 -0.41000000000000003,1.47 H123.22999938964844 a2.85,2.85 0 0 1 -0.41000000000000003,-1.47 v-2 z" style="fill:#fff;opacity:0.2;isolation:isolate" id="svg_8"/>
        <path d="M264.9699993896484,239.7999981689453 v0.8600000000000001 a0.8500000000000001,0.8500000000000001 0 0 1 -0.8500000000000001,0.8500000000000001 H230.75999938964844 a0.8500000000000001,0.8500000000000001 0 0 1 -0.8600000000000001,-0.8500000000000001 v-0.8600000000000001 z" style="opacity:0.2;isolation:isolate" id="svg_9"/>
        <path d="M351.60999938964846,96.52999816894533 S322.79999938964846,210.9199981689453 143.24999938964845,229.69999816894529 V96.52999816894533 z" style="fill:#fff;opacity:0.1;isolation:isolate" id="svg_10"/>
    </g><g id="freepik--window-3--inject-15" class="">
        <path d="M331.88999938964844,44.38999816894531 V169.64999816894533 l-20.86,20.86 H228.54999938964846 a3.22,3.22 0 0 1 -3.21,-3.22 V44.38999816894531 a3.22,3.22 0 0 1 3.21,-3.22 h100.1 A3.22,3.22 0 0 1 331.88999938964844,44.38999816894531 z" style="fill:#4C85FF" id="svg_11"/>
        <path d="M331.88999938964844,49.85999816894531 V169.64999816894533 l-20.86,20.86 H228.54999938964846 a3.22,3.22 0 0 1 -3.21,-3.22 V49.85999816894531 z" style="fill:#fff;opacity:0.6000000000000001;isolation:isolate" id="svg_12"/>
        <path d="M329.0899993896484,45.1499981689453 a1.56,1.56 0 1 1 -1.56,-1.55 A1.55,1.55 0 0 1 329.0899993896484,45.1499981689453 z" style="fill:#fff;opacity:0.6000000000000001;isolation:isolate" id="svg_13"/>
        <path d="M323.1499993896484,45.1499981689453 a1.55,1.55 0 1 1 -1.55,-1.55 A1.54,1.54 0 0 1 323.1499993896484,45.1499981689453 z" style="fill:#fff;opacity:0.6000000000000001;isolation:isolate" id="svg_14"/>
        <path d="M317.2199993896484,45.1499981689453 a1.56,1.56 0 1 1 -1.55,-1.55 A1.55,1.55 0 0 1 317.2199993896484,45.1499981689453 z" style="fill:#fff;opacity:0.6000000000000001;isolation:isolate" id="svg_15"/>
        <path d="M290.0899993896484,59.509998168945316 H232.98999938964846 a1,1 0 0 1 0,-2 h57.1 a1,1 0 0 1 0,2 z" style="fill:#4C85FF" id="svg_16"/>
        <path d="M273.94999938964844,64.97999816894531 h-41 a1,1 0 0 1 0,-2 h41 a1,1 0 0 1 0,2 z" style="fill:#4C85FF" id="svg_17"/>
        <path d="M318.2199993896484,149.4399981689453 h-73 a1,1 0 1 1 0,-2 h73 a1,1 0 0 1 0,2 z" style="fill:#4C85FF" id="svg_18"/>
        <path d="M306.00999938964844,171.28999816894532 h-73 a1,1 0 0 1 0,-2 h73 a1,1 0 0 1 0,2 z" style="fill:#4C85FF" id="svg_19"/>
        <path d="M318.2199993896484,154.9199981689453 H232.98999938964846 a1,1 0 0 1 0,-2 h85.23 a1,1 0 0 1 0,2 z" style="fill:#4C85FF" id="svg_20"/>
        <path d="M318.2199993896484,160.3699981689453 H232.98999938964846 a1,1 0 0 1 0,-2 h85.23 a1,1 0 0 1 0,2 z" style="fill:#4C85FF" id="svg_21"/>
        <path d="M318.2199993896484,165.82999816894534 H232.98999938964846 a1,1 0 0 1 0,-2 h85.23 a1,1 0 0 1 0,2 z" style="fill:#4C85FF" id="svg_22"/>
        <polygon points="331.87001037597656,169.65000915527344 311.00999450683594,190.50999450683594 311.00999450683594,169.65000915527344 331.87001037597656,169.65000915527344 " style="fill:#4C85FF;opacity:0.5" id="svg_23"/>
        <rect x="325.97999572753906" y="49.86000061035156" width="5.889999866485596" height="119.79000091552734" style="opacity:0.4;isolation:isolate" id="svg_24"/>
        <path d="M328.88999938964844,112.44999816894529 h0 a2.17,2.17 0 0 1 -2.17,-2.17 V98.03999816894532 A2.17,2.17 0 0 1 328.88999938964844,95.91999816894531 h0 a2.17,2.17 0 0 1 2.17,2.17 v12.24 A2.17,2.17 0 0 1 328.88999938964844,112.44999816894529 z" style="fill:#4C85FF" id="svg_25"/>
        <path d="M318.2199993896484,119.4399981689453 h-73 a1,1 0 1 1 0,-2 h73 a1,1 0 0 1 0,2 z" style="fill:#4C85FF" id="svg_26"/>
        <path d="M306.00999938964844,141.28999816894532 h-73 a1,1 0 0 1 0,-2 h73 a1,1 0 0 1 0,2 z" style="fill:#4C85FF" id="svg_27"/>
        <path d="M318.2199993896484,124.91999816894531 H232.98999938964846 a1,1 0 0 1 0,-2 h85.23 a1,1 0 0 1 0,2 z" style="fill:#4C85FF" id="svg_28"/>
        <path d="M318.2199993896484,130.3699981689453 H232.98999938964846 a1,1 0 0 1 0,-2 h85.23 a1,1 0 0 1 0,2 z" style="fill:#4C85FF" id="svg_29"/>
        <path d="M318.2199993896484,135.82999816894534 H232.98999938964846 a1,1 0 0 1 0,-2 h85.23 a1,1 0 0 1 0,2 z" style="fill:#4C85FF" id="svg_30"/>
        <rect x="232.72999572753906" y="71.49000549316406" width="85.4800033569336" height="31.899999618530273" style="fill:#4C85FF" id="svg_31"/>
        <polygon points="232.72999572753906,98.27000427246094 235.0600128173828,98.27000427246094 235.0600128173828,92.47000122070312 237.74000549316406,92.47000122070312 237.74000549316406,81.02000427246094 241.47999572753906,81.02000427246094 241.47999572753906,88.06999206542969 246.62001037597656,88.06999206542969 246.62001037597656,97.44000244140625 252.74998474121094,97.44000244140625 252.74998474121094,90.91000366210938 257.8199920654297,90.91000366210938 261.1699981689453,87.55000305175781 261.1699981689453,79.77999877929688 263.21998596191406,79.77999877929688 263.21998596191406,90.91000366210938 268.37998962402344,90.91000366210938 268.37998962402344,94.8699951171875 273.71998596191406,94.8699951171875 273.71998596191406,74.66999816894531 275.1999969482422,73.19000244140625 275.1999969482422,78.72999572753906 278.61000061035156,78.72999572753906 278.61000061035156,81.22000122070312 281.87998962402344,84.5 281.87998962402344,90.41000366210938 286.5800018310547,90.41000366210938 286.5800018310547,85.72999572753906 298.8400115966797,85.72999572753906 298.8400115966797,82.24000549316406 301.61000061035156,82.24000549316406 301.61000061035156,76.13999938964844 302.59999084472656,76.13999938964844 302.59999084472656,85.72999572753906 304.1599884033203,85.72999572753906 307.6899871826172,82.19999694824219 311.00999450683594,82.19999694824219 311.00999450683594,79.00999450683594 312.6899871826172,79.00999450683594 312.6899871826172,82.24000549316406 314.86000061035156,82.24000549316406 314.86000061035156,95.45999145507812 317.21998596191406,95.45999145507812 317.21998596191406,88.86000061035156 318.21998596191406,88.91999816894531 318.21998596191406,71.49000549316406 232.72999572753906,71.49000549316406 232.72999572753906,98.27000427246094 " style="opacity:0.2;isolation:isolate" id="svg_32"/>
        <path d="M318.2199993896484,108.4399981689453 h-23 a1,1 0 1 1 0,-2 h23 a1,1 0 1 1 0,2 z" style="fill:#4C85FF" id="svg_33"/>
        <path d="M266.5899993896484,41.16999816894531 V144.6899981689453 L250.88999938964844,160.4299981689453 H225.33999938964843 v-116 a3.22,3.22 0 0 1 3.21,-3.22 z" style="opacity:0.2;isolation:isolate" id="svg_34"/>
        <path d="M328.88999938964844,112.44999816894529 h0 a2.17,2.17 0 0 1 -2.17,-2.17 V98.03999816894532 A2.17,2.17 0 0 1 328.88999938964844,95.91999816894531 h0 a2.17,2.17 0 0 1 2.17,2.17 v12.24 A2.17,2.17 0 0 1 328.88999938964844,112.44999816894529 z" style="fill:#fff;opacity:0.4;isolation:isolate" id="svg_35"/>
    </g><g id="freepik--window-1--inject-15" class="">
        <path d="M205.62999938964845,59.999998168945325 V185.2599981689453 L184.76999938964843,206.1199981689453 H102.30999938964842 a3.22,3.22 0 0 1 -3.21,-3.22 V59.999998168945325 a3.22,3.22 0 0 1 3.21,-3.22 h100.1 A3.22,3.22 0 0 1 205.62999938964845,59.999998168945325 z" style="fill:#4C85FF" id="svg_36"/>
        <path d="M205.62999938964845,65.47999816894531 V185.26999816894534 l-20.86,20.86 H102.30999938964842 a3.22,3.22 0 0 1 -3.21,-3.22 V65.47999816894531 z" style="fill:#fff;opacity:0.6000000000000001;isolation:isolate" id="svg_37"/>
        <path d="M202.88999938964844,60.76999816894531 a1.56,1.56 0 1 1 -1.56,-1.55 A1.55,1.55 0 0 1 202.88999938964844,60.76999816894531 z" style="fill:#fff;opacity:0.6000000000000001;isolation:isolate" id="svg_38"/>
        <path d="M196.88999938964844,60.76999816894531 a1.56,1.56 0 1 1 -1.55,-1.55 A1.54,1.54 0 0 1 196.88999938964844,60.76999816894531 z" style="fill:#fff;opacity:0.6000000000000001;isolation:isolate" id="svg_39"/>
        <path d="M190.97999938964844,60.76999816894531 a1.56,1.56 0 1 1 -1.56,-1.55 A1.55,1.55 0 0 1 190.97999938964844,60.76999816894531 z" style="fill:#fff;opacity:0.6000000000000001;isolation:isolate" id="svg_40"/>
        <path d="M124.48999938964843,75.66999816894531 H106.74999938964845 a1,1 0 0 1 0,-2 H124.48999938964843 a1,1 0 1 1 0,2 z" style="fill:#4C85FF" id="svg_41"/>
        <path d="M132.88999938964844,81.12999816894532 h-26.1 a1,1 0 0 1 0,-2 H132.88999938964844 a1,1 0 0 1 0,2 z" style="fill:#4C85FF" id="svg_42"/>
        <path d="M124.77999938964842,86.5899981689453 h-18 a1,1 0 0 1 0,-2 h18 a1,1 0 0 1 0,2 z" style="fill:#4C85FF" id="svg_43"/>
        <path d="M191.96999938964845,176.0599981689453 h-73 a1,1 0 0 1 0,-2 h73 a1,1 0 1 1 0,2 z" style="fill:#4C85FF" id="svg_44"/>
        <path d="M151.96999938964845,181.51999816894534 H106.74999938964845 a1,1 0 0 1 0,-2 h45.22 a1,1 0 1 1 0,2 z" style="fill:#4C85FF" id="svg_45"/>
        <polygon points="205.62998962402344,185.27000427246094 184.77000427246094,206.12998962402344 184.77000427246094,185.27000427246094 205.62998962402344,185.27000427246094 " style="fill:#4C85FF;opacity:0.5" id="svg_46"/>
        <rect x="199.74000549316406" y="65.47999572753906" width="5.889999866485596" height="119.79000091552734" style="opacity:0.4;isolation:isolate" id="svg_47"/>
        <path d="M202.67999938964846,177.0699981689453 h0 a2.17,2.17 0 0 1 -2.17,-2.17 V162.65999816894532 a2.17,2.17 0 0 1 2.17,-2.17 h0 a2.17,2.17 0 0 1 2.17,2.17 V174.9199981689453 A2.17,2.17 0 0 1 202.67999938964846,177.0699981689453 z" style="fill:#4C85FF" id="svg_48"/>
        <path d="M191.96999938964845,75.66999816894531 H178.23999938964843 a1,1 0 0 1 0,-2 h13.73 a1,1 0 1 1 0,2 z" style="fill:#4C85FF" id="svg_49"/>
        <path d="M191.96999938964845,81.12999816894532 H184.88999938964844 a1,1 0 0 1 0,-2 h7.1 a1,1 0 0 1 0,2 z" style="fill:#4C85FF" id="svg_50"/>
        <path d="M191.96999938964845,101.0599981689453 h-73 a1,1 0 0 1 0,-2 h73 a1,1 0 1 1 0,2 z" style="fill:#4C85FF" id="svg_51"/>
        <path d="M191.96999938964845,106.5199981689453 H106.74999938964845 a1,1 0 0 1 0,-2 h85.22 a1,1 0 0 1 0,2 z" style="fill:#4C85FF" id="svg_52"/>
        <path d="M141.96999938964845,111.97999816894531 H106.74999938964845 a1,1 0 0 1 0,-2 h35.22 a1,1 0 0 1 0,2 z" style="fill:#4C85FF" id="svg_53"/>
        <rect x="120.88999938964844" y="119.22999572753906" width="33.58000183105469" height="9" style="fill:#4C85FF;opacity:0.7000000000000001" id="svg_54"/>
        <rect x="120.88999938964844" y="130.22999572753906" width="15.210000038146973" height="33.22999954223633" style="fill:#4C85FF;opacity:0.30000000000000004" id="svg_55"/>
        <rect x="156.4600067138672" y="130.22999572753906" width="17.469999313354492" height="33.22999954223633" style="fill:#4C85FF;opacity:0.30000000000000004" id="svg_56"/>
        <rect x="156.4600067138672" y="119.22999572753906" width="35.5099983215332" height="9" style="fill:#4C85FF;opacity:0.7000000000000001" id="svg_57"/>
        <rect x="175.94000244140625" y="130.22999572753906" width="16.040000915527344" height="33.22999954223633" style="fill:#4C85FF;opacity:0.30000000000000004" id="svg_58"/>
        <rect x="106.75" y="130.22999572753906" width="12.140000343322754" height="33.22999954223633" style="fill:#4C85FF;opacity:0.5" id="svg_59"/>
        <rect x="106.75" y="119.22999572753906" width="12.140000343322754" height="9" style="fill:#4C85FF" id="svg_60"/>
        <rect x="138.10000610351562" y="130.22999572753906" width="16.360000610351562" height="33.22999954223633" style="fill:#4C85FF;opacity:0.30000000000000004" id="svg_61"/>
        <path d="M202.67999938964846,177.0699981689453 h0 a2.17,2.17 0 0 1 -2.17,-2.17 V162.65999816894532 a2.17,2.17 0 0 1 2.17,-2.17 h0 a2.17,2.17 0 0 1 2.17,2.17 V174.9199981689453 A2.17,2.17 0 0 1 202.67999938964846,177.0699981689453 z" style="fill:#fff;opacity:0.4;isolation:isolate" id="svg_62"/>
        <path d="M205.62999938964845,59.999998168945325 v104.2 H145.29999938964843 a3.22,3.22 0 0 1 -3.21,-3.22 V56.779998168945326 h60.32 A3.22,3.22 0 0 1 205.62999938964845,59.999998168945325 z" style="opacity:0.2;isolation:isolate" id="svg_63"/>
    </g><g id="freepik--window-2--inject-15" class="">
        <path d="M258.5999993896484,3.219998168945324 V128.47999816894531 l-20.86,20.86 H155.27999938964842 a3.22,3.22 0 0 1 -3.21,-3.22 V3.219998168945324 a3.22,3.22 0 0 1 3.21,-3.22 h100.1 A3.22,3.22 0 0 1 258.5999993896484,3.219998168945324 z" style="fill:#4C85FF" id="svg_64"/>
        <path d="M258.5999993896484,8.689998168945323 V128.47999816894531 l-20.86,20.86 H155.27999938964842 a3.22,3.22 0 0 1 -3.21,-3.22 V8.689998168945323 z" style="fill:#fff;opacity:0.6000000000000001;isolation:isolate" id="svg_65"/>
        <circle cx="254.25999450683594" cy="3.9799957275390625" r="1.5499999523162842" style="fill:#fff;opacity:0.6000000000000001;isolation:isolate" id="svg_66"/>
        <circle cx="248.3199920654297" cy="3.9799957275390625" r="1.5499999523162842" style="fill:#fff;opacity:0.6000000000000001;isolation:isolate" id="svg_67"/>
        <path d="M243.93999938964845,3.9799981689453148 a1.56,1.56 0 1 1 -1.55,-1.55 A1.54,1.54 0 0 1 243.93999938964845,3.9799981689453148 z" style="fill:#fff;opacity:0.6000000000000001;isolation:isolate" id="svg_68"/>
        <path d="M212.50999938964844,18.919998168945312 H192.13999938964844 a1,1 0 0 1 0,-2 h20.37 a1,1 0 0 1 0,2 z" style="fill:#4C85FF" id="svg_69"/>
        <path d="M220.88999938964844,24.3399981689453 h-37.1 a1,1 0 0 1 0,-2 H220.88999938964844 a1,1 0 0 1 0,2 z" style="fill:#4C85FF" id="svg_70"/>
        <path d="M212.80999938964845,29.8099981689453 H191.88999938964844 a1,1 0 0 1 0,-2 h21 a1,1 0 0 1 0,2 z" style="fill:#4C85FF" id="svg_71"/>
        <path d="M244.93999938964845,44.26999816894531 H171.88999938964844 a1,1 0 0 1 0,-2 h73 a1,1 0 0 1 0,2 z" style="fill:#4C85FF" id="svg_72"/>
        <path d="M232.7299993896484,66.1199981689453 h-73 a1,1 0 0 1 0,-2 h73 a1,1 0 0 1 0,2 z" style="fill:#4C85FF" id="svg_73"/>
        <path d="M244.93999938964845,49.729998168945315 H159.70999938964843 a1,1 0 0 1 0,-2 h85.23 a1,1 0 0 1 0,2 z" style="fill:#4C85FF" id="svg_74"/>
        <path d="M244.93999938964845,55.199998168945314 H159.70999938964843 a1,1 0 0 1 0,-2 h85.23 a1,1 0 0 1 0,2 z" style="fill:#4C85FF" id="svg_75"/>
        <path d="M244.93999938964845,60.65999816894532 H159.70999938964843 a1,1 0 0 1 0,-2 h85.23 a1,1 0 0 1 0,2 z" style="fill:#4C85FF" id="svg_76"/>
        <path d="M244.93999938964845,99.2699981689453 H171.88999938964844 a1,1 0 0 1 0,-2 h73 a1,1 0 0 1 0,2 z" style="fill:#4C85FF" id="svg_77"/>
        <path d="M232.7299993896484,121.1199981689453 h-73 a1,1 0 0 1 0,-2 h73 a1,1 0 0 1 0,2 z" style="fill:#4C85FF" id="svg_78"/>
        <path d="M244.93999938964845,104.72999816894531 H159.70999938964843 a1,1 0 0 1 0,-2 h85.23 a1,1 0 0 1 0,2 z" style="fill:#4C85FF" id="svg_79"/>
        <path d="M244.93999938964845,110.19999816894529 H159.70999938964843 a1,1 0 0 1 0,-2 h85.23 a1,1 0 0 1 0,2 z" style="fill:#4C85FF" id="svg_80"/>
        <path d="M244.93999938964845,115.65999816894532 H159.70999938964843 a1,1 0 0 1 0,-2 h85.23 a1,1 0 0 1 0,2 z" style="fill:#4C85FF" id="svg_81"/>
        <rect x="234.7100067138672" y="16.67999267578125" width="10.229999542236328" height="13.619999885559082" style="fill:#4C85FF" id="svg_82"/>
        <circle cx="165.38999938964844" cy="22.349990844726562" r="5.670000076293945" style="fill:#4C85FF" id="svg_83"/>
        <path d="M159.38999938964844,73.2699981689453 a1.2,1.2 0 0 0 2.39,0 a1.2,1.2 0 1 0 -2.39,0 z" style="fill:#4C85FF" id="svg_84"/>
        <path d="M159.38999938964844,78.72999816894531 a1.2,1.2 0 1 0 1.19,-1.19 A1.19,1.19 0 0 0 159.38999938964844,78.72999816894531 z" style="fill:#4C85FF" id="svg_85"/>
        <path d="M159.38999938964844,84.19999816894531 a1.2,1.2 0 0 0 2.39,0 a1.2,1.2 0 1 0 -2.39,0 z" style="fill:#4C85FF" id="svg_86"/>
        <path d="M159.38999938964844,89.65999816894532 a1.2,1.2 0 0 0 2.39,0 a1.2,1.2 0 1 0 -2.39,0 z" style="fill:#4C85FF" id="svg_87"/>
        <path d="M177.72999938964844,74.2699981689453 h-13 a1,1 0 0 1 0,-2 h13 a1,1 0 0 1 0,2 z" style="fill:#4C85FF" id="svg_88"/>
        <path d="M189.93999938964845,79.72999816894531 H164.70999938964843 a1,1 0 0 1 0,-2 h25.23 a1,1 0 0 1 0,2 z" style="fill:#4C85FF" id="svg_89"/>
        <path d="M174.93999938964845,85.19999816894531 H164.70999938964843 a1,1 0 0 1 0,-2 h10.23 a1,1 0 0 1 0,2 z" style="fill:#4C85FF" id="svg_90"/>
        <path d="M185.93999938964845,90.65999816894532 H164.70999938964843 a1,1 0 0 1 0,-2 h21.23 a1,1 0 0 1 0,2 z" style="fill:#4C85FF" id="svg_91"/>
        <polygon points="258.59999084472656,128.47999572753906 237.74000549316406,149.3400115966797 237.74000549316406,128.47999572753906 258.59999084472656,128.47999572753906 " style="fill:#4C85FF;opacity:0.5" id="svg_92"/>
        <polygon points="244.9399871826172,16.67999267578125 234.7100067138672,30.300003051757812 244.9399871826172,30.300003051757812 244.9399871826172,16.67999267578125 " style="opacity:0.2;isolation:isolate" id="svg_93"/>
        <rect x="162.0699920654297" y="19.039993286132812" width="6.630000114440918" height="6.630000114440918" style="opacity:0.2;isolation:isolate" id="svg_94"/>
        <rect x="252.6999969482422" y="8.69000244140625" width="5.889999866485596" height="119.79000091552734" style="opacity:0.4;isolation:isolate" id="svg_95"/>
        <path d="M255.64999938964843,31.279998168945326 h0 a2.17,2.17 0 0 1 -2.17,-2.17 V16.919998168945312 a2.17,2.17 0 0 1 2.17,-2.17 h0 a2.17,2.17 0 0 1 2.17,2.17 v12.24 A2.17,2.17 0 0 1 255.64999938964843,31.279998168945326 z" style="fill:#4C85FF" id="svg_96"/>
        <path d="M255.64999938964843,31.279998168945326 h0 a2.17,2.17 0 0 1 -2.17,-2.17 V16.919998168945312 a2.17,2.17 0 0 1 2.17,-2.17 h0 a2.17,2.17 0 0 1 2.17,2.17 v12.24 A2.17,2.17 0 0 1 255.64999938964843,31.279998168945326 z" style="fill:#fff;opacity:0.4;isolation:isolate" id="svg_97"/>
    </g><g id="freepik--speech-bubble--inject-15" class="">
        <path d="M27.719999389648436,59.84999816894532 h34.92 a5.07,5.07 0 0 1 5.06,5.07 v33.94 a5.06,5.06 0 0 1 -5.06,5.06 H48.45999938964843 l1.53,10.23 l-7,-10.23 H27.719999389648436 a5.05,5.05 0 0 1 -5.06,-5.06 V64.91999816894531 A5.06,5.06 0 0 1 27.719999389648436,59.84999816894532 z" style="fill:#4C85FF" id="svg_98"/>
        <path d="M27.719999389648436,59.84999816894532 h34.92 a5.07,5.07 0 0 1 5.06,5.07 v33.94 a5.06,5.06 0 0 1 -5.06,5.06 H48.45999938964843 l1.53,10.23 l-7,-10.23 H27.719999389648436 a5.05,5.05 0 0 1 -5.06,-5.06 V64.91999816894531 A5.06,5.06 0 0 1 27.719999389648436,59.84999816894532 z" style="fill:#fff;opacity:0.6000000000000001;isolation:isolate" id="svg_99"/>
        <path d="M42.299999389648434,74.82999816894531 v2.71 l1.4,0.13 a7.08,7.08 0 0 0 1,2.5 l-0.8900000000000001,1.08 l1.9100000000000001,1.9100000000000001 l1.09,-0.8900000000000001 a7.2,7.2 0 0 0 2.5,1 l0.13,1.3900000000000001 h2.7 l0.14,-1.3900000000000001 a7.37,7.37 0 0 0 2.5,-1 l1.08,0.8900000000000001 l1.9100000000000001,-1.9100000000000001 l-0.8900000000000001,-1.08 a7.28,7.28 0 0 0 1,-2.5 l1.3900000000000001,-0.13 v-2.71 l-1.3900000000000001,-0.13 a7.28,7.28 0 0 0 -1,-2.5 l0.8900000000000001,-1.08 L55.88999938964844,69.19999816894531 l-1.08,0.9 a7.37,7.37 0 0 0 -2.5,-1 l-0.14,-1.4 h-2.7 l-0.13,1.4 a7.2,7.2 0 0 0 -2.5,1 l-1.09,-0.9 L43.88999938964844,71.1199981689453 l0.8900000000000001,1.08 a7.08,7.08 0 0 0 -1,2.5 zm8.52,-2.31 a3.67,3.67 0 1 1 -3.66,3.66 A3.67,3.67 0 0 1 50.819999389648444,72.5199981689453 z" style="fill:#f5f5f5" id="svg_100"/>
        <path d="M44.049999389648434,94.57999816894531 a5.85,5.85 0 0 0 2,-0.81 l0.8500000000000001,0.7000000000000001 l1.5,-1.5 l-0.7000000000000001,-0.8500000000000001 a5.85,5.85 0 0 0 0.81,-2 l1.09,-0.1 V87.91999816894531 l-1.09,-0.1 a5.68,5.68 0 0 0 -0.81,-2 l0.7000000000000001,-0.8500000000000001 l-1.5,-1.5 l-0.8500000000000001,0.7000000000000001 a5.47,5.47 0 0 0 -2,-0.81 l-0.1,-1.1 H41.829999389648435 l-0.11000000000000001,1.1 a5.47,5.47 0 0 0 -2,0.81 l-0.8400000000000001,-0.7000000000000001 l-1.5,1.5 l0.7000000000000001,0.8500000000000001 a5.51,5.51 0 0 0 -0.8200000000000001,2 l-1.09,0.1 v2.12 l1.09,0.1 a5.67,5.67 0 0 0 0.8200000000000001,2 l-0.7000000000000001,0.8500000000000001 l1.5,1.5 l0.8400000000000001,-0.7000000000000001 a5.85,5.85 0 0 0 2,0.81 l0.11000000000000001,1.09 h2.12 zm-4,-5.58 A2.88,2.88 0 1 1 42.88999938964844,91.91999816894531 A2.87,2.87 0 0 1 40.00999938964844,88.99999816894533 z" style="fill:#f5f5f5" id="svg_101"/>
        <path d="M38.52999938964844,82.6199981689453 l0.5900000000000001,0.7100000000000001 l1.47,-1 l-0.45,-0.81 a4.6,4.6 0 0 0 1,-1.49 l0.92,0.09000000000000002 l0.33000000000000007,-1.75 l-0.8900000000000001,-0.26 a4.83,4.83 0 0 0 -0.36000000000000004,-1.7400000000000002 l0.7100000000000001,-0.5900000000000001 l-1,-1.47 l-0.81,0.44000000000000006 a4.57,4.57 0 0 0 -1.49,-1 l0.09000000000000002,-0.92 L36.88999938964844,72.5199981689453 l-0.26,0.8800000000000001 a4.63,4.63 0 0 0 -1.7400000000000002,0.37000000000000005 l-0.5900000000000001,-0.7100000000000001 l-1.47,1 l0.44000000000000006,0.81 a4.79,4.79 0 0 0 -1,1.49 l-0.92,-0.08000000000000002 l-0.33000000000000007,1.75 l0.8800000000000001,0.25 a4.73,4.73 0 0 0 0.37000000000000005,1.75 l-0.7100000000000001,0.5900000000000001 l1,1.47 l0.81,-0.45 a4.82,4.82 0 0 0 1.49,1 l-0.08000000000000002,0.92 l1.75,0.33000000000000007 l0.25,-0.8900000000000001 A4.93,4.93 0 0 0 38.52999938964844,82.6199981689453 zm-4.21,-4.87 a2.41,2.41 0 1 1 4.74,0.8900000000000001 a2.41,2.41 0 0 1 -4.74,-0.8900000000000001 z" style="fill:#f5f5f5" id="svg_102"/>
    </g><g id="freepik--Character--inject-15" class="">
        <path d="M85.24999938964845,184.03999816894532 s2.46,22.14 3.26,24.78 s12.07,16.74 12.07,16.74 l-3.19,1.6700000000000002 s-12,-12.34 -13.91,-16 s-4.77,-22.76 -4.77,-22.76 z" style="fill:#ebb376" id="svg_103"/>
        <path d="M82.99999938964845,174.1799981689453 c4.15,2.2 5.51,32.93 5.51,32.93 l2.1,3.23 L84.22999938964844,214.9199981689453 a57.34,57.34 0 0 1 -4,-7.92 c-1.27,-3.42 -4.28,-20.3 -4.28,-20.3 z" style="fill:#263238" id="svg_104"/>
        <path d="M82.99999938964845,174.1799981689453 c4.15,2.2 5.51,32.93 5.51,32.93 l2.1,3.23 L84.22999938964844,214.9199981689453 a57.34,57.34 0 0 1 -4,-7.92 c-1.27,-3.42 -4.28,-20.3 -4.28,-20.3 z" style="fill:#fff;opacity:0.1;isolation:isolate" id="svg_105"/>
        <polygon points="83.28999328613281,214.88999938964844 90.61000061035156,209.0900115966797 92.17999267578125,212.37998962402344 85.42999267578125,217.1899871826172 83.28999328613281,214.88999938964844 " style="fill:#4C85FF" id="svg_106"/>
        <polygon points="83.28999328613281,214.88999938964844 90.61000061035156,209.0900115966797 92.17999267578125,212.37998962402344 85.42999267578125,217.1899871826172 83.28999328613281,214.88999938964844 " style="fill:#fff;opacity:0.4;isolation:isolate" id="svg_107"/>
        <path d="M66.63999938964844,213.7999981689453 l7.48,11.83 c14.83,-3.45 62.36,-10.7 68.19,5.61 c7.26,20.26 -45.17,36.42 -74.18,37.41 S15.829999389648435,253.1199981689453 34.179999389648444,210.8199981689453 z" style="fill:#4C85FF" id="svg_108"/>
        <path d="M66.63999938964844,213.7999981689453 l7.48,11.83 c14.83,-3.45 62.36,-10.7 68.19,5.61 c7.26,20.26 -45.17,36.42 -74.18,37.41 S15.829999389648435,253.1199981689453 34.179999389648444,210.8199981689453 z" style="opacity:0.2;isolation:isolate" id="svg_109"/>
        <path d="M133.88999938964844,259.9199981689453 a0.2,0.2 0 0 1 -0.21000000000000002,0 a0.15000000000000002,0.15000000000000002 0 0 1 -0.05000000000000001,-0.18000000000000002 c0.09000000000000002,-0.33000000000000007 1.05,-3.12 2,-3.41 a0.6000000000000001,0.6000000000000001 0 0 1 0.5800000000000001,0.17 a1,1 0 0 1 0.35000000000000003,0.9400000000000001 a2.63,2.63 0 0 1 -0.91,1.31 A11.21,11.21 0 0 1 133.88999938964844,259.9199981689453 zm0.25,-0.54 a4.18,4.18 0 0 0 2.07,-2 a0.6400000000000001,0.6400000000000001 0 0 0 -0.25,-0.6400000000000001 a0.22000000000000003,0.22000000000000003 0 0 0 -0.23,-0.07 a1,1 0 0 0 -0.22000000000000003,0.13 A8.17,8.17 0 0 0 134.15999938964845,259.3499981689453 z" style="fill:#4C85FF" id="svg_110"/>
        <path d="M133.88999938964844,259.9199981689453 a0.14,0.14 0 0 1 -0.18000000000000002,-0.05000000000000001 c-0.09000000000000002,-0.08000000000000002 -1.4300000000000002,-1.77 -1.21,-2.91 a1.06,1.06 0 0 1 0.46,-0.7000000000000001 a0.6200000000000001,0.6200000000000001 0 0 1 0.77,-0.07 c0.7100000000000001,0.49000000000000005 0.6200000000000001,2.7600000000000002 0.28,3.6100000000000003 l0,0.09000000000000002 zm-0.7600000000000001,-3.31 a0.7100000000000001,0.7100000000000001 0 0 0 -0.23,0.4 a3.93,3.93 0 0 0 0.8900000000000001,2.33 c0.22000000000000003,-1 0.15000000000000002,-2.55 -0.26,-2.84 c0,0 -0.13,-0.09000000000000002 -0.3400000000000001,0.06000000000000001 l-0.06000000000000001,0.05000000000000001 z" style="fill:#4C85FF" id="svg_111"/>
        <path d="M82.88999938964844,264.63999816894534 a0.18000000000000002,0.18000000000000002 0 0 1 0.19000000000000003,-0.09000000000000002 a0.15000000000000002,0.15000000000000002 0 0 1 0.13,0.13 c0.07,0.33000000000000007 0.5800000000000001,3.24 -0.13,4 a0.56,0.56 0 0 1 -0.5800000000000001,0.13 a1,1 0 0 1 -0.7600000000000001,-0.6500000000000001 a2.59,2.59 0 0 1 0.16000000000000003,-1.58 A11.05,11.05 0 0 1 82.88999938964844,264.63999816894534 zm0,0.5900000000000001 a4.18,4.18 0 0 0 -0.8500000000000001,2.74 a0.6400000000000001,0.6400000000000001 0 0 0 0.53,0.44000000000000006 a0.19000000000000003,0.19000000000000003 0 0 0 0.23,-0.05000000000000001 a0.6100000000000001,0.6100000000000001 0 0 0 0.13,-0.22000000000000003 A8.13,8.13 0 0 0 82.94999938964844,265.2299981689453 z" style="fill:#4C85FF" id="svg_112"/>
        <polygon points="101.89999389648438,249.9600067138672 89.96000671386719,254.2100067138672 84.22999572753906,256.24998474121094 85.69999694824219,262.5299835205078 91.25,261.3400115966797 104.80999755859375,258.4499969482422 101.89999389648438,249.9600067138672 " style="fill:#ebb376" id="svg_113"/>
        <path d="M87.25999938964844,262.8199981689453 l-1,-7.4 a0.7400000000000001,0.7400000000000001 0 0 0 -0.8600000000000001,-0.6300000000000001 l-3.6500000000000004,0.6100000000000001 s-5,0.47000000000000003 -6,1.7400000000000002 c-2.89,3.73 -1.09,20.15 0.8400000000000001,20.73 c0.7000000000000001,0.21000000000000002 1.44,-0.7500000000000001 1.75,-1.42 c1,-2.12 2.6900000000000004,-7.65 3.52,-9.41 c1,-2.05 3.64,-3.05 4.84,-3.41 A0.7400000000000001,0.7400000000000001 0 0 0 87.25999938964844,262.8199981689453 z" style="fill:#263238" id="svg_114"/>
        <path d="M82.93999938964845,264.57999816894534 a0.17,0.17 0 0 1 0.18000000000000002,0 c0.12000000000000001,0 2.11,0.8600000000000001 2.47,2 a1.11,1.11 0 0 1 -0.07,0.8400000000000001 a0.6300000000000001,0.6300000000000001 0 0 1 -0.6400000000000001,0.44000000000000006 c-0.8500000000000001,-0.09000000000000002 -1.8800000000000001,-2.12 -2,-3 l0,-0.09000000000000002 A0.18000000000000002,0.18000000000000002 0 0 1 82.93999938964845,264.57999816894534 zm2.27,2.54 a0.7600000000000001,0.7600000000000001 0 0 0 0,-0.47000000000000003 c-0.23,-0.7000000000000001 -1.34,-1.32 -1.9100000000000001,-1.6 c0.28,0.9500000000000001 1.11,2.31 1.61,2.36 c0,0 0.15000000000000002,0 0.26,-0.21000000000000002 l0,-0.08000000000000002 z" style="fill:#4C85FF" id="svg_115"/>
        <polygon points="101.89999389648438,249.9600067138672 89.96000671386719,254.2100067138672 91.25,261.3400115966797 104.80999755859375,258.4499969482422 101.89999389648438,249.9600067138672 " style="opacity:0.2;isolation:isolate" id="svg_116"/>
        <polygon points="93.36000061035156,262.4199981689453 96.80000305175781,262.6599884033203 94.5,250.84999084472656 90.61000061035156,253.00999450683594 93.36000061035156,262.4199981689453 " style="fill:#4C85FF" id="svg_117"/>
        <polygon points="93.36000061035156,262.4199981689453 96.80000305175781,262.6599884033203 94.5,250.84999084472656 90.61000061035156,253.00999450683594 93.36000061035156,262.4199981689453 " style="fill:#fff;opacity:0.6000000000000001;isolation:isolate" id="svg_118"/>
        <path d="M43.569999389648444,216.51999816894534 l17.88,19.83 s19.77,-0.44000000000000006 43.77,11.29 c0,0 25.75,-10.64 28.12,-19.48 c3.1,-11.58 -59.22,-2.5300000000000002 -59.22,-2.5300000000000002 z" style="opacity:0.2;isolation:isolate" id="svg_119"/>
        <path d="M127.42999938964843,230.51999816894534 v2.94 c0,0.7500000000000001 -0.8900000000000001,1.06 -1.6300000000000001,1.06 H67.08999938964844 c-0.7500000000000001,0 -1.6600000000000001,-0.31000000000000005 -1.6600000000000001,-1.06 V230.51999816894534 z" style="fill:#263238" id="svg_120"/>
        <path d="M127.42999938964843,230.51999816894534 v2.94 c0,0.7500000000000001 -0.8900000000000001,1.06 -1.6300000000000001,1.06 H67.08999938964844 c-0.7500000000000001,0 -1.6600000000000001,-0.31000000000000005 -1.6600000000000001,-1.06 V230.51999816894534 z" style="fill:#fff;opacity:0.4;isolation:isolate" id="svg_121"/>
        <path d="M127.42999938964843,230.51999816894534 v2.94 c0,0.7500000000000001 -0.8900000000000001,1.06 -1.6300000000000001,1.06 H87.07999938964844 c-0.7500000000000001,0 -1.6500000000000001,-0.31000000000000005 -1.6500000000000001,-1.06 V230.51999816894534 z" style="opacity:0.2;isolation:isolate" id="svg_122"/>
        <path d="M137.24999938964845,200.01999816894534 l-7,31.7 a2.39,2.39 0 0 1 -2.27,1.8 H89.81999938964844 a1.53,1.53 0 0 1 -1.4300000000000002,-2 l7,-31.46 a2.17,2.17 0 0 1 2.26,-1.55 h38.18 C136.88999938964844,198.51999816894534 137.47999938964844,198.9899981689453 137.24999938964845,200.01999816894534 z" style="fill:#263238" id="svg_123"/>
        <path d="M137.24999938964845,200.01999816894534 l-7,31.7 a2.39,2.39 0 0 1 -2.27,1.8 H91.11999938964843 a1.55,1.55 0 0 1 -1.45,-2 l7,-31.46 A2.19,2.19 0 0 1 98.88999938964844,198.51999816894534 h36.88 C136.88999938964844,198.51999816894534 137.47999938964844,198.9899981689453 137.24999938964845,200.01999816894534 z" style="fill:#fff;opacity:0.4;isolation:isolate" id="svg_124"/>
        <path d="M118.42999938964843,216.1299981689453 h0 c0,2.72 -2.91,4.92 -5,4.92 s-3.4,-2.2 -2.79,-4.92 s2.73,-4.83 4.82,-4.91 c-0.6100000000000001,2.72 0.6900000000000002,4.91 2.8200000000000003,4.91 A1,1 0 0 0 118.42999938964843,216.1299981689453 z" style="opacity:0.2;isolation:isolate" id="svg_125"/>
        <polygon points="110.19000244140625,263.5399932861328 122.69000244140625,265.59999084472656 128.69000244140625,266.5900115966797 130.44000244140625,260.38999938964844 125.00999450683594,258.72999572753906 111.75,254.6999969482422 110.19000244140625,263.5399932861328 " style="fill:#ebb376" id="svg_126"/>
        <path d="M129.21999938964845,259.3699981689453 l-2.7,7 a0.7300000000000001,0.7300000000000001 0 0 0 0.44000000000000006,1 l3.49,1.23 s4.57,2 6.05,1.36 c4.33,-1.86 10.7,-17.11 9.3,-18.54 c-0.51,-0.53 -1.6300000000000001,0 -2.22,0.39000000000000007 c-1.8800000000000001,1.3800000000000001 -6.06,5.4 -7.63,6.53 c-1.85,1.32 -4.67,0.91 -5.890000000000001,0.6500000000000001 A0.7200000000000001,0.7200000000000001 0 0 0 129.21999938964845,259.3699981689453 z" style="fill:#263238" id="svg_127"/>
        <polygon points="110.19000244140625,263.5399932861328 122.69000244140625,265.59999084472656 125.00999450683594,258.72999572753906 111.75,254.6999969482422 110.19000244140625,263.5399932861328 " style="opacity:0.2;isolation:isolate" id="svg_128"/>
        <path d="M122.88999938964844,257.4399981689453 s-51,-28.66 -68.56,-27.84 s-20.13,16.32 -12.870000000000001,26 s20.66,12.06 20.66,12.06 s-9.13,-12.89 -7.8100000000000005,-16.52 s6.48,1.44 6.48,1.44 S92.82999938964844,262.9199981689453 120.88999938964844,265.3399981689453 z" style="fill:#4C85FF" id="svg_129"/>
        <polygon points="123.67999267578125,256.65000915527344 120.80000305175781,254.7100067138672 117.08999633789062,266.09999084472656 121.53999328613281,266.09999084472656 123.67999267578125,256.65000915527344 " style="fill:#4C85FF" id="svg_130"/>
        <polygon points="123.67999267578125,256.65000915527344 120.80000305175781,254.7100067138672 117.08999633789062,266.09999084472656 121.53999328613281,266.09999084472656 123.67999267578125,256.65000915527344 " style="fill:#fff;opacity:0.6000000000000001;isolation:isolate" id="svg_131"/>
        <path d="M34.179999389648444,210.8199981689453 l32.47,3 s5.09,-10.54 9,-14.65 s7.36,-25 7.36,-25 a69.34,69.34 0 0 0 -8.14,-3.3200000000000003 a80.68,80.68 0 0 0 -24.84,-4.18 H49.88999938964844 c-2.42,0 -3.8200000000000003,0.12000000000000001 -3.8200000000000003,0.12000000000000001 a6.9,6.9 0 0 0 -2.31,2.63 c-3.48,6 -6.25,20 -7.890000000000001,30.05 C34.75999938964844,205.96999816894532 34.179999389648444,210.8199981689453 34.179999389648444,210.8199981689453 z" style="fill:#263238" id="svg_132"/>
        <path d="M35.819999389648444,199.47999816894531 c7.16,-3.2800000000000002 16.93,-8.83 16.42,-14.46 c-0.55,-6.18 -5.5600000000000005,-12.4 -8.53,-15.59 C40.22999938964844,175.4299981689453 37.45999938964843,189.4299981689453 35.819999389648444,199.47999816894531 z" style="opacity:0.2;isolation:isolate" id="svg_133"/>
        <path d="M51.609999389648436,166.70999816894533 s3.7,12.18 13.82,13.5 s11.8,-8.5 11.8,-8.5 S64.19999938964844,164.5599981689453 51.609999389648436,166.70999816894533 z" style="fill:#263238" id="svg_134"/>
        <path d="M51.609999389648436,166.70999816894533 s3.7,12.18 13.82,13.5 s11.8,-8.5 11.8,-8.5 S64.19999938964844,164.5599981689453 51.609999389648436,166.70999816894533 z" style="fill:#fff;opacity:0.1;isolation:isolate" id="svg_135"/>
        <path d="M53.72999938964844,167.0499981689453 s4.77,11.28 13.37,11.28 s8.870000000000001,-6.33 8.870000000000001,-6.33 S67.36999938964844,166.3599981689453 53.72999938964844,167.0499981689453 z" style="fill:#4C85FF" id="svg_136"/>
        <path d="M53.72999938964844,167.0499981689453 s4.77,11.28 13.37,11.28 s8.870000000000001,-6.33 8.870000000000001,-6.33 S67.36999938964844,166.3599981689453 53.72999938964844,167.0499981689453 z" style="fill:#fff;opacity:0.4;isolation:isolate" id="svg_137"/>
        <path d="M69.29999938964843,168.8099981689453 c0.06000000000000001,2 1.21,2.5 1.21,2.5 a4.1,4.1 0 0 1 -4.45,4.73 c-6.37,-0.6500000000000001 -8.38,-8.32 -8.38,-8.32 c4.63,-1.84 5.67,-6.95 5.87,-10 a16.8,16.8 0 0 0 0,-2.38 l8.66,5.45 a30.32,30.32 0 0 0 -1.9300000000000002,3.79 A10.84,10.84 0 0 0 69.29999938964843,168.8099981689453 z" style="fill:#ebb376" id="svg_138"/>
        <path d="M71.67999938964844,160.1199981689453 a31.44,31.44 0 0 0 -1.54,4 a10.74,10.74 0 0 0 -0.54,4.29 c-4.87,0.38000000000000006 -6.8100000000000005,-10.37 -6.8100000000000005,-10.37 l0,-0.07 a16.26,16.26 0 0 0 -0.24000000000000002,-2.37 z" style="opacity:0.2;isolation:isolate" id="svg_139"/>
        <path d="M77.21999938964845,136.09999816894532 s6.36,-7.32 -1.25,-13.45 s-22.64,-3.37 -25.41,10.48 s1,19.7 1,19.7 s0,-8.82 2.54,-11.39 c0,0 -0.7600000000000001,4.22 0,6.75 s0,0.93 0,0.93 s2.34,-11.05 13.620000000000001,-7.88 S77.21999938964845,136.09999816894532 77.21999938964845,136.09999816894532 z" style="fill:#263238" id="svg_140"/>
        <path d="M78.73999938964843,138.47999816894531 c8.38,2.56 9.71,7.86 7.69,16.68 c-2.52,11 -7.25,18 -17,12.46 C56.12999938964843,160.14999816894533 64.82999938964844,134.2399981689453 78.73999938964843,138.47999816894531 z" style="fill:#ebb376" id="svg_141"/>
        <path d="M81.15999938964845,153.03999816894532 a18.47,18.47 0 0 0 1.37,4.22 a2.4,2.4 0 0 1 -2.49,0.28 z" style="fill:#d58745" id="svg_142"/>
        <path d="M76.23999938964843,150.7999981689453 c-0.2,0.6900000000000002 -0.7300000000000001,1.15 -1.19,1 s-0.6800000000000002,-0.8 -0.49000000000000005,-1.49 s0.7300000000000001,-1.15 1.19,-1 S76.42999938964843,150.09999816894532 76.23999938964843,150.7999981689453 z" style="fill:#263238" id="svg_143"/>
        <path d="M75.54999938964843,149.28999816894532 l1.6700000000000002,-0.17 S76.11999938964843,150.1799981689453 75.54999938964843,149.28999816894532 z" style="fill:#263238" id="svg_144"/>
        <path d="M84.88999938964844,153.0599981689453 c-0.19000000000000003,0.6900000000000002 -0.7200000000000001,1.15 -1.18,1 s-0.6800000000000002,-0.8 -0.49000000000000005,-1.49 s0.7300000000000001,-1.15 1.19,-1 S85.08999938964843,152.3699981689453 84.88999938964844,153.0599981689453 z" style="fill:#263238" id="svg_145"/>
        <path d="M84.20999938964843,151.5499981689453 l1.6700000000000002,-0.17 S84.76999938964843,152.4399981689453 84.20999938964843,151.5499981689453 z" style="fill:#263238" id="svg_146"/>
        <path d="M73.88999938964844,145.5099981689453 a0.37000000000000005,0.37000000000000005 0 0 1 -0.2,-0.6700000000000002 a4.85,4.85 0 0 1 4.37,-0.18000000000000002 a0.36000000000000004,0.36000000000000004 0 0 1 0.18000000000000002,0.47000000000000003 a0.36000000000000004,0.36000000000000004 0 0 1 -0.48000000000000004,0.19000000000000003 a4.22,4.22 0 0 0 -3.67,0.12000000000000001 A0.31000000000000005,0.31000000000000005 0 0 1 73.88999938964844,145.5099981689453 z" style="fill:#263238" id="svg_147"/>
        <path d="M87.23999938964843,148.5599981689453 a0.39000000000000007,0.39000000000000007 0 0 1 -0.28,-0.13 a3.6900000000000004,3.6900000000000004 0 0 0 -2.83,-1.58 a0.37000000000000005,0.37000000000000005 0 0 1 -0.38000000000000006,-0.3400000000000001 a0.36000000000000004,0.36000000000000004 0 0 1 0.3400000000000001,-0.38000000000000006 a4.36,4.36 0 0 1 3.43,1.83 a0.37000000000000005,0.37000000000000005 0 0 1 0,0.52 A0.38000000000000006,0.38000000000000006 0 0 1 87.23999938964843,148.5599981689453 z" style="fill:#263238" id="svg_148"/>
        <path d="M65.27999938964844,149.8099981689453 s6,-5.69 7,-11.18 c0,0 18.67,-1.7200000000000002 14.35,15.38 c0,0 6.19,-14.47 -8.11,-19.19 S57.88999938964844,151.1799981689453 63.41999938964844,159.71999816894532 C63.41999938964844,159.71999816894532 61.549999389648434,153.3699981689453 65.27999938964844,149.8099981689453 z" style="fill:#263238" id="svg_149"/>
        <path d="M78.10999938964844,161.3099981689453 h0 a4.640000000000001,4.640000000000001 0 0 1 -4.63,-3.93 a0.38000000000000006,0.38000000000000006 0 0 1 0.32000000000000006,-0.41000000000000003 a0.37000000000000005,0.37000000000000005 0 0 1 0.4,0.32000000000000006 a3.87,3.87 0 0 0 3.93,3.3 a0.36000000000000004,0.36000000000000004 0 0 1 0,0.7200000000000001 z" style="fill:#263238" id="svg_150"/>
        <path d="M63.829999389648435,148.1299981689453 a0.25,0.25 0 0 0 0.13,0.28 l0.06000000000000001,0 l8.53,2 a3.7,3.7 0 0 0 2.15,4 a4.46,4.46 0 0 0 5.72,-1.55 a3.15,3.15 0 0 0 0.26,-0.56 a1.46,1.46 0 0 1 1.1,-0.32000000000000006 a0.79,0.79 0 0 1 0.44000000000000006,0.51 a3.72,3.72 0 0 0 2.16,3.93 a4.47,4.47 0 0 0 5.72,-1.56 a3.63,3.63 0 0 0 -1.7200000000000002,-5.16 a4.46,4.46 0 0 0 -5.72,1.55 a3.15,3.15 0 0 0 -0.26,0.56 a1.15,1.15 0 0 0 -0.43000000000000005,-0.28 a1.59,1.59 0 0 0 -1.11,0.12000000000000001 a3.71,3.71 0 0 0 -2.16,-4 a4.46,4.46 0 0 0 -5.72,1.55 a3.73,3.73 0 0 0 -0.33000000000000007,0.7400000000000001 l-8.49,-2 A0.27,0.27 0 0 0 63.829999389648435,148.1299981689453 zm19.3,3.31 a3.91,3.91 0 0 1 5,-1.36 a3.18,3.18 0 0 1 1.5,4.52 a3.9,3.9 0 0 1 -5,1.35 A3.17,3.17 0 0 1 83.12999938964845,151.4399981689453 zm-9.68,-2 a3.91,3.91 0 0 1 5,-1.36 a3.18,3.18 0 0 1 1.5,4.52 a3.9,3.9 0 0 1 -5,1.36 A3.19,3.19 0 0 1 73.44999938964844,149.4299981689453 z" style="fill:#263238" id="svg_151"/>
        <g style="opacity:0.30000000000000004;isolation:isolate" id="svg_152">
            <path d="M63.829999389648435,148.1299981689453 a0.25,0.25 0 0 0 0.13,0.28 l0.06000000000000001,0 l8.53,2 a3.7,3.7 0 0 0 2.15,4 a4.46,4.46 0 0 0 5.72,-1.55 a3.15,3.15 0 0 0 0.26,-0.56 a1.46,1.46 0 0 1 1.1,-0.32000000000000006 a0.79,0.79 0 0 1 0.44000000000000006,0.51 a3.72,3.72 0 0 0 2.16,3.93 a4.47,4.47 0 0 0 5.72,-1.56 a3.63,3.63 0 0 0 -1.7200000000000002,-5.16 a4.46,4.46 0 0 0 -5.72,1.55 a3.15,3.15 0 0 0 -0.26,0.56 a1.15,1.15 0 0 0 -0.43000000000000005,-0.28 a1.59,1.59 0 0 0 -1.11,0.12000000000000001 a3.71,3.71 0 0 0 -2.16,-4 a4.46,4.46 0 0 0 -5.72,1.55 a3.73,3.73 0 0 0 -0.33000000000000007,0.7400000000000001 l-8.49,-2 A0.27,0.27 0 0 0 63.829999389648435,148.1299981689453 zm19.3,3.31 a3.91,3.91 0 0 1 5,-1.36 a3.18,3.18 0 0 1 1.5,4.52 a3.9,3.9 0 0 1 -5,1.35 A3.17,3.17 0 0 1 83.12999938964845,151.4399981689453 zm-9.68,-2 a3.91,3.91 0 0 1 5,-1.36 a3.18,3.18 0 0 1 1.5,4.52 a3.9,3.9 0 0 1 -5,1.36 A3.19,3.19 0 0 1 73.44999938964844,149.4299981689453 z" style="fill:#fff" id="svg_153"/>
        </g>
        <path d="M66.10999938964844,151.9899981689453 a3.84,3.84 0 0 0 -2.93,-4.5600000000000005 c-2.68,-0.51 -5.55,4.44 0.52,7.69 C64.56999938964844,155.58999816894533 65.36999938964844,154.83999816894533 66.10999938964844,151.9899981689453 z" style="fill:#ebb376" id="svg_154"/>
        <path d="M49.88999938964844,177.7399981689453 S50.88999938964844,199.1199981689453 52.69999938964844,203.9199981689453 s20.69,22.48 20.69,22.48 s5.27,-1.17 6.14,-0.8300000000000001 s5.9,5 5.9,5 H70.88999938964844 l-1.27,-2.24 s-19.54,-14.48 -21.69,-17.93 c-1.59,-2.55 -6.7,-28.52 -6.7,-28.52 z" style="fill:#ebb376" id="svg_155"/>
        <path d="M46.01999938964843,166.7999981689453 c3.39,-1.7600000000000002 5,3.91 7.07,15.38 a120.63,120.63 0 0 1 1.6900000000000002,21.95 l2.9,5.15 l-7.32,6.74 a31.42,31.42 0 0 1 -7.71,-11.89 C40.38999938964844,197.22999816894531 34.15999938964843,172.9899981689453 46.01999938964843,166.7999981689453 z" style="fill:#263238" id="svg_156"/>
        <path d="M46.01999938964843,166.7999981689453 c3.39,-1.7600000000000002 5,3.91 7.07,15.38 a120.63,120.63 0 0 1 1.6900000000000002,21.95 l2.9,5.15 l-7.32,6.74 a31.42,31.42 0 0 1 -7.71,-11.89 C40.38999938964844,197.22999816894531 34.15999938964843,172.9899981689453 46.01999938964843,166.7999981689453 z" style="fill:#fff;opacity:0.1;isolation:isolate" id="svg_157"/>
        <polygon points="48.44999694824219,216.02000427246094 57.68000030517578,207.77000427246094 59.86000061035156,210.8199920654297 51.61000061035156,218.9199981689453 48.44999694824219,216.02000427246094 " style="fill:#4C85FF" id="svg_158"/>
        <polygon points="48.44999694824219,216.02000427246094 57.68000030517578,207.77000427246094 59.86000061035156,210.8199920654297 51.61000061035156,218.9199981689453 48.44999694824219,216.02000427246094 " style="fill:#fff;opacity:0.4;isolation:isolate" id="svg_159"/>
    </g></g></svg>