<svg width="392" height="350" xmlns="http://www.w3.org/2000/svg">

 <g>
  <title>background</title>
  <rect fill="none" id="canvas_background" height="352" width="394" y="-1" x="-1"/>
 </g>
 <g>
  <title>Layer 1</title>
  <g id="freepik--background-simple--inject-10">
   <path id="svg_1" fill="#407BFF" d="m383.3,69.44c-7.53,-26.72 -29.22,-55 -55.74,-63.79c-19.19,-6.38 -37.19,-1.76 -52.54,5c-35.34,15.65 -51.2,59.13 -84.94,77.14c-27.66,14.76 -70.83,6.72 -99.1,20.58c-22,10.81 -42.63,25.4 -52.2,48.37s-5.71,55.87 15.34,80.08c19.89,22.88 49.32,32.71 76,38.46c47.25,10.18 94.36,12.62 136,2.72c29.44,-7 62.5,-19.9 78.68,-44.14c16.91,-25.34 22.56,-54.22 32.68,-83.49c0.73,-2.12 1.45,-4.26 2.14,-6.41c7.22,-22.55 11.5,-46.82 3.68,-74.52z"/>
   <path id="svg_2" fill="#fff" opacity="0.9" d="m383.3,69.44c-7.53,-26.72 -29.22,-55 -55.74,-63.79c-19.19,-6.38 -37.19,-1.76 -52.54,5c-35.34,15.65 -51.2,59.13 -84.94,77.14c-27.66,14.76 -70.83,6.72 -99.1,20.58c-22,10.81 -42.63,25.4 -52.2,48.37s-5.71,55.87 15.34,80.08c19.89,22.88 49.32,32.71 76,38.46c47.25,10.18 94.36,12.62 136,2.72c29.44,-7 62.5,-19.9 78.68,-44.14c16.91,-25.34 22.56,-54.22 32.68,-83.49c0.73,-2.12 1.45,-4.26 2.14,-6.41c7.22,-22.55 11.5,-46.82 3.68,-74.52z"/>
  </g>
  <g id="freepik--Graphic--inject-10">
   <polygon id="svg_3" fill="#407BFF" points="52.849998474121094,171.0500030517578 51.58000183105469,169.3000030517578 143.11000061035156,102.80000305175781 204.42001342773438,148.44000244140625 253.75,113.41000366210938 306.29998779296875,145.99000549316406 374.79998779296875,59.910003662109375 376.42999267578125,61.32000732421875 306.739990234375,148.7899932861328 253.83999633789062,116 204.3900146484375,151.1199951171875 203.760009765625,150.64999389648438 143.10000610351562,105.47999572753906 52.849998474121094,171.0500030517578 "/>
   <g id="svg_4" opacity="0.7">
    <polygon id="svg_5" fill="#fff" points="52.849998474121094,171.0500030517578 51.58000183105469,169.3000030517578 143.11000061035156,102.80000305175781 204.42001342773438,148.44000244140625 253.75,113.41000366210938 306.29998779296875,145.99000549316406 374.79998779296875,59.910003662109375 376.42999267578125,61.32000732421875 306.739990234375,148.7899932861328 253.83999633789062,116 204.3900146484375,151.1199951171875 203.760009765625,150.64999389648438 143.10000610351562,105.47999572753906 52.849998474121094,171.0500030517578 "/>
   </g>
   <circle id="svg_6" fill="#407BFF" r="5.39" cy="170.17" cx="52.21"/>
   <path id="svg_7" fill="#407BFF" d="m145.65,105a3.92,3.92 0 1 1 -3.29,-4.47a3.92,3.92 0 0 1 3.29,4.47z"/>
   <circle id="svg_8" fill="#407BFF" r="3.27" cy="115.52" cx="253.81"/>
   <path id="svg_9" fill="#407BFF" d="m209.45,150.55a5.1,5.1 0 1 1 -4.28,-5.81a5.11,5.11 0 0 1 4.28,5.81z"/>
   <path id="svg_10" fill="#407BFF" d="m310.32,148a3.84,3.84 0 1 1 -3.22,-4.38a3.84,3.84 0 0 1 3.22,4.38z"/>
   <polygon id="svg_11" fill="#407BFF" points="380.3900146484375,53.33000183105469 360.42999267578125,66.42999267578125 372,75.67999267578125 380.3900146484375,53.33000183105469 "/>
  </g>
  <g id="freepik--Coins--inject-10">
   <path id="svg_12" fill="#407BFF" d="m321.2,343.49l0,0l0,-11.1l0,0l-1,-1c-0.32,-0.32 -0.65,-0.64 -1.06,-1.06l-72.63,0l-0.95,1l-1.17,1.15l0,0l0,11.1l0,0l1.17,1.14l0.95,1l72.59,0l1,-1l1.1,-1.08l0,-0.15z"/>
   <path id="svg_13" fill="#407BFF" d="m327.6,328.22l0,0l0,-11.1l0,0l-1.05,-1l-1.05,-1.12l-72.59,0l-1,0.95l-1.16,1.15l0,0l0,11.09l0,0l1.16,1.15l1,0.95l72.59,0l1,-1l1.1,-1.09l0,0.02z"/>
   <path id="svg_14" fill="#407BFF" d="m321.2,313l0,0l0,-11.14l0,0l-1,-1l-1.06,-1.06l-72.63,0l-0.95,0.95l-1.17,1.15l0,0l0,11.1l0,0l1.17,1.15l0.95,0.95l72.59,0l1,-1l1.1,-1.09l0,-0.01z"/>
   <path id="svg_15" fill="#407BFF" d="m315.22,297.7l0,0l0,-11.12l0,0l-1.06,-1l-1.06,-1.06l-72.57,0l-0.95,0.95l-1.16,1.15l0,0l0,0l0,11.09l0,0l1.16,1.14l0.95,1l72.59,0l1,-1c0.33,-0.33 0.66,-0.66 1.1,-1.08l0,-0.07z"/>
   <path id="svg_16" fill="#407BFF" d="m330.17,282.43l0,0l0,-11.1l0,0l-1.05,-1l-1.07,-1.06l-72.57,0l-1,0.95l-1.16,1.15l0,0l0,11.09l0,0l1.16,1.15l1,0.95l72.58,0l1,-1l1.1,-1.09l0.01,-0.04z"/>
   <path id="svg_17" fill="#407BFF" d="m318.21,267.17l0,0l0,-11.1l0,0l-1,-1l-1.1,-1.07l-72.59,0l-0.95,1l-1.16,1.15l0,0l0,11.09l0,0l1.16,1.15l0.95,0.95l72.59,0l1,-1l1.09,-1.09l0.01,-0.08z"/>
   <path id="svg_18" fill="#407BFF" d="m325,251.91l0,0l0,-11.12l0,0l-1.06,-1l-1.06,-1.05l-72.53,0l-1,0.94l-1.16,1.15l0,0l0,0l0,11.07l0,0l1.16,1.14l1,1l72.59,0l1,-1c0.33,-0.33 0.66,-0.66 1.1,-1.08l-0.04,-0.05z"/>
   <path id="svg_19" fill="#407BFF" d="m219.54,343.49l0,0l0,-11.1l0,0l-1.05,-1l-1.06,-1.06l-72.58,0l-0.95,1l-1.16,1.15l0,0l0,11.1l0,0l1.16,1.14l0.95,1l72.59,0l1,-1l1.1,-1.08l0,-0.15z"/>
   <path id="svg_20" fill="#407BFF" d="m225.94,328.22l0,0l0,-11.1l0,0l-1,-1l-1.1,-1.12l-72.58,0l-1,0.95l-1.16,1.15l0,0l0,11.09l0,0l1.16,1.15l1,0.95l72.58,0l1,-1l1.1,-1.09l0,0.02z"/>
   <path id="svg_21" fill="#407BFF" d="m219.54,313l0,0l0,-11.14l0,0l-1.05,-1l-1.06,-1.06l-72.58,0l-0.95,0.95c-0.36,0.35 -0.71,0.69 -1.16,1.15l0,0l0,11.1l0,0l1.16,1.15l0.95,0.95l72.59,0l1,-1l1.1,-1.09l0,-0.01z"/>
   <path id="svg_22" fill="#407BFF" d="m213.56,297.7l0,0l0,-11.12l0,0l-1.06,-1l-1.06,-1.06l-72.57,0l-1,0.95l-1.16,1.15l0,0l0,0l0,11.09l0,0l1.16,1.14l1,1l72.59,0l1,-1l1.1,-1.08l0,-0.07z"/>
   <path id="svg_23" fill="#407BFF" d="m228.51,282.43l0,0l0,-11.1l0,0l-1,-1l-1.07,-1.06l-72.62,0l-1,0.95l-1.16,1.15l0,0l0,11.09l0,0l1.16,1.15l1,0.95l72.58,0l1,-1l1.1,-1.09l0.01,-0.04z"/>
   <path id="svg_24" fill="#407BFF" d="m247,267.17l0,0l0,-11.1l0,0l-1.05,-1c-0.32,-0.32 -0.65,-0.64 -1.06,-1.06l-72.62,0l-1,1l-1.16,1.15l0,0l0,11.09l0,0c0.46,0.45 0.81,0.79 1.16,1.15l1,0.95l72.59,0l1,-1l1.1,-1.09l0.04,-0.09z"/>
   <path id="svg_25" fill="#407BFF" d="m253.79,251.91l0,0l0,-11.1l0,0l0,0l-1.05,-1l-1.06,-1.05l-72.58,0l-0.95,0.94l-1.15,1.09l0,0l0,11.11l0,0l1.16,1.14l1,1l72.59,0l1,-1l1.1,-1.08l-0.06,-0.05z"/>
   <g id="svg_26" opacity="0.25">
    <path id="svg_27" d="m219.54,343.49l0,0l0,-11.1l0,0l-1.05,-1l-1.06,-1.06l-72.58,0l-0.95,1l-1.16,1.15l0,0l0,11.1l0,0l1.16,1.14l0.95,1l72.59,0l1,-1l1.1,-1.08l0,-0.15z"/>
   </g>
   <g id="svg_28" opacity="0.25">
    <path id="svg_29" d="m225.94,328.22l0,0l0,-11.1l0,0l-1,-1l-1.1,-1.12l-72.58,0l-1,0.95l-1.16,1.15l0,0l0,11.09l0,0l1.16,1.15l1,0.95l72.58,0l1,-1l1.1,-1.09l0,0.02z"/>
   </g>
   <g id="svg_30" opacity="0.1">
    <path id="svg_31" d="m219.54,313l0,0l0,-11.14l0,0l-1.05,-1l-1.06,-1.06l-72.58,0l-0.95,0.95c-0.36,0.35 -0.71,0.69 -1.16,1.15l0,0l0,11.1l0,0l1.16,1.15l0.95,0.95l72.59,0l1,-1l1.1,-1.09l0,-0.01z"/>
   </g>
   <g id="svg_32" opacity="0.25">
    <path id="svg_33" d="m213.56,297.7l0,0l0,-11.12l0,0l-1.06,-1l-1.06,-1.06l-72.57,0l-1,0.95l-1.16,1.15l0,0l0,0l0,11.09l0,0l1.16,1.14l1,1l72.59,0l1,-1l1.1,-1.08l0,-0.07z"/>
   </g>
   <g id="svg_34" opacity="0.1">
    <path id="svg_35" d="m228.51,282.43l0,0l0,-11.1l0,0l-1,-1l-1.07,-1.06l-72.62,0l-1,0.95l-1.16,1.15l0,0l0,11.09l0,0l1.16,1.15l1,0.95l72.58,0l1,-1l1.1,-1.09l0.01,-0.04z"/>
   </g>
   <g id="svg_36" opacity="0.25">
    <path id="svg_37" d="m247,267.17l0,0l0,-11.1l0,0l-1.05,-1c-0.32,-0.32 -0.65,-0.64 -1.06,-1.06l-72.62,0l-1,1l-1.16,1.15l0,0l0,11.09l0,0c0.46,0.45 0.81,0.79 1.16,1.15l1,0.95l72.59,0l1,-1l1.1,-1.09l0.04,-0.09z"/>
   </g>
   <g id="svg_38" opacity="0.1">
    <path id="svg_39" d="m253.79,251.91l0,0l0,-11.1l0,0l0,0l-1.05,-1l-1.06,-1.05l-72.58,0l-0.95,0.94l-1.15,1.09l0,0l0,11.11l0,0l1.16,1.14l1,1l72.59,0l1,-1l1.1,-1.08l-0.06,-0.05z"/>
   </g>
   <g id="svg_40" opacity="0.2">
    <path id="svg_41" d="m321.2,343.49l0,0l0,-11.1l0,0l-1,-1c-0.32,-0.32 -0.65,-0.64 -1.06,-1.06l-72.63,0l-0.95,1l-1.17,1.15l0,0l0,11.1l0,0l1.17,1.14l0.95,1l72.59,0l1,-1l1.1,-1.08l0,-0.15z"/>
   </g>
   <g id="svg_42" opacity="0.2">
    <path id="svg_43" d="m327.6,328.22l0,0l0,-11.1l0,0l-1.05,-1l-1.05,-1.12l-72.59,0l-1,0.95l-1.16,1.15l0,0l0,11.09l0,0l1.16,1.15l1,0.95l72.59,0l1,-1l1.1,-1.09l0,0.02z"/>
   </g>
   <g id="svg_44" opacity="0.3">
    <path id="svg_45" d="m321.2,313l0,0l0,-11.14l0,0l-1,-1l-1.06,-1.06l-72.63,0l-0.95,0.95l-1.17,1.15l0,0l0,11.1l0,0l1.17,1.15l0.95,0.95l72.59,0l1,-1l1.1,-1.09l0,-0.01z"/>
   </g>
   <g id="svg_46" opacity="0.2">
    <path id="svg_47" d="m315.22,297.7l0,0l0,-11.12l0,0l-1.06,-1l-1.06,-1.06l-72.57,0l-0.95,0.95l-1.16,1.15l0,0l0,0l0,11.09l0,0l1.16,1.14l0.95,1l72.59,0l1,-1c0.33,-0.33 0.66,-0.66 1.1,-1.08l0,-0.07z"/>
   </g>
   <g id="svg_48" opacity="0.3">
    <path id="svg_49" d="m330.17,282.43l0,0l0,-11.1l0,0l-1.05,-1l-1.07,-1.06l-72.57,0l-1,0.95l-1.16,1.15l0,0l0,11.09l0,0l1.16,1.15l1,0.95l72.58,0l1,-1l1.1,-1.09l0.01,-0.04z"/>
   </g>
   <g id="svg_50" opacity="0.2">
    <path id="svg_51" d="m318.21,267.17l0,0l0,-11.1l0,0l-1,-1l-1.1,-1.07l-72.59,0l-0.95,1l-1.16,1.15l0,0l0,11.09l0,0l1.16,1.15l0.95,0.95l72.59,0l1,-1l1.09,-1.09l0.01,-0.08z"/>
   </g>
   <g id="svg_52" opacity="0.3">
    <path id="svg_53" d="m325,251.91l0,0l0,-11.12l0,0l-1.06,-1l-1.06,-1.05l-72.53,0l-1,0.94l-1.16,1.15l0,0l0,0l0,11.07l0,0l1.16,1.14l1,1l72.59,0l1,-1c0.33,-0.33 0.66,-0.66 1.1,-1.08l-0.04,-0.05z"/>
   </g>
   <path id="svg_54" fill="#407BFF" d="m267.56,210.28l0,11.09l-2.11,2.11l-72.59,0l-2.11,-2.11l0,-11.09l2.11,-2.11l72.59,0c0.83,0.83 1.3,1.28 2.11,2.11z"/>
   <g id="svg_55" opacity="0.3">
    <path id="svg_56" fill="#fff" d="m267.56,210.28l0,11.09l-2.11,2.11l-72.59,0l-2.11,-2.11l0,-11.09l2.11,-2.11l72.59,0c0.83,0.83 1.3,1.28 2.11,2.11z"/>
   </g>
   <g id="svg_57" opacity="0.3">
    <rect id="svg_58" fill="#fff" height="5.55" width="76.81" y="214.27" x="190.75"/>
   </g>
   <g id="svg_59" opacity="0.1">
    <path id="svg_60" d="m192.87,223.48l72.57,0l2.13,-2.1l-76.82,0l2.12,2.1z"/>
   </g>
   <g id="svg_61" opacity="0.3">
    <path id="svg_62" fill="#fff" d="m265.44,208.17l-72.57,0l-2.12,2.1l76.82,0l-2.13,-2.1z"/>
   </g>
   <g id="svg_63" opacity="0.1">
    <rect id="svg_64" fill="#fff" height="15.31" width="14.73" y="208.17" x="225.09"/>
   </g>
   <g id="svg_65" opacity="0.1">
    <rect id="svg_66" fill="#fff" height="15.31" width="7.36" y="208.17" x="246.31"/>
   </g>
   <path id="svg_67" fill="#407BFF" d="m280.8,225.54l0,11.09l-2.11,2.11l-72.59,0l-2.1,-2.11l0,-11.09c0.82,-0.83 1.28,-1.28 2.11,-2.11l72.59,0c0.82,0.83 1.3,1.28 2.1,2.11z"/>
   <g id="svg_68" opacity="0.3">
    <path id="svg_69" fill="#fff" d="m280.8,225.54l0,11.09l-2.11,2.11l-72.59,0l-2.1,-2.11l0,-11.09c0.82,-0.83 1.28,-1.28 2.11,-2.11l72.59,0c0.82,0.83 1.3,1.28 2.1,2.11z"/>
   </g>
   <g id="svg_70" opacity="0.3">
    <rect id="svg_71" fill="#fff" height="5.55" width="76.81" y="229.53" x="203.99"/>
   </g>
   <g id="svg_72" opacity="0.1">
    <path id="svg_73" d="m206.11,238.74l72.57,0l2.12,-2.1l-76.8,0l2.11,2.1z"/>
   </g>
   <g id="svg_74" opacity="0.3">
    <path id="svg_75" fill="#fff" d="m278.68,223.43l-72.57,0l-2.13,2.1l76.82,0l-2.12,-2.1z"/>
   </g>
   <g id="svg_76" opacity="0.1">
    <rect id="svg_77" fill="#fff" height="15.31" width="14.73" y="223.43" x="238.33"/>
   </g>
   <g id="svg_78" opacity="0.1">
    <rect id="svg_79" fill="#fff" height="15.31" width="7.36" y="223.43" x="259.54"/>
   </g>
   <path id="svg_80" fill="#407BFF" d="m275.68,240.8l0,11.1l-2.11,2.1l-72.57,0l-2.11,-2.11l0,-11.09l2.11,-2.11l72.59,0l2.09,2.11z"/>
   <g id="svg_81" opacity="0.3">
    <path id="svg_82" fill="#fff" d="m275.68,240.8l0,11.1l-2.11,2.1l-72.57,0l-2.11,-2.11l0,-11.09l2.11,-2.11l72.59,0l2.09,2.11z"/>
   </g>
   <g id="svg_83" opacity="0.3">
    <rect id="svg_84" fill="#fff" height="5.55" width="76.81" y="244.79" x="198.87"/>
   </g>
   <g id="svg_85" opacity="0.1">
    <path id="svg_86" d="m201,254l72.57,0l2.12,-2.1l-76.82,0l2.13,2.1z"/>
   </g>
   <g id="svg_87" opacity="0.3">
    <path id="svg_88" fill="#fff" d="m273.56,238.69l-72.56,0l-2.12,2.1l76.81,0l-2.13,-2.1z"/>
   </g>
   <g id="svg_89" opacity="0.1">
    <rect id="svg_90" fill="#fff" height="15.31" width="14.73" y="238.69" x="233.21"/>
   </g>
   <g id="svg_91" opacity="0.1">
    <rect id="svg_92" fill="#fff" height="15.31" width="7.36" y="238.69" x="254.42"/>
   </g>
   <path id="svg_93" fill="#407BFF" d="m268.85,256.07l0,11.09l-2.11,2.11l-72.59,0l-2.15,-2.11l0,-11.09l2.11,-2.11l72.59,0l2.15,2.11z"/>
   <g id="svg_94" opacity="0.3">
    <path id="svg_95" fill="#fff" d="m268.85,256.07l0,11.09l-2.11,2.11l-72.59,0l-2.15,-2.11l0,-11.09l2.11,-2.11l72.59,0l2.15,2.11z"/>
   </g>
   <g id="svg_96" opacity="0.3">
    <rect id="svg_97" fill="#fff" height="5.55" width="76.81" y="260.06" x="192.04"/>
   </g>
   <g id="svg_98" opacity="0.1">
    <path id="svg_99" d="m194.16,269.27l72.57,0l2.12,-2.1l-76.85,0l2.16,2.1z"/>
   </g>
   <g id="svg_100" opacity="0.3">
    <path id="svg_101" fill="#fff" d="m266.73,254l-72.57,0l-2.16,2.05l76.82,0l-2.09,-2.05z"/>
   </g>
   <g id="svg_102" opacity="0.1">
    <rect id="svg_103" fill="#fff" height="15.31" width="14.73" y="253.96" x="226.38"/>
   </g>
   <g id="svg_104" opacity="0.1">
    <rect id="svg_105" fill="#fff" height="15.31" width="7.36" y="253.96" x="247.59"/>
   </g>
   <path id="svg_106" fill="#407BFF" d="m280.8,271.33l0,11.09l-2.11,2.11l-72.59,0l-2.1,-2.11l0,-11.09l2.11,-2.11l72.59,0l2.1,2.11z"/>
   <g id="svg_107" opacity="0.3">
    <path id="svg_108" fill="#fff" d="m280.8,271.33l0,11.09l-2.11,2.11l-72.59,0l-2.1,-2.11l0,-11.09l2.11,-2.11l72.59,0l2.1,2.11z"/>
   </g>
   <g id="svg_109" opacity="0.3">
    <rect id="svg_110" fill="#fff" height="5.55" width="76.81" y="275.32" x="203.99"/>
   </g>
   <g id="svg_111" opacity="0.1">
    <path id="svg_112" d="m206.11,284.53l72.57,0l2.12,-2.1l-76.8,0l2.11,2.1z"/>
   </g>
   <g id="svg_113" opacity="0.3">
    <path id="svg_114" fill="#fff" d="m278.68,269.22l-72.57,0l-2.13,2.1l76.82,0l-2.12,-2.1z"/>
   </g>
   <g id="svg_115" opacity="0.1">
    <rect id="svg_116" fill="#fff" height="15.31" width="14.73" y="269.22" x="238.33"/>
   </g>
   <g id="svg_117" opacity="0.1">
    <rect id="svg_118" fill="#fff" height="15.31" width="7.36" y="269.22" x="259.54"/>
   </g>
   <path id="svg_119" fill="#407BFF" d="m265.86,286.59l0,11.09l-2.12,2.12l-72.58,0l-2.11,-2.12l0,-11.09c0.81,-0.83 1.28,-1.28 2.11,-2.11l72.58,0c0.83,0.83 1.26,1.28 2.12,2.11z"/>
   <g id="svg_120" opacity="0.3">
    <path id="svg_121" fill="#fff" d="m265.86,286.59l0,11.09l-2.12,2.12l-72.58,0l-2.11,-2.12l0,-11.09c0.81,-0.83 1.28,-1.28 2.11,-2.11l72.58,0c0.83,0.83 1.26,1.28 2.12,2.11z"/>
   </g>
   <g id="svg_122" opacity="0.3">
    <rect id="svg_123" fill="#fff" height="5.55" width="76.81" y="290.58" x="189.05"/>
   </g>
   <g id="svg_124" opacity="0.1">
    <path id="svg_125" d="m191.16,299.79l72.58,0l2.12,-2.1l-76.86,0l2.16,2.1z"/>
   </g>
   <g id="svg_126" opacity="0.3">
    <path id="svg_127" fill="#fff" d="m263.74,284.48l-72.58,0l-2.12,2.1l76.82,0l-2.12,-2.1z"/>
   </g>
   <g id="svg_128" opacity="0.1">
    <rect id="svg_129" fill="#fff" height="15.31" width="14.73" y="284.48" x="223.38"/>
   </g>
   <g id="svg_130" opacity="0.1">
    <rect id="svg_131" fill="#fff" height="15.31" width="7.36" y="284.48" x="244.6"/>
   </g>
   <path id="svg_132" fill="#407BFF" d="m271.83,301.86l0,11.14l-2.11,2.11l-72.59,0l-2.13,-2.11l0,-11.14c0.82,-0.83 1.28,-1.28 2.11,-2.11l72.59,0c0.85,0.83 1.3,1.25 2.13,2.11z"/>
   <g id="svg_133" opacity="0.3">
    <path id="svg_134" fill="#fff" d="m271.83,301.86l0,11.14l-2.11,2.11l-72.59,0l-2.13,-2.11l0,-11.14c0.82,-0.83 1.28,-1.28 2.11,-2.11l72.59,0c0.85,0.83 1.3,1.25 2.13,2.11z"/>
   </g>
   <g id="svg_135" opacity="0.3">
    <rect id="svg_136" fill="#fff" height="5.55" width="76.81" y="305.85" x="195.02"/>
   </g>
   <g id="svg_137" opacity="0.1">
    <path id="svg_138" d="m197.14,315.05l72.57,0l2.13,-2.09l-76.84,0l2.14,2.09z"/>
   </g>
   <g id="svg_139" opacity="0.3">
    <path id="svg_140" fill="#fff" d="m269.71,299.75l-72.57,0l-2.14,2.09l76.82,0l-2.11,-2.09z"/>
   </g>
   <g id="svg_141" opacity="0.1">
    <rect id="svg_142" fill="#fff" height="15.31" width="14.73" y="299.75" x="229.36"/>
   </g>
   <g id="svg_143" opacity="0.1">
    <rect id="svg_144" fill="#fff" height="15.31" width="7.36" y="299.75" x="250.58"/>
   </g>
   <path id="svg_145" fill="#407BFF" d="m289,317.12l0,11.09l-2.11,2.11l-72.61,0l-2.11,-2.11l0,-11.09l2.11,-2.11l72.59,0l2.13,2.11z"/>
   <g id="svg_146" opacity="0.3">
    <path id="svg_147" fill="#fff" d="m289,317.12l0,11.09l-2.11,2.11l-72.61,0l-2.11,-2.11l0,-11.09l2.11,-2.11l72.59,0l2.13,2.11z"/>
   </g>
   <g id="svg_148" opacity="0.3">
    <rect id="svg_149" fill="#fff" height="5.55" width="76.81" y="321.11" x="212.17"/>
   </g>
   <g id="svg_150" opacity="0.1">
    <path id="svg_151" d="m214.29,330.32l72.57,0l2.13,-2.1l-76.82,0l2.12,2.1z"/>
   </g>
   <g id="svg_152" opacity="0.3">
    <path id="svg_153" fill="#fff" d="m286.86,315l-72.57,0l-2.12,2.1l76.83,0l-2.14,-2.1z"/>
   </g>
   <g id="svg_154" opacity="0.1">
    <rect id="svg_155" fill="#fff" height="15.31" width="14.73" y="315.01" x="246.51"/>
   </g>
   <g id="svg_156" opacity="0.1">
    <rect id="svg_157" fill="#fff" height="15.31" width="7.36" y="315.01" x="267.73"/>
   </g>
   <path id="svg_158" fill="#407BFF" d="m271.83,332.38l0,11.09l-2.11,2.11l-72.59,0l-2.13,-2.11l0,-11.09c0.82,-0.83 1.29,-1.28 2.11,-2.11l72.59,0c0.85,0.83 1.3,1.28 2.13,2.11z"/>
   <g id="svg_159" opacity="0.3">
    <path id="svg_160" fill="#fff" d="m271.83,332.38l0,11.09l-2.11,2.11l-72.59,0l-2.13,-2.11l0,-11.09c0.82,-0.83 1.29,-1.28 2.11,-2.11l72.59,0c0.85,0.83 1.3,1.28 2.13,2.11z"/>
   </g>
   <g id="svg_161" opacity="0.3">
    <rect id="svg_162" fill="#fff" height="5.55" width="76.81" y="336.37" x="195.02"/>
   </g>
   <g id="svg_163" opacity="0.1">
    <path id="svg_164" d="m197.14,345.58l72.57,0l2.13,-2.1l-76.84,0l2.14,2.1z"/>
   </g>
   <g id="svg_165" opacity="0.3">
    <path id="svg_166" fill="#fff" d="m269.71,330.27l-72.57,0l-2.12,2.1l76.82,0l-2.13,-2.1z"/>
   </g>
   <g id="svg_167" opacity="0.1">
    <rect id="svg_168" fill="#fff" height="15.31" width="14.73" y="330.27" x="229.36"/>
   </g>
   <g id="svg_169" opacity="0.1">
    <rect id="svg_170" fill="#fff" height="15.31" width="7.36" y="330.27" x="250.58"/>
   </g>
   <path id="svg_171" fill="#407BFF" d="m178.31,286.59l0,11.09l-2.11,2.12l-72.59,0l-2.11,-2.12l0,-11.09l2.11,-2.11l72.59,0l2.11,2.11z"/>
   <g id="svg_172" opacity="0.3">
    <path id="svg_173" fill="#fff" d="m178.31,286.59l0,11.09l-2.11,2.12l-72.59,0l-2.11,-2.12l0,-11.09l2.11,-2.11l72.59,0l2.11,2.11z"/>
   </g>
   <g id="svg_174" opacity="0.3">
    <rect id="svg_175" fill="#fff" height="5.55" width="76.81" y="290.58" x="101.5"/>
   </g>
   <g id="svg_176" opacity="0.1">
    <path id="svg_177" d="m103.62,299.79l72.57,0l2.12,-2.1l-76.82,0l2.13,2.1z"/>
   </g>
   <g id="svg_178" opacity="0.3">
    <path id="svg_179" fill="#fff" d="m176.19,284.48l-72.57,0l-2.13,2.1l76.82,0l-2.12,-2.1z"/>
   </g>
   <g id="svg_180" opacity="0.1">
    <rect id="svg_181" fill="#fff" height="15.31" width="14.73" y="284.48" x="135.84"/>
   </g>
   <g id="svg_182" opacity="0.1">
    <rect id="svg_183" fill="#fff" height="15.31" width="7.36" y="284.48" x="157.05"/>
   </g>
   <path id="svg_184" fill="#407BFF" d="m184.28,301.86l0,11.14l-2.11,2.11l-72.58,0l-2.11,-2.11l0,-11.14c0.81,-0.83 1.28,-1.28 2.11,-2.11l72.58,0c0.83,0.83 1.3,1.25 2.11,2.11z"/>
   <g id="svg_185" opacity="0.3">
    <path id="svg_186" fill="#fff" d="m184.28,301.86l0,11.14l-2.11,2.11l-72.58,0l-2.11,-2.11l0,-11.14c0.81,-0.83 1.28,-1.28 2.11,-2.11l72.58,0c0.83,0.83 1.3,1.25 2.11,2.11z"/>
   </g>
   <g id="svg_187" opacity="0.3">
    <rect id="svg_188" fill="#fff" height="5.55" width="76.81" y="305.85" x="107.48"/>
   </g>
   <g id="svg_189" opacity="0.1">
    <path id="svg_190" d="m109.59,315.05l72.58,0l2.12,-2.09l-76.82,0l2.12,2.09z"/>
   </g>
   <g id="svg_191" opacity="0.3">
    <path id="svg_192" fill="#fff" d="m182.17,299.75l-72.58,0l-2.12,2.09l76.82,0c-0.83,-0.84 -1.29,-1.27 -2.12,-2.09z"/>
   </g>
   <g id="svg_193" opacity="0.1">
    <rect id="svg_194" fill="#fff" height="15.31" width="14.73" y="299.75" x="141.81"/>
   </g>
   <g id="svg_195" opacity="0.1">
    <rect id="svg_196" fill="#fff" height="15.31" width="7.36" y="299.75" x="163.03"/>
   </g>
   <path id="svg_197" fill="#407BFF" d="m190.18,317.12l0,11.09l-2.11,2.11l-72.59,0l-2.11,-2.11l0,-11.09l2.11,-2.11l72.59,0l2.11,2.11z"/>
   <g id="svg_198" opacity="0.3">
    <path id="svg_199" fill="#fff" d="m190.18,317.12l0,11.09l-2.11,2.11l-72.59,0l-2.11,-2.11l0,-11.09l2.11,-2.11l72.59,0l2.11,2.11z"/>
   </g>
   <g id="svg_200" opacity="0.3">
    <rect id="svg_201" fill="#fff" height="5.55" width="76.81" y="321.11" x="113.37"/>
   </g>
   <g id="svg_202" opacity="0.1">
    <path id="svg_203" d="m115.49,330.32l72.57,0l2.12,-2.1l-76.82,0l2.13,2.1z"/>
   </g>
   <g id="svg_204" opacity="0.3">
    <path id="svg_205" fill="#fff" d="m188.06,315l-72.57,0l-2.13,2.1l76.82,0l-2.12,-2.1z"/>
   </g>
   <g id="svg_206" opacity="0.1">
    <rect id="svg_207" fill="#fff" height="15.31" width="14.73" y="315.01" x="147.71"/>
   </g>
   <g id="svg_208" opacity="0.1">
    <rect id="svg_209" fill="#fff" height="15.31" width="7.36" y="315.01" x="168.92"/>
   </g>
   <path id="svg_210" fill="#407BFF" d="m173,332.38l0,11.09l-2.11,2.11l-72.56,0l-2.11,-2.11l0,-11.09l2.11,-2.11l72.59,0l2.08,2.11z"/>
   <g id="svg_211" opacity="0.3">
    <path id="svg_212" fill="#fff" d="m173,332.38l0,11.09l-2.11,2.11l-72.56,0l-2.11,-2.11l0,-11.09l2.11,-2.11l72.59,0l2.08,2.11z"/>
   </g>
   <g id="svg_213" opacity="0.3">
    <rect id="svg_214" fill="#fff" height="5.55" width="76.81" y="336.37" x="96.22"/>
   </g>
   <g id="svg_215" opacity="0.1">
    <path id="svg_216" d="m98.34,345.58l72.57,0l2.12,-2.1l-76.82,0l2.13,2.1z"/>
   </g>
   <g id="svg_217" opacity="0.3">
    <path id="svg_218" fill="#fff" d="m170.91,330.27l-72.57,0l-2.13,2.1l76.79,0l-2.09,-2.1z"/>
   </g>
   <g id="svg_219" opacity="0.1">
    <rect id="svg_220" fill="#fff" height="15.31" width="14.73" y="330.27" x="130.56"/>
   </g>
   <g id="svg_221" opacity="0.1">
    <rect id="svg_222" fill="#fff" height="15.31" width="7.36" y="330.27" x="151.77"/>
   </g>
   <path id="svg_223" fill="#407BFF" d="m369.42,256.07l0,11.09l-2.11,2.11l-72.59,0l-2.11,-2.11l0,-11.09l2.11,-2.11l72.59,0l2.11,2.11z"/>
   <g id="svg_224" opacity="0.3">
    <path id="svg_225" fill="#fff" d="m369.42,256.07l0,11.09l-2.11,2.11l-72.59,0l-2.11,-2.11l0,-11.09l2.11,-2.11l72.59,0l2.11,2.11z"/>
   </g>
   <g id="svg_226" opacity="0.3">
    <rect id="svg_227" fill="#fff" height="5.55" width="76.81" y="260.06" x="292.61"/>
   </g>
   <g id="svg_228" opacity="0.1">
    <path id="svg_229" d="m294.73,269.27l72.57,0l2.12,-2.1l-76.81,0l2.12,2.1z"/>
   </g>
   <g id="svg_230" opacity="0.3">
    <path id="svg_231" fill="#fff" d="m367.3,254l-72.57,0l-2.12,2.09l76.81,0l-2.12,-2.09z"/>
   </g>
   <g id="svg_232" opacity="0.1">
    <rect id="svg_233" fill="#fff" height="15.31" width="14.73" y="253.96" x="326.95"/>
   </g>
   <g id="svg_234" opacity="0.1">
    <rect id="svg_235" fill="#fff" height="15.31" width="7.36" y="253.96" x="348.16"/>
   </g>
   <path id="svg_236" fill="#407BFF" d="m381.37,271.33l0,11.09l-2.11,2.11l-72.59,0l-2.11,-2.11l0,-11.09l2.11,-2.11l72.59,0l2.11,2.11z"/>
   <g id="svg_237" opacity="0.3">
    <path id="svg_238" fill="#fff" d="m381.37,271.33l0,11.09l-2.11,2.11l-72.59,0l-2.11,-2.11l0,-11.09l2.11,-2.11l72.59,0l2.11,2.11z"/>
   </g>
   <g id="svg_239" opacity="0.3">
    <rect id="svg_240" fill="#fff" height="5.55" width="76.81" y="275.32" x="304.56"/>
   </g>
   <g id="svg_241" opacity="0.1">
    <path id="svg_242" d="m306.68,284.53l72.57,0l2.12,-2.1l-76.81,0l2.12,2.1z"/>
   </g>
   <g id="svg_243" opacity="0.3">
    <path id="svg_244" fill="#fff" d="m379.25,269.22l-72.57,0l-2.12,2.1l76.81,0l-2.12,-2.1z"/>
   </g>
   <g id="svg_245" opacity="0.1">
    <rect id="svg_246" fill="#fff" height="15.31" width="14.73" y="269.22" x="338.9"/>
   </g>
   <g id="svg_247" opacity="0.1">
    <rect id="svg_248" fill="#fff" height="15.31" width="7.36" y="269.22" x="360.11"/>
   </g>
   <path id="svg_249" fill="#407BFF" d="m366.43,286.59l0,11.09l-2.12,2.12l-72.58,0l-2.11,-2.12l0,-11.09c0.81,-0.83 1.28,-1.28 2.11,-2.11l72.58,0c0.83,0.83 1.3,1.28 2.12,2.11z"/>
   <g id="svg_250" opacity="0.3">
    <path id="svg_251" fill="#fff" d="m366.43,286.59l0,11.09l-2.12,2.12l-72.58,0l-2.11,-2.12l0,-11.09c0.81,-0.83 1.28,-1.28 2.11,-2.11l72.58,0c0.83,0.83 1.3,1.28 2.12,2.11z"/>
   </g>
   <g id="svg_252" opacity="0.3">
    <rect id="svg_253" fill="#fff" height="5.55" width="76.81" y="290.58" x="289.62"/>
   </g>
   <g id="svg_254" opacity="0.1">
    <path id="svg_255" d="m291.73,299.79l72.58,0l2.12,-2.1l-76.82,0l2.12,2.1z"/>
   </g>
   <g id="svg_256" opacity="0.3">
    <path id="svg_257" fill="#fff" d="m364.31,284.48l-72.58,0l-2.12,2.1l76.82,0l-2.12,-2.1z"/>
   </g>
   <g id="svg_258" opacity="0.1">
    <rect id="svg_259" fill="#fff" height="15.31" width="14.73" y="284.48" x="323.95"/>
   </g>
   <g id="svg_260" opacity="0.1">
    <rect id="svg_261" fill="#fff" height="15.31" width="7.36" y="284.48" x="345.17"/>
   </g>
   <path id="svg_262" fill="#407BFF" d="m372.4,301.86l0,11.14l-2.11,2.11l-72.59,0l-2.11,-2.11l0,-11.14l2.11,-2.11l72.59,0c0.83,0.83 1.3,1.25 2.11,2.11z"/>
   <g id="svg_263" opacity="0.3">
    <path id="svg_264" fill="#fff" d="m372.4,301.86l0,11.14l-2.11,2.11l-72.59,0l-2.11,-2.11l0,-11.14l2.11,-2.11l72.59,0c0.83,0.83 1.3,1.25 2.11,2.11z"/>
   </g>
   <g id="svg_265" opacity="0.3">
    <rect id="svg_266" fill="#fff" height="5.55" width="76.81" y="305.85" x="295.59"/>
   </g>
   <g id="svg_267" opacity="0.1">
    <path id="svg_268" d="m297.71,315.05l72.57,0l2.13,-2.09l-76.82,0l2.12,2.09z"/>
   </g>
   <g id="svg_269" opacity="0.3">
    <path id="svg_270" fill="#fff" d="m370.28,299.75l-72.57,0l-2.12,2.09l76.82,0l-2.13,-2.09z"/>
   </g>
   <g id="svg_271" opacity="0.1">
    <rect id="svg_272" fill="#fff" height="15.31" width="14.73" y="299.75" x="329.93"/>
   </g>
   <g id="svg_273" opacity="0.1">
    <rect id="svg_274" fill="#fff" height="15.31" width="7.36" y="299.75" x="351.15"/>
   </g>
   <path id="svg_275" fill="#407BFF" d="m378.89,317.12l0,11.09l-2.11,2.11l-72.58,0l-2.12,-2.11l0,-11.09c0.82,-0.83 1.29,-1.28 2.12,-2.11l72.58,0c0.83,0.83 1.3,1.28 2.11,2.11z"/>
   <g id="svg_276" opacity="0.3">
    <path id="svg_277" fill="#fff" d="m378.89,317.12l0,11.09l-2.11,2.11l-72.58,0l-2.12,-2.11l0,-11.09c0.82,-0.83 1.29,-1.28 2.12,-2.11l72.58,0c0.83,0.83 1.3,1.28 2.11,2.11z"/>
   </g>
   <g id="svg_278" opacity="0.3">
    <rect id="svg_279" fill="#fff" height="5.55" width="76.81" y="321.11" x="302.08"/>
   </g>
   <g id="svg_280" opacity="0.1">
    <path id="svg_281" d="m304.2,330.32l72.57,0l2.13,-2.1l-76.82,0l2.12,2.1z"/>
   </g>
   <g id="svg_282" opacity="0.3">
    <path id="svg_283" fill="#fff" d="m376.77,315l-72.57,0l-2.12,2.1l76.82,0l-2.13,-2.1z"/>
   </g>
   <g id="svg_284" opacity="0.1">
    <rect id="svg_285" fill="#fff" height="15.31" width="14.73" y="315.01" x="336.42"/>
   </g>
   <g id="svg_286" opacity="0.1">
    <rect id="svg_287" fill="#fff" height="15.31" width="7.36" y="315.01" x="357.64"/>
   </g>
   <path id="svg_288" fill="#407BFF" d="m372.4,332.38l0,11.09l-2.11,2.11l-72.58,0l-2.12,-2.11l0,-11.09c0.82,-0.83 1.29,-1.28 2.12,-2.11l72.58,0c0.83,0.83 1.3,1.28 2.11,2.11z"/>
   <g id="svg_289" opacity="0.3">
    <path id="svg_290" fill="#fff" d="m372.4,332.38l0,11.09l-2.11,2.11l-72.58,0l-2.12,-2.11l0,-11.09c0.82,-0.83 1.29,-1.28 2.12,-2.11l72.58,0c0.83,0.83 1.3,1.28 2.11,2.11z"/>
   </g>
   <g id="svg_291" opacity="0.3">
    <rect id="svg_292" fill="#fff" height="5.55" width="76.81" y="336.37" x="295.59"/>
   </g>
   <g id="svg_293" opacity="0.1">
    <path id="svg_294" d="m297.71,345.58l72.57,0l2.13,-2.1l-76.82,0l2.12,2.1z"/>
   </g>
   <g id="svg_295" opacity="0.3">
    <path id="svg_296" fill="#fff" d="m370.28,330.27l-72.57,0l-2.12,2.1l76.82,0l-2.13,-2.1z"/>
   </g>
   <g id="svg_297" opacity="0.1">
    <rect id="svg_298" fill="#fff" height="15.31" width="14.73" y="330.27" x="329.93"/>
   </g>
   <g id="svg_299" opacity="0.1">
    <rect id="svg_300" fill="#fff" height="15.31" width="7.36" y="330.27" x="351.15"/>
   </g>
  </g>
  <g id="freepik--plant-3--inject-10">
   <path id="svg_301" fill="#407BFF" d="m319.45,212.74s-2.53,4.53 1.52,10.7c2.39,3.64 5.66,4.68 7.65,3.38s2.37,-4.71 0,-8.36c-3.99,-6.2 -9.17,-5.72 -9.17,-5.72z"/>
   <path id="svg_302" fill="#fff" opacity="0.2" d="m319.45,212.74s-2.53,4.53 1.52,10.7c2.39,3.64 5.66,4.68 7.65,3.38s2.37,-4.71 0,-8.36c-3.99,-6.2 -9.17,-5.72 -9.17,-5.72z"/>
   <path id="svg_303" fill="#407BFF" d="m355.33,191.19s-8.77,-1.94 -17,7.81c-4.84,5.75 -4.94,11.68 -1.81,14.34s9,1.59 13.85,-4.12c8.31,-9.7 4.96,-18.03 4.96,-18.03z"/>
   <path id="svg_304" fill="#407BFF" d="m343.82,152.48s-1.95,0.54 -2.56,3.36c-0.36,1.66 0.25,2.86 1.15,3s2,-0.63 2.34,-2.29a4.17,4.17 0 0 0 -0.93,-4.07z"/>
   <path id="svg_305" fill="#407BFF" d="m328.3,239.27a41.92,41.92 0 0 1 -1.56,-12.27a48.45,48.45 0 0 1 1.75,-11.89c0.53,-1.9 1.15,-3.77 1.86,-5.59c0.35,-0.91 0.72,-1.8 1.12,-2.69c0.19,-0.45 0.4,-0.88 0.6,-1.32l0.3,-0.64l0.29,-0.62c1.57,-3.29 3.06,-6.6 4.4,-10a103.84,103.84 0 0 0 3.53,-10.23a62.76,62.76 0 0 0 2.08,-10.59a38.07,38.07 0 0 0 -0.34,-10.76a26.92,26.92 0 0 0 -4,-10.09a27.67,27.67 0 0 1 5.24,9.79a40.15,40.15 0 0 1 1.59,11.17a65.43,65.43 0 0 1 -0.93,11.27a105.54,105.54 0 0 1 -2.47,11c-1,3.62 -2.15,7.19 -3.37,10.72l-0.23,0.66l-0.11,0.33l-0.1,0.31c-0.14,0.41 -0.29,0.83 -0.41,1.25c-0.26,0.83 -0.51,1.67 -0.73,2.51c-0.44,1.67 -0.8,3.36 -1.07,5.05a40.4,40.4 0 0 0 -0.36,10a32.78,32.78 0 0 0 2.29,9.39l-9.37,3.24z"/>
   <path id="svg_306" opacity="0.2" d="m328.3,239.27a41.92,41.92 0 0 1 -1.56,-12.27a48.45,48.45 0 0 1 1.75,-11.89c0.53,-1.9 1.15,-3.77 1.86,-5.59c0.35,-0.91 0.72,-1.8 1.12,-2.69c0.19,-0.45 0.4,-0.88 0.6,-1.32l0.3,-0.64l0.29,-0.62c1.57,-3.29 3.06,-6.6 4.4,-10a103.84,103.84 0 0 0 3.53,-10.23a62.76,62.76 0 0 0 2.08,-10.59a38.07,38.07 0 0 0 -0.34,-10.76a26.92,26.92 0 0 0 -4,-10.09a27.67,27.67 0 0 1 5.24,9.79a40.15,40.15 0 0 1 1.59,11.17a65.43,65.43 0 0 1 -0.93,11.27a105.54,105.54 0 0 1 -2.47,11c-1,3.62 -2.15,7.19 -3.37,10.72l-0.23,0.66l-0.11,0.33l-0.1,0.31c-0.14,0.41 -0.29,0.83 -0.41,1.25c-0.26,0.83 -0.51,1.67 -0.73,2.51c-0.44,1.67 -0.8,3.36 -1.07,5.05a40.4,40.4 0 0 0 -0.36,10a32.78,32.78 0 0 0 2.29,9.39l-9.37,3.24z"/>
   <path id="svg_307" fill="#407BFF" d="m346.81,229.67l-0.28,3.07l-1.78,20a1.38,1.38 0 0 1 -1.36,1.24l-22.67,0a1.36,1.36 0 0 1 -1.36,-1.24l-1.79,-20l-0.27,-3.07l29.51,0z"/>
   <rect id="svg_308" fill="#407BFF" transform="rotate(-84.88999938964844 -5.380001068115226,613.7999877929688) " height="0.27" width="7.19" y="931.029988" x="390.319999"/>
   <rect id="svg_309" fill="#407BFF" transform="rotate(-84.88999938964844 1.6599998474120687,608.4400024414062) " height="0.27" width="1.7" y="919.140002" x="400.7"/>
   <path id="svg_310" fill="#407BFF" d="m332.92,171.49s-3.54,4.72 0.07,12.28c2.13,4.46 5.65,6.12 8.09,5s3.39,-4.93 1.29,-9.41c-3.56,-7.61 -9.45,-7.87 -9.45,-7.87z"/>
   <path id="svg_311" opacity="0.2" d="m332.92,171.49s-3.54,4.72 0.07,12.28c2.13,4.46 5.65,6.12 8.09,5s3.39,-4.93 1.29,-9.41c-3.56,-7.61 -9.45,-7.87 -9.45,-7.87z"/>
   <polygon id="svg_312" opacity="0.2" points="346.80999755859375,229.67001342773438 346.5299987792969,232.739990234375 317.57000732421875,232.739990234375 317.29998779296875,229.67001342773438 346.80999755859375,229.67001342773438 "/>
   <rect id="svg_313" fill="#407BFF" rx="0.64" height="5.32" width="34.3" y="225.88" x="314.9"/>
   <circle id="svg_314" fill="#407BFF" transform="rotate(-36.959999084472656 -119.0199966430664,221.73999023437497) " r="10.75" cy="467.86999" cx="288.880003"/>
   <path id="svg_315" opacity="0.1" d="m363.52,175.8a8.8,8.8 0 1 0 -15.75,2.87a9,9 0 1 1 15.75,-2.87z"/>
   <path id="svg_316" fill="#fafafa" d="m358.21,174.69l-1.07,2.31a0.73,0.73 0 0 1 -0.42,0.37a0.68,0.68 0 0 1 -0.56,0l-2,-0.94l-0.76,1.6a0.75,0.75 0 0 1 -1,0.35a0.75,0.75 0 0 1 -0.38,-0.42a0.72,0.72 0 0 1 0,-0.56l0.76,-1.62l-2,-0.93a0.71,0.71 0 0 1 -0.37,-0.41a0.72,0.72 0 0 1 0,-0.56a0.71,0.71 0 0 1 0.41,-0.37a0.68,0.68 0 0 1 0.56,0l4.64,2.19l0.45,-0.95l-4.63,-2.18a0.73,0.73 0 0 1 -0.34,-1l1.06,-2.26a0.71,0.71 0 0 1 0.42,-0.38a0.66,0.66 0 0 1 0.55,0l2,0.93l0.76,-1.6a0.68,0.68 0 0 1 0.4,-0.38a0.73,0.73 0 0 1 0.59,0a0.67,0.67 0 0 1 0.36,0.41a0.66,0.66 0 0 1 0,0.55l-0.75,1.61l2,1a0.76,0.76 0 0 1 0.37,1a0.74,0.74 0 0 1 -0.43,0.38a0.72,0.72 0 0 1 -0.56,0l-4.64,-2.2l-0.45,0.94l4.63,2.19a0.7,0.7 0 0 1 0.38,0.41a0.72,0.72 0 0 1 0.02,0.52z"/>
   <circle id="svg_317" fill="#407BFF" transform="rotate(-36.959999084472656 -142.4800109863281,210.67999267578122) " r="7.75" cy="486.369993" cx="237.149997"/>
   <path id="svg_318" opacity="0.1" d="m332.85,204.62a6.35,6.35 0 1 0 -11.36,2.07a6.51,6.51 0 1 1 11.36,-2.07z"/>
   <path id="svg_319" fill="#fafafa" d="m329,203.82l-0.77,1.64a0.49,0.49 0 0 1 -0.3,0.26a0.53,0.53 0 0 1 -0.41,0l-1.42,-0.72l-0.55,1.16a0.5,0.5 0 0 1 -0.3,0.27a0.55,0.55 0 0 1 -0.4,0a0.63,0.63 0 0 1 -0.28,-0.3a0.53,0.53 0 0 1 0,-0.41l0.55,-1.16l-1.43,-0.68a0.51,0.51 0 0 1 -0.27,-0.29a0.51,0.51 0 0 1 0,-0.4a0.49,0.49 0 0 1 0.3,-0.28a0.51,0.51 0 0 1 0.4,0l3.35,1.58l0.32,-0.69l-3.34,-1.57a0.5,0.5 0 0 1 -0.27,-0.3a0.51,0.51 0 0 1 0,-0.4l0.77,-1.63a0.53,0.53 0 0 1 0.3,-0.27a0.51,0.51 0 0 1 0.4,0l1.42,0.67l0.55,-1.16a0.48,0.48 0 0 1 0.29,-0.27a0.52,0.52 0 0 1 0.42,0a0.52,0.52 0 0 1 0.24,0.69l-0.54,1.16l1.45,0.69a0.52,0.52 0 0 1 0.28,0.3a0.52,0.52 0 0 1 -0.32,0.67a0.49,0.49 0 0 1 -0.41,0l-3.35,-1.58l-0.32,0.68l3.34,1.58a0.5,0.5 0 0 1 0.27,0.3a0.47,0.47 0 0 1 0.03,0.46z"/>
  </g>
  <g id="freepik--plant-2--inject-10">
   <path id="svg_320" fill="#407BFF" d="m215,153.24s-4.46,7.26 1.76,17.66c3.66,6.13 9,8 12.31,6.06s4.2,-7.55 0.58,-13.71c-6.18,-10.44 -14.65,-10.01 -14.65,-10.01z"/>
   <path id="svg_321" fill="#fff" opacity="0.2" d="m215,153.24s-4.46,7.26 1.76,17.66c3.66,6.13 9,8 12.31,6.06s4.2,-7.55 0.58,-13.71c-6.18,-10.44 -14.65,-10.01 -14.65,-10.01z"/>
   <path id="svg_322" fill="#407BFF" d="m258.35,134s-10.74,-2.38 -20.8,9.57c-5.94,7.05 -6.06,14.32 -2.22,17.58s11,2 17,-5.06c10.13,-11.89 6.02,-22.09 6.02,-22.09z"/>
   <path id="svg_323" fill="#407BFF" d="m245.62,81.26s-3.39,0.94 -4.45,5.83c-0.62,2.88 0.44,4.95 2,5.3s3.4,-1.1 4,-4c1.14,-4.86 -1.55,-7.13 -1.55,-7.13z"/>
   <path id="svg_324" fill="#407BFF" d="m225.82,190.37a51.56,51.56 0 0 1 -1.92,-15a59.38,59.38 0 0 1 2.15,-14.58c0.64,-2.33 1.41,-4.62 2.27,-6.85q0.65,-1.67 1.38,-3.3c0.23,-0.55 0.49,-1.08 0.73,-1.62l0.37,-0.78l0.36,-0.76c1.92,-4 3.74,-8.09 5.39,-12.2a123.13,123.13 0 0 0 4.32,-12.55a75.52,75.52 0 0 0 2.55,-13a46.67,46.67 0 0 0 -0.4,-13.19a32.93,32.93 0 0 0 -5,-12.36a33.79,33.79 0 0 1 6.42,12a49,49 0 0 1 1.95,13.68a80.85,80.85 0 0 1 -1.14,13.81a129.1,129.1 0 0 1 -3,13.5c-1.22,4.43 -2.63,8.81 -4.12,13.13l-0.28,0.81l-0.14,0.4l-0.13,0.39c-0.17,0.51 -0.35,1 -0.5,1.53c-0.32,1 -0.62,2 -0.89,3.07a59,59 0 0 0 -1.31,6.2a49.43,49.43 0 0 0 -0.44,12.3a39.93,39.93 0 0 0 2.8,11.51l-11.42,3.86z"/>
   <path id="svg_325" opacity="0.2" d="m225.82,190.37a51.56,51.56 0 0 1 -1.92,-15a59.38,59.38 0 0 1 2.15,-14.58c0.64,-2.33 1.41,-4.62 2.27,-6.85q0.65,-1.67 1.38,-3.3c0.23,-0.55 0.49,-1.08 0.73,-1.62l0.37,-0.78l0.36,-0.76c1.92,-4 3.74,-8.09 5.39,-12.2a123.13,123.13 0 0 0 4.32,-12.55a75.52,75.52 0 0 0 2.55,-13a46.67,46.67 0 0 0 -0.4,-13.19a32.93,32.93 0 0 0 -5,-12.36a33.79,33.79 0 0 1 6.42,12a49,49 0 0 1 1.95,13.68a80.85,80.85 0 0 1 -1.14,13.81a129.1,129.1 0 0 1 -3,13.5c-1.22,4.43 -2.63,8.81 -4.12,13.13l-0.28,0.81l-0.14,0.4l-0.13,0.39c-0.17,0.51 -0.35,1 -0.5,1.53c-0.32,1 -0.62,2 -0.89,3.07a59,59 0 0 0 -1.31,6.2a49.43,49.43 0 0 0 -0.44,12.3a39.93,39.93 0 0 0 2.8,11.51l-11.42,3.86z"/>
   <path id="svg_326" fill="#407BFF" d="m248.5,178.61l-0.34,3.76l-2.16,24.46a1.67,1.67 0 0 1 -1.66,1.52l-27.81,0a1.67,1.67 0 0 1 -1.67,-1.52l-2.19,-24.46l-0.34,-3.76l36.17,0z"/>
   <rect id="svg_327" fill="#407BFF" transform="rotate(-84.88999938964844 -47.470001220703104,472.280029296875) " height="0.33" width="8.82" y="741.730029" x="249"/>
   <rect id="svg_328" fill="#407BFF" transform="rotate(-84.88999938964844 -38.849998474121094,465.71002197265625) " height="0.33" width="2.08" y="727.160022" x="261.7"/>
   <path id="svg_329" fill="#407BFF" d="m234.21,92.39s-3.62,4.81 0.07,12.53c2.17,4.56 5.77,6.26 8.26,5.08s3.46,-5 1.32,-9.61c-3.64,-7.74 -9.65,-8 -9.65,-8z"/>
   <path id="svg_330" opacity="0.2" d="m234.21,92.39s-3.62,4.81 0.07,12.53c2.17,4.56 5.77,6.26 8.26,5.08s3.46,-5 1.32,-9.61c-3.64,-7.74 -9.65,-8 -9.65,-8z"/>
   <polygon id="svg_331" opacity="0.2" points="248.5,178.61000061035156 248.16000366210938,182.3699951171875 212.67001342773438,182.3699951171875 212.32998657226562,178.61000061035156 248.5,178.61000061035156 "/>
   <rect id="svg_332" fill="#407BFF" rx="0.79" height="6.53" width="42.04" y="173.96" x="209.39"/>
   <circle id="svg_333" fill="#407BFF" transform="rotate(-36.959999084472656 -101.91999816894534,151.66000366210938) " r="13.18" cy="337.170004" cx="209.690002"/>
   <path id="svg_334" opacity="0.1" d="m269.18,115.78a10.79,10.79 0 1 0 -19.3,3.52a11.06,11.06 0 1 1 19.3,-3.52z"/>
   <path id="svg_335" fill="#fafafa" d="m262.67,114.42l-1.31,2.79a0.91,0.91 0 0 1 -0.51,0.45a0.9,0.9 0 0 1 -0.7,0l-2.45,-1.16l-0.92,2a0.87,0.87 0 0 1 -0.51,0.45a0.85,0.85 0 0 1 -0.68,0a0.87,0.87 0 0 1 -0.47,-0.51a0.81,0.81 0 0 1 0,-0.68l0.93,-2l-2.43,-1.15a0.89,0.89 0 0 1 0.08,-1.64a0.81,0.81 0 0 1 0.68,0l5.69,2.69l0.55,-1.16l-5.62,-2.73a0.84,0.84 0 0 1 -0.46,-0.5a0.81,0.81 0 0 1 0,-0.68l1.31,-2.78a0.86,0.86 0 0 1 0.51,-0.46a0.89,0.89 0 0 1 0.68,0l2.41,1.14l0.93,-2a0.85,0.85 0 0 1 0.49,-0.46a0.87,0.87 0 0 1 0.72,0.05a0.83,0.83 0 0 1 0.45,0.5a0.89,0.89 0 0 1 0,0.68l-0.93,2l2.47,1.17a0.88,0.88 0 0 1 0.47,0.51a0.85,0.85 0 0 1 0,0.68a0.88,0.88 0 0 1 -0.51,0.47a0.94,0.94 0 0 1 -0.7,0l-5.69,-2.69l-0.54,1.15l5.67,2.68a0.88,0.88 0 0 1 0.47,0.51a0.85,0.85 0 0 1 -0.08,0.68z"/>
   <circle id="svg_336" fill="#407BFF" transform="rotate(-36.959999084472656 -118.98000335693365,135.1399993896484) " r="13.18" cy="337.909999" cx="159.389997"/>
   <path id="svg_337" opacity="0.1" d="m235.94,133a10.79,10.79 0 1 0 -19.3,3.53a11.07,11.07 0 1 1 19.3,-3.53z"/>
   <path id="svg_338" fill="#fafafa" d="m229.43,131.68l-1.32,2.79a0.85,0.85 0 0 1 -0.51,0.45a0.87,0.87 0 0 1 -0.69,0l-2.45,-1.15l-0.93,2a0.88,0.88 0 0 1 -1.18,0.42a0.82,0.82 0 0 1 -0.47,-0.51a0.81,0.81 0 0 1 0,-0.68l0.93,-2l-2.43,-1.15a0.87,0.87 0 0 1 -0.46,-0.5a0.89,0.89 0 0 1 0,-0.68a0.9,0.9 0 0 1 1.19,-0.43l5.69,2.69l0.54,-1.16l-5.61,-2.77a0.87,0.87 0 0 1 -0.46,-0.5a0.85,0.85 0 0 1 0,-0.68l1.31,-2.78a0.88,0.88 0 0 1 1.19,-0.42l2.41,1.13l0.93,-2a0.85,0.85 0 0 1 0.49,-0.46a0.88,0.88 0 0 1 0.72,0a0.89,0.89 0 0 1 0.45,0.5a0.85,0.85 0 0 1 0,0.68l-0.92,2l2.47,1.17a0.89,0.89 0 0 1 0.46,0.51a0.84,0.84 0 0 1 0,0.68a0.87,0.87 0 0 1 -0.52,0.47a0.91,0.91 0 0 1 -0.69,0l-5.69,-2.69l-0.54,1.15l5.67,2.68a0.83,0.83 0 0 1 0.46,0.51a0.85,0.85 0 0 1 -0.04,0.73z"/>
  </g>
  <g id="freepik--plant-1--inject-10">
   <path id="svg_339" fill="#407BFF" d="m135.38,247.3s-3.71,3 -2.33,9.71c0.81,3.94 3.27,5.94 5.42,5.51s3.64,-3.24 2.85,-7.19c-1.32,-6.69 -5.94,-8.03 -5.94,-8.03z"/>
   <path id="svg_340" fill="#fff" opacity="0.2" d="m135.38,247.3s-3.71,3 -2.33,9.71c0.81,3.94 3.27,5.94 5.42,5.51s3.64,-3.24 2.85,-7.19c-1.32,-6.69 -5.94,-8.03 -5.94,-8.03z"/>
   <path id="svg_341" fill="#407BFF" d="m158.47,233.87s-6.22,-1.38 -12,5.54c-3.43,4.08 -3.5,8.28 -1.28,10.16s6.35,1.13 9.81,-2.92c5.84,-6.87 3.47,-12.78 3.47,-12.78z"/>
   <path id="svg_342" fill="#407BFF" d="m151.81,207.39s-2.07,0.57 -2.72,3.56c-0.38,1.77 0.27,3 1.23,3.25s2.08,-0.67 2.47,-2.43c0.67,-2.99 -0.98,-4.38 -0.98,-4.38z"/>
   <path id="svg_343" fill="#407BFF" d="m137.76,271.79a32.94,32.94 0 0 1 -1.22,-9.56a37.62,37.62 0 0 1 1.37,-9.27a45.21,45.21 0 0 1 1.44,-4.35q0.42,-1.07 0.87,-2.1c0.15,-0.35 0.32,-0.69 0.47,-1l0.24,-0.5l0.23,-0.48c1.21,-2.56 2.37,-5.14 3.42,-7.76a78.13,78.13 0 0 0 2.75,-8a48.53,48.53 0 0 0 1.62,-8.25a29.44,29.44 0 0 0 -0.26,-8.38a20.94,20.94 0 0 0 -3.15,-7.86a21.4,21.4 0 0 1 4.08,7.63a31.11,31.11 0 0 1 1.24,8.7a50.66,50.66 0 0 1 -0.72,8.78a83.56,83.56 0 0 1 -1.93,8.57c-0.78,2.82 -1.67,5.6 -2.62,8.35l-0.18,0.52l-0.09,0.25l-0.08,0.25c-0.1,0.32 -0.22,0.64 -0.32,1c-0.2,0.65 -0.39,1.3 -0.56,1.95a39.53,39.53 0 0 0 -0.84,3.94a31.19,31.19 0 0 0 -0.27,7.82a25.24,25.24 0 0 0 1.78,7.32l-7.27,2.43z"/>
   <path id="svg_344" opacity="0.2" d="m137.76,271.79a32.94,32.94 0 0 1 -1.22,-9.56a37.62,37.62 0 0 1 1.37,-9.27a45.21,45.21 0 0 1 1.44,-4.35q0.42,-1.07 0.87,-2.1c0.15,-0.35 0.32,-0.69 0.47,-1l0.24,-0.5l0.23,-0.48c1.21,-2.56 2.37,-5.14 3.42,-7.76a78.13,78.13 0 0 0 2.75,-8a48.53,48.53 0 0 0 1.62,-8.25a29.44,29.44 0 0 0 -0.26,-8.38a20.94,20.94 0 0 0 -3.15,-7.86a21.4,21.4 0 0 1 4.08,7.63a31.11,31.11 0 0 1 1.24,8.7a50.66,50.66 0 0 1 -0.72,8.78a83.56,83.56 0 0 1 -1.93,8.57c-0.78,2.82 -1.67,5.6 -2.62,8.35l-0.18,0.52l-0.09,0.25l-0.08,0.25c-0.1,0.32 -0.22,0.64 -0.32,1c-0.2,0.65 -0.39,1.3 -0.56,1.95a39.53,39.53 0 0 0 -0.84,3.94a31.19,31.19 0 0 0 -0.27,7.82a25.24,25.24 0 0 0 1.78,7.32l-7.27,2.43z"/>
   <path id="svg_345" fill="#407BFF" d="m156.85,260.19l-0.27,3.07l-1.79,20a1.36,1.36 0 0 1 -1.36,1.24l-22.67,0a1.38,1.38 0 0 1 -1.36,-1.24l-1.78,-20l-0.28,-3.07l29.51,0z"/>
   <rect id="svg_346" fill="#407BFF" transform="rotate(-84.88999938964844 -208.80999755859375,452.40002441406256) " height="0.27" width="7.19" y="800.150024" x="-3.059998"/>
   <rect id="svg_347" fill="#407BFF" transform="rotate(-84.88999938964844 -201.77999877929693,447.03997802734375) " height="0.27" width="1.7" y="788.269978" x="7.300001"/>
   <path id="svg_348" fill="#407BFF" d="m140.39,213.33s-3.2,4.27 0.07,11.12c1.93,4 5.12,5.55 7.32,4.5s3.07,-4.46 1.17,-8.52c-3.22,-6.87 -8.56,-7.1 -8.56,-7.1z"/>
   <path id="svg_349" opacity="0.2" d="m140.39,213.33s-3.2,4.27 0.07,11.12c1.93,4 5.12,5.55 7.32,4.5s3.07,-4.46 1.17,-8.52c-3.22,-6.87 -8.56,-7.1 -8.56,-7.1z"/>
   <polygon id="svg_350" opacity="0.2" points="156.85000610351562,260.19000244140625 156.5800018310547,263.260009765625 127.6199951171875,263.260009765625 127.33999633789062,260.19000244140625 156.85000610351562,260.19000244140625 "/>
   <rect id="svg_351" fill="#407BFF" rx="0.64" height="5.32" width="34.3" y="256.4" x="124.94"/>
   <circle id="svg_352" fill="#407BFF" r="4.82" cy="223.82" cx="154.92"/>
   <path id="svg_353" opacity="0.1" d="m158.79,225a3.95,3.95 0 1 0 -7.06,1.29a4,4 0 1 1 7.06,-1.29z"/>
   <path id="svg_354" fill="#fafafa" d="m156.41,224.52l-0.48,1a0.31,0.31 0 0 1 -0.19,0.16a0.31,0.31 0 0 1 -0.25,0l-0.9,-0.42l-0.34,0.71a0.29,0.29 0 0 1 -0.19,0.17a0.29,0.29 0 0 1 -0.24,0a0.31,0.31 0 0 1 -0.18,-0.19a0.36,0.36 0 0 1 0,-0.25l0.36,-0.7l-0.89,-0.42a0.33,0.33 0 0 1 -0.17,-0.18a0.31,0.31 0 0 1 0,-0.25a0.29,0.29 0 0 1 0.19,-0.17a0.29,0.29 0 0 1 0.24,0l2.09,1l0.2,-0.42l-2.08,-1a0.33,0.33 0 0 1 -0.17,-0.18a0.31,0.31 0 0 1 0,-0.25l0.48,-1a0.3,0.3 0 0 1 0.18,-0.17a0.31,0.31 0 0 1 0.25,0l0.88,0.41l0.34,-0.72a0.35,0.35 0 0 1 0.18,-0.16a0.3,0.3 0 0 1 0.26,0a0.32,0.32 0 0 1 0.17,0.19a0.36,0.36 0 0 1 0,0.25l-0.34,0.71l0.9,0.43a0.32,0.32 0 0 1 0.17,0.19a0.31,0.31 0 0 1 0,0.25a0.35,0.35 0 0 1 -0.19,0.17a0.36,0.36 0 0 1 -0.25,0l-2.08,-1l-0.2,0.42l2.07,1a0.29,0.29 0 0 1 0.17,0.19a0.31,0.31 0 0 1 0.01,0.23z"/>
   <circle id="svg_355" fill="#407BFF" r="4.82" cy="238.37" cx="139.07"/>
   <path id="svg_356" opacity="0.1" d="m142.93,239.57a3.95,3.95 0 1 0 -7.06,1.29a4,4 0 1 1 7.06,-1.29z"/>
   <path id="svg_357" fill="#fafafa" d="m140.55,239.07l-0.48,1a0.32,0.32 0 0 1 -0.19,0.17a0.31,0.31 0 0 1 -0.25,0l-0.9,-0.42l-0.34,0.72a0.3,0.3 0 0 1 -0.18,0.17a0.36,0.36 0 0 1 -0.25,0a0.33,0.33 0 0 1 -0.17,-0.18a0.31,0.31 0 0 1 0,-0.25l0.34,-0.73l-0.89,-0.42a0.31,0.31 0 0 1 -0.16,-0.18a0.27,0.27 0 0 1 0,-0.25a0.33,0.33 0 0 1 0.18,-0.17a0.36,0.36 0 0 1 0.25,0l2.08,1l0.2,-0.43l-2.07,-1a0.33,0.33 0 0 1 -0.17,-0.18a0.31,0.31 0 0 1 0,-0.25l0.48,-1a0.31,0.31 0 0 1 0.19,-0.16a0.29,0.29 0 0 1 0.24,0l0.89,0.42l0.34,-0.72a0.28,0.28 0 0 1 0.18,-0.17a0.3,0.3 0 0 1 0.26,0a0.29,0.29 0 0 1 0.16,0.18a0.31,0.31 0 0 1 0,0.25l-0.34,0.72l0.91,0.42a0.35,0.35 0 0 1 0.17,0.19a0.31,0.31 0 0 1 0,0.25a0.32,0.32 0 0 1 -0.19,0.17a0.34,0.34 0 0 1 -0.26,0l-2.08,-1l-0.19,0.42l2.07,1a0.3,0.3 0 0 1 0.17,0.18a0.31,0.31 0 0 1 0,0.25z"/>
  </g>
  <g id="freepik--Character--inject-10">
   <path id="svg_358" fill="#263238" d="m54.62,85.64c11.26,1.72 33.64,40.58 29.17,50.11c-3.85,8.2 -12,10.92 -22.54,-12.58s-6.63,-37.53 -6.63,-37.53z"/>
   <g id="svg_359" opacity="0.2">
    <path id="svg_360" d="m54.62,85.64c11.26,1.72 33.64,40.58 29.17,50.11c-3.85,8.2 -12,10.92 -22.54,-12.58s-6.63,-37.53 -6.63,-37.53z"/>
   </g>
   <polygon id="svg_361" fill="#e2877b" points="59.769996643066406,336.2799987792969 67.88999938964844,337.1400146484375 69.41000366210938,319.6400146484375 61.30000305175781,318.7799987792969 59.769996643066406,336.2799987792969 "/>
   <polygon id="svg_362" fill="#e2877b" points="19.290000915527344,335.69000244140625 27.150001525878906,335.69000244140625 27.800003051757812,317.4800109863281 19.93000030517578,317.4800109863281 19.290000915527344,335.69000244140625 "/>
   <path id="svg_363" fill="#2e353a" d="m28.24,334.78l-9.55,0a0.68,0.68 0 0 0 -0.67,0.54l-1.55,7a1.16,1.16 0 0 0 0.9,1.37a1.07,1.07 0 0 0 0.25,0c3.09,-0.05 5.34,-0.24 9.22,-0.24c2.39,0 9.6,0.25 12.9,0.25s3.73,-3.26 2.38,-3.56c-6.06,-1.32 -10.62,-3.15 -12.56,-4.89a1.89,1.89 0 0 0 -1.32,-0.47z"/>
   <path id="svg_364" fill="#407BFF" d="m28.78,335.87a0.19,0.19 0 0 1 -0.14,-0.16a0.18,0.18 0 0 1 0.09,-0.18c0.28,-0.18 2.82,-1.74 3.69,-1.29a0.55,0.55 0 0 1 0.32,0.52a1.07,1.07 0 0 1 -0.39,1a2.36,2.36 0 0 1 -1.51,0.4a9.65,9.65 0 0 1 -2.06,-0.29zm0.54,-0.26a3.82,3.82 0 0 0 2.8,-0.14a0.75,0.75 0 0 0 0.25,-0.67c0,-0.15 -0.07,-0.22 -0.12,-0.22a0.39,0.39 0 0 0 -0.24,-0.05a7.57,7.57 0 0 0 -2.69,1.08z"/>
   <path id="svg_365" fill="#407BFF" d="m28.73,335.91a0.22,0.22 0 0 1 -0.09,-0.17c0,-0.11 0.2,-2.37 1.11,-3.11a1,1 0 0 1 0.79,-0.24a0.59,0.59 0 0 1 0.6,0.49c0.16,0.83 -1.41,2.56 -2.22,3l-0.09,0a0.17,0.17 0 0 1 -0.1,0.03zm1.27,-3.06a4.49,4.49 0 0 0 -0.93,2.46c0.81,-0.61 1.81,-1.92 1.71,-2.43c0,-0.05 0,-0.19 -0.27,-0.19l-0.09,0a0.67,0.67 0 0 0 -0.42,0.16z"/>
   <path id="svg_366" fill="#2e353a" d="m68.74,334.53l-9.55,0a0.68,0.68 0 0 0 -0.67,0.54l-1.55,7a1.16,1.16 0 0 0 0.9,1.37a1.07,1.07 0 0 0 0.25,0c3.09,-0.05 5.34,-0.24 9.22,-0.24c2.39,0 9.6,0.25 12.9,0.25s3.73,-3.26 2.38,-3.56c-6.06,-1.32 -10.62,-3.15 -12.56,-4.89a1.89,1.89 0 0 0 -1.32,-0.47z"/>
   <path id="svg_367" fill="#407BFF" d="m69.28,335.62a0.19,0.19 0 0 1 -0.14,-0.16a0.18,0.18 0 0 1 0.09,-0.18c0.28,-0.18 2.82,-1.74 3.69,-1.29a0.55,0.55 0 0 1 0.32,0.52a1.07,1.07 0 0 1 -0.39,1a2.36,2.36 0 0 1 -1.51,0.4a9.65,9.65 0 0 1 -2.06,-0.29zm0.54,-0.26a3.82,3.82 0 0 0 2.8,-0.14a0.75,0.75 0 0 0 0.25,-0.67c0,-0.15 -0.07,-0.22 -0.12,-0.22a0.39,0.39 0 0 0 -0.24,-0.05a7.57,7.57 0 0 0 -2.69,1.08z"/>
   <path id="svg_368" fill="#407BFF" d="m69.23,335.66a0.22,0.22 0 0 1 -0.09,-0.17c0,-0.11 0.2,-2.37 1.11,-3.11a1,1 0 0 1 0.79,-0.24a0.59,0.59 0 0 1 0.6,0.49c0.16,0.83 -1.41,2.56 -2.22,3l-0.09,0a0.17,0.17 0 0 1 -0.1,0.03zm1.26,-3.06a4.49,4.49 0 0 0 -0.93,2.46c0.81,-0.61 1.81,-1.92 1.71,-2.43c0,-0.05 0,-0.19 -0.27,-0.19l-0.09,0a0.67,0.67 0 0 0 -0.42,0.16z"/>
   <polygon id="svg_369" opacity="0.2" points="19.93000030517578,317.489990234375 27.800003051757812,317.489990234375 27.459999084472656,326.8800048828125 19.589996337890625,326.8800048828125 19.93000030517578,317.489990234375 "/>
   <path id="svg_370" fill="#263238" d="m23.18,157.75l41.72,0c4,21.67 15.84,106.92 6.93,175.22l-14.12,-0.75s1.85,-100.22 -10.62,-133.79c-1.43,17.94 -3.14,37 -4.62,47.19c-3.63,25 -11.92,87.8 -11.92,87.8l-14.19,-0.59s3.27,-59.83 4.64,-84.44c1.48,-26.68 2.12,-85.16 2.18,-90.64z"/>
   <g id="svg_371" opacity="0.3">
    <path id="svg_372" d="m23.18,157.75l41.72,0c4,21.67 15.84,106.92 6.93,175.22l-14.12,-0.75s1.85,-100.22 -10.62,-133.79c-1.43,17.94 -3.14,37 -4.62,47.19c-3.63,25 -11.92,87.8 -11.92,87.8l-14.19,-0.59s3.27,-59.83 4.64,-84.44c1.48,-26.68 2.12,-85.16 2.18,-90.64z"/>
   </g>
   <path id="svg_373" opacity="0.4" d="m66.58,167.83s-12.29,2.85 -20.87,0l0.77,-6.67l20,0l0.1,6.67z"/>
   <path id="svg_374" fill="#fff" opacity="0.1" d="m60.39,168.8a49.5,49.5 0 0 1 -7.92,0.22l0,-7.85l7.92,0l0,7.63z"/>
   <path id="svg_375" opacity="0.2" d="m47.09,198.43a111.8,111.8 0 0 1 4.66,18.05c1.17,-16 -3.5,-32.89 -3.5,-32.89l-1.16,14.84z"/>
   <path id="svg_376" fill="#2e353a" d="m28.68,62.69s0.31,7.66 6.28,5.86s-0.96,-8.55 -6.28,-5.86z"/>
   <path id="svg_377" fill="#e2877b" d="m46.48,81.83a8,8 0 0 1 -2.74,-8.41l-10.8,-8.71s1.4,10.7 -1.21,16.35c0,0 6.51,6.61 11.49,5.1s3.26,-4.33 3.26,-4.33z"/>
   <path id="svg_378" opacity="0.2" d="m35.36,69.93l4.28,0.18l4.1,3.31a8.65,8.65 0 0 0 0.05,4.44c-6.54,-1.06 -8.43,-7.93 -8.43,-7.93z"/>
   <path id="svg_379" fill="#407BFF" d="m35.64,89.55l9,-3.39l7.5,0.56s8,18.1 10.89,36.79a299.8,299.8 0 0 1 3,39.26c-0.28,-0.06 -11,2.29 -20.95,-1.09c0,0 6.62,-28 3,-40.83s-12.35,-31.3 -12.35,-31.3"/>
   <path id="svg_380" fill="#fff" opacity="0.8" d="m35.64,89.55l9,-3.39l7.5,0.56s8,18.1 10.89,36.79a299.8,299.8 0 0 1 3,39.26c-0.28,-0.06 -11,2.29 -20.95,-1.09c0,0 6.62,-28 3,-40.83s-12.35,-31.3 -12.35,-31.3"/>
   <path id="svg_381" opacity="0.4" d="m48.09,86.42l-0.54,4.92s6.64,12.93 9,21.58s4.29,34.88 4.29,34.88l-4.15,7.2l-3.82,-7.15s1,-21 -2.06,-35.16s-4.74,-20.52 -4.74,-20.52l-4.61,-3.33l3.13,-2.63l3.5,0.21z"/>
   <polygon id="svg_382" fill="#fff" points="46.480003356933594,81.83000183105469 43.410003662109375,84.88999938964844 31.730003356933594,81.05999755859375 40.43000030517578,93.94000244140625 44.75,87.02999877929688 51.769996643066406,89.02000427246094 46.480003356933594,81.83000183105469 "/>
   <path id="svg_383" fill="#263238" d="m46.48,81.83s16.07,3.51 19.51,18s5.44,77.76 5.94,82.86s-9.56,5.73 -9.56,5.73s0.54,-32.73 -0.29,-41.42c-0.3,-3.14 -0.75,-13.74 -2.18,-22c-2.51,-14.6 -6.9,-33.41 -13.42,-43.17z"/>
   <path id="svg_384" fill="#263238" d="m49.81,83c2.19,1.92 7.39,6 10,10.32l-4.06,2.14l5.55,3.53s-0.46,15.59 -1.81,23.76c-2.57,-14.22 -6.81,-31.64 -13,-40.92c-0.01,0 1.32,0.37 3.32,1.17z"/>
   <path id="svg_385" fill="#fff" opacity="0.1" d="m49.81,83c2.19,1.92 7.39,6 10,10.32l-4.06,2.14l5.55,3.53s-0.46,15.59 -1.81,23.76c-2.57,-14.22 -6.81,-31.64 -13,-40.92c-0.01,0 1.32,0.37 3.32,1.17z"/>
   <path id="svg_386" fill="#2e353a" d="m58,46.58s1.37,7.57 -3.23,8.88c0,0 -3.09,-7 0.08,-7.57s3.15,-1.31 3.15,-1.31z"/>
   <path id="svg_387" fill="#e2877b" d="m54.84,64.83c-0.72,4.16 -3.84,12.88 -12.67,10.22s-9.21,-9.62 -9.35,-11.63s1.72,-17.62 7.37,-19.11s12.5,0.35 14.65,3.58s0,16.94 0,16.94z"/>
   <path id="svg_388" fill="#2e353a" d="m33.32,58.38c-0.14,0.19 5.23,2 5,-10.38c0,0 17.84,3.69 22.24,-2.09c5.39,-7.07 3,-8.38 -3.63,-6.34c0,0 -22.86,-2.36 -25.81,1.42c-3.52,4.51 -3.47,16.76 -3.47,16.76l5.67,0.63z"/>
   <path id="svg_389" fill="#2e353a" d="m56.28,41.93s9.79,-9.61 -9.51,-0.9l9.51,0.9z"/>
   <path id="svg_390" fill="#e2877b" d="m35.2,59.34s-1.58,-4.34 -5.61,-4.34c-3.25,0 -3.71,4 -2.24,6.85c1.14,2.15 4.84,4.84 7.2,2s0.65,-4.51 0.65,-4.51z"/>
   <path id="svg_391" fill="#2e353a" d="m44.65,58.45a1,1 0 0 0 0.55,1.26c0.42,0.07 0.83,-0.39 0.94,-1s-0.15,-1.19 -0.55,-1.26s-0.83,0.37 -0.94,1z"/>
   <path id="svg_392" fill="#2e353a" d="m51.63,59.66c-0.15,0.61 0.14,1.18 0.55,1.25s0.82,-0.38 0.93,-1s-0.14,-1.18 -0.55,-1.25s-0.83,0.4 -0.93,1z"/>
   <path id="svg_393" fill="#dc5753" d="m49.42,59.58a23,23 0 0 0 2.07,5.86a3.65,3.65 0 0 1 -3.1,0l1.03,-5.86z"/>
   <path id="svg_394" fill="#2e353a" d="m43.29,54.74a0.43,0.43 0 0 0 0.37,0.14a3,3 0 0 1 2.59,0.71a0.37,0.37 0 1 0 0.54,-0.5l0,0a3.71,3.71 0 0 0 -3.26,-0.94a0.37,0.37 0 0 0 -0.31,0.42l0,0a0.87,0.87 0 0 0 0.07,0.17z"/>
   <path id="svg_395" fill="#2e353a" d="m46.83,68.55l0,0a5.72,5.72 0 0 1 -4.63,-2.55a0.2,0.2 0 0 1 0.33,-0.21l0,0a5.45,5.45 0 0 0 4.31,2.32a0.19,0.19 0 0 1 0.19,0.19l0,0a0.2,0.2 0 0 1 -0.19,0.19l-0.01,0.06z"/>
   <path id="svg_396" fill="#2e353a" d="m55.09,55.86a0.39,0.39 0 0 0 0.17,-0.14a0.36,0.36 0 0 0 -0.2,-0.48l0,0a3.7,3.7 0 0 0 -3.39,0.26a0.39,0.39 0 0 0 -0.09,0.52l0,0a0.39,0.39 0 0 0 0.52,0.09l0,0a3,3 0 0 1 2.69,-0.17a0.38,0.38 0 0 0 0.3,-0.08z"/>
   <path id="svg_397" fill="#263238" d="m31.73,81.06s-11.19,5.32 -16.22,8.58s2.86,40.43 3.06,47s-5.75,51.7 -5.75,51.7s17,4.43 30.92,1.13c0,0 9.84,-37.54 8.63,-57.22c-1.17,-18.94 -6.85,-37.59 -20.64,-51.19z"/>
   <path id="svg_398" fill="#263238" d="m23,167.74s11.45,-1.74 18.46,-5.74c0,0 0,13 -2.19,20.21c0,0 -10.88,1.52 -17.89,0.38c0,0.02 0.44,-6.7 1.62,-14.85z"/>
   <path id="svg_399" opacity="0.1" d="m23,167.74s11.45,-1.74 18.46,-5.74c0,0 0,1.92 -0.11,4.69c-0.2,4.44 -19.34,8.93 -18.89,5.08c0.15,-1.27 0.34,-2.63 0.54,-4.03z"/>
   <path id="svg_400" fill="#263238" d="m27.35,83.58c2.54,-1.42 4.38,-2.52 4.38,-2.52c13.34,13.16 19.08,31 20.5,49.31c-5.79,-14.11 -19.25,-27 -19.25,-27l4.15,-6.09l-7.62,-0.6a50.94,50.94 0 0 0 -2.16,-13.1z"/>
   <path id="svg_401" fill="#fff" opacity="0.1" d="m27.35,83.58c2.54,-1.42 4.38,-2.52 4.38,-2.52c13.34,13.16 19.08,31 20.5,49.31c-5.79,-14.11 -19.25,-27 -19.25,-27l4.15,-6.09l-7.62,-0.6a50.94,50.94 0 0 0 -2.16,-13.1z"/>
   <path id="svg_402" fill="#263238" d="m66,162l6,1l-0.76,4.61s-5.91,-0.09 -5.24,-5.61z"/>
   <path id="svg_403" opacity="0.1" d="m66,162l6,1l-0.76,4.61s-5.91,-0.09 -5.24,-5.61z"/>
   <path id="svg_404" fill="#e4897b" d="m62.83,116.38l-11.22,-14.06a6.66,6.66 0 0 1 -4.15,-2c-1.69,-1.85 -3.56,-9.62 -2.93,-10.06s8,-0.48 8.61,0.43s3.06,8.79 3.06,8.79l12.32,11.28l-5.69,5.62z"/>
   <polygon id="svg_405" fill="#407BFF" points="61.75,101.11000061035156 59.05000305175781,98.99000549316406 51.160003662109375,105.02000427246094 53.459999084472656,108.44999694824219 61.75,101.11000061035156 "/>
   <g id="svg_406" opacity="0.8">
    <polygon id="svg_407" fill="#fff" points="61.75,101.11000061035156 59.05000305175781,98.99000549316406 51.160003662109375,105.02000427246094 53.459999084472656,108.44999694824219 61.75,101.11000061035156 "/>
   </g>
   <path id="svg_408" fill="#263238" d="m81,123.83c-5.5,-7 -19,-23.52 -19,-23.52l-10.3,8.19s14.51,27.39 20.23,32.05c7.51,6.1 16.81,-6.89 9.07,-16.72z"/>
   <g id="svg_409" opacity="0.1">
    <path id="svg_410" d="m81,123.83c-5.5,-7 -19,-23.52 -19,-23.52l-10.3,8.19s14.51,27.39 20.23,32.05c7.51,6.1 16.81,-6.89 9.07,-16.72z"/>
   </g>
   <path id="svg_411" fill="#407BFF" d="m54,185.83a18.39,18.39 0 1 1 18.38,-18.4a17.82,17.82 0 0 1 -0.31,3.34a18.42,18.42 0 0 1 -18.07,15.06zm0,-33a14.62,14.62 0 1 0 2.67,0.24l0,0a15.43,15.43 0 0 0 -2.71,-0.24l0.04,0z"/>
   <path id="svg_412" fill="#e2877b" d="m20.32,155.24l15.47,2.84a6.29,6.29 0 0 0 4.12,2c2.79,0.31 6.44,-0.12 6.85,-0.88c0.59,-1.08 1.72,-6.35 0.49,-6.26s-9.28,-0.79 -9.28,-0.79l-15.24,-6.69l-2.41,9.78z"/>
   <polygon id="svg_413" fill="#407BFF" points="34.31999969482422,147 38.16999816894531,148.6699981689453 33.58000183105469,161.91000366210938 28.529998779296875,159.58999633789062 34.31999969482422,147 "/>
   <polygon id="svg_414" fill="#fff" opacity="0.8" points="34.31999969482422,147 38.16999816894531,148.6699981689453 33.58000183105469,161.91000366210938 28.529998779296875,159.58999633789062 34.31999969482422,147 "/>
   <path id="svg_415" fill="#263238" d="m15.05,90.07s-9.52,14.64 -12.41,31.4a28.55,28.55 0 0 0 1.45,15.53c6.73,16.92 26.6,24.83 26.6,24.83l6.19,-14.83s-15.22,-7.22 -17.46,-18.2c-0.52,-2.53 -1.39,-3.83 -0.3,-7.44c3.63,-12.02 9.29,-27.51 -4.07,-31.29z"/>
   <path id="svg_416" opacity="0.1" d="m15.05,90.07s-9.52,14.64 -12.41,31.4a28.55,28.55 0 0 0 1.45,15.53c6.73,16.92 26.6,24.83 26.6,24.83l6.19,-14.83s-15.22,-7.22 -17.46,-18.2c-0.52,-2.53 -1.39,-3.83 -0.3,-7.44c3.63,-12.02 9.29,-27.51 -4.07,-31.29z"/>
   <path id="svg_417" fill="#e2877b" d="m41.23,154.77c2,-0.23 6.54,-3.1 6.8,-4.57c0.14,-0.8 -3.27,0.32 -4.41,0.44c-3.17,0.36 -5.52,0.69 -6.38,2.06s0.76,2.51 3.99,2.07z"/>
   <path id="svg_418" fill="#407BFF" d="m99.67,183.06l-3.44,-7.23a1,1 0 0 0 -1.35,-0.47a1,1 0 0 0 -0.55,0.7l-1,4.7l-9.84,4.95a3.21,3.21 0 0 1 -4.32,-1.42a3.16,3.16 0 0 1 -0.29,-2.07l2.26,-11.42a2.39,2.39 0 0 0 -1.55,-2.72l-18.86,-6.69a2.4,2.4 0 0 0 -2.92,1.11l-11.23,21.42a2.4,2.4 0 0 0 1,3.23c0.1,0 0.19,0.09 0.29,0.12l27.71,9.89a2.38,2.38 0 0 0 2.36,-0.41l16.47,-14.18l3.87,1.86a1,1 0 0 0 1.37,-0.41a1,1 0 0 0 0.02,-0.96z"/>
   <path id="svg_419" fill="#407BFF" d="m150.81,251.86l0,0c-0.05,0 -0.1,-0.05 -0.09,-0.1c0,-0.74 0,-1.49 0,-2.25a0.1,0.1 0 0 1 0.09,-0.1a0.1,0.1 0 0 1 0.1,0.1l0,0c0,0.77 0,1.55 0,2.26a0.09,0.09 0 0 1 -0.09,0.09l-0.01,0zm0.08,-4.55a0.09,0.09 0 0 1 -0.1,-0.07l0,-2.32a0.1,0.1 0 0 1 0.1,-0.09l0,0a0.09,0.09 0 0 1 0.09,0.09l0,2.33a0.09,0.09 0 0 1 -0.08,0.06l-0.01,0zm0,-4.57a0.12,0.12 0 0 1 -0.1,-0.1l0,-2.33a0.1,0.1 0 0 1 0.1,-0.09l0,0a0.11,0.11 0 0 1 0.1,0.09l0,2.33a0.11,0.11 0 0 1 -0.1,0.1zm0,-4.59a0.1,0.1 0 0 1 -0.1,-0.09c0,-0.78 0,-1.55 0,-2.33a0.09,0.09 0 0 1 0.09,-0.09l0,0a0.09,0.09 0 0 1 0.09,0.09c0,0.78 0,1.55 0,2.29a0.09,0.09 0 0 1 -0.1,0.1l0,0l0.02,0.03zm-0.09,-4.58a0.09,0.09 0 0 1 -0.09,-0.09c0,-0.78 0,-1.56 -0.06,-2.33a0.08,0.08 0 0 1 0.08,-0.1l0,0a0.11,0.11 0 0 1 0.1,0.09c0,0.78 0,1.55 0.06,2.33a0.09,0.09 0 0 1 -0.1,0.09l0.01,0.01zm-0.14,-4.58a0.11,0.11 0 0 1 -0.1,-0.09c0,-0.78 -0.05,-1.55 -0.09,-2.29a0.08,0.08 0 0 1 0.08,-0.1l0,0a0.1,0.1 0 0 1 0.1,0.09l0.1,2.29a0.1,0.1 0 0 1 -0.1,0.11l0.01,-0.01zm-0.21,-4.58a0.1,0.1 0 0 1 -0.09,-0.09c0,-0.77 -0.08,-1.55 -0.12,-2.29a0.07,0.07 0 0 1 0.06,-0.09l0,0a0.09,0.09 0 0 1 0.09,0.09c0,0.77 0.09,1.55 0.13,2.29a0.09,0.09 0 0 1 -0.07,0.1l0,-0.01zm-0.27,-4.57a0.09,0.09 0 0 1 -0.09,-0.09l-0.16,-2.29a0.08,0.08 0 0 1 0.08,-0.1l0,0a0.09,0.09 0 0 1 0.11,0.07l0,0l0.16,2.29a0.11,0.11 0 0 1 -0.09,0.11l-0.01,0.01zm-0.34,-4.58a0.09,0.09 0 0 1 -0.09,-0.09c-0.06,-0.78 -0.13,-1.55 -0.2,-2.28a0.09,0.09 0 0 1 0.07,-0.11l0,0a0.1,0.1 0 0 1 0.1,0.09c0.07,0.77 0.14,1.55 0.2,2.28c0,0.05 0,0.1 -0.06,0.1l0,0l-0.02,0.01zm-0.42,-4.57a0.09,0.09 0 0 1 -0.1,-0.08c-0.08,-0.78 -0.15,-1.55 -0.24,-2.27a0.1,0.1 0 0 1 0.08,-0.11l0,0a0.08,0.08 0 0 1 0.1,0.08c0.08,0.78 0.17,1.55 0.25,2.28a0.09,0.09 0 0 1 -0.09,0.1l0,0zm-0.51,-4.54a0.08,0.08 0 0 1 -0.09,-0.08c-0.1,-0.77 -0.2,-1.55 -0.3,-2.27a0.11,0.11 0 0 1 0.13,-0.07a0.12,0.12 0 0 1 0.07,0.07c0.1,0.77 0.19,1.51 0.28,2.27a0.08,0.08 0 0 1 -0.06,0.1l0,0l-0.03,-0.02zm-0.6,-4.54a0.09,0.09 0 0 1 -0.1,-0.07l0,0c-0.11,-0.77 -0.23,-1.55 -0.35,-2.26a0.1,0.1 0 0 1 0.08,-0.11l0,0a0.1,0.1 0 0 1 0.11,0.08l0,0c0.12,0.77 0.24,1.5 0.35,2.26a0.1,0.1 0 0 1 -0.08,0.11l0,0l-0.01,-0.01zm-0.73,-4.53a0.09,0.09 0 0 1 -0.09,-0.08c-0.13,-0.77 -0.27,-1.55 -0.41,-2.24a0.1,0.1 0 0 1 0.08,-0.12s0.09,0 0.11,0.08c0.14,0.77 0.27,1.5 0.41,2.25a0.1,0.1 0 0 1 -0.08,0.11l0,0l-0.02,0zm-0.85,-4.5a0.09,0.09 0 0 1 -0.09,-0.07c-0.16,-0.78 -0.32,-1.51 -0.48,-2.24a0.09,0.09 0 0 1 0.18,0c0.17,0.73 0.33,1.48 0.48,2.24a0.08,0.08 0 0 1 -0.06,0.11l0,0l-0.03,-0.04zm-1,-4.46a0.09,0.09 0 0 1 -0.09,-0.08c-0.19,-0.78 -0.38,-1.5 -0.57,-2.21a0.11,0.11 0 0 1 0.06,-0.13a0.09,0.09 0 0 1 0.11,0.05l0,0c0.19,0.72 0.39,1.48 0.57,2.22a0.11,0.11 0 0 1 -0.07,0.12l-0.01,0.03zm-1.19,-4.43a0.1,0.1 0 0 1 -0.09,-0.07c-0.22,-0.74 -0.44,-1.48 -0.67,-2.19a0.09,0.09 0 0 1 0.06,-0.12l0,0a0.09,0.09 0 0 1 0.12,0.06l0,0c0.23,0.7 0.45,1.45 0.68,2.18a0.11,0.11 0 0 1 -0.07,0.13l-0.03,0.01zm-1.41,-4.36a0.1,0.1 0 0 1 -0.09,-0.06c-0.26,-0.73 -0.53,-1.45 -0.78,-2.15a0.08,0.08 0 0 1 0,-0.11l0,0a0.1,0.1 0 0 1 0.12,0.06c0.27,0.69 0.54,1.41 0.78,2.14a0.11,0.11 0 0 1 -0.07,0.13l0.04,-0.01zm-45.42,-3.1l0,0a0.1,0.1 0 0 1 0,-0.14c0.38,-0.61 0.82,-1.25 1.28,-1.9a0.09,0.09 0 0 1 0.13,0l0,0a0.1,0.1 0 0 1 0,0.13l0,0c-0.46,0.64 -0.89,1.28 -1.27,1.89a0.11,0.11 0 0 1 -0.09,0l-0.05,0.02zm43.73,-1.18a0.1,0.1 0 0 1 -0.08,-0.06c-0.31,-0.71 -0.65,-1.41 -1,-2.07a0.09,0.09 0 0 1 0,-0.12l0,0a0.11,0.11 0 0 1 0.13,0c0.33,0.66 0.66,1.36 1,2.08a0.09,0.09 0 0 1 -0.05,0.12l0,0.05zm-41,-2.54l0,0a0.1,0.1 0 0 1 0,-0.14c0.47,-0.59 1,-1.19 1.47,-1.75a0.1,0.1 0 0 1 0.14,0a0.09,0.09 0 0 1 0,0.13l0,0c-0.5,0.57 -1,1.15 -1.47,1.75a0.1,0.1 0 0 1 -0.19,0.01l0.05,0zm39,-1.55a0.11,0.11 0 0 1 -0.09,-0.05c-0.38,-0.68 -0.77,-1.33 -1.18,-1.95a0.09,0.09 0 0 1 0.13,-0.13c0.4,0.62 0.77,1.28 1.19,2a0.09,0.09 0 0 1 0,0.13l-0.05,0zm-36,-1.89a0.06,0.06 0 0 1 -0.06,0a0.09,0.09 0 0 1 0,-0.12l0,0c0.54,-0.55 1.09,-1.08 1.65,-1.6a0.09,0.09 0 0 1 0.13,0l0,0a0.1,0.1 0 0 1 0,0.14c-0.55,0.51 -1.1,1 -1.64,1.59a0.08,0.08 0 0 1 -0.1,0l0,0l0.02,-0.01zm33.5,-1.94a0.09,0.09 0 0 1 -0.07,0c-0.48,-0.62 -1,-1.21 -1.46,-1.75a0.1,0.1 0 0 1 0,-0.14a0.09,0.09 0 0 1 0.13,0l0,0c0.5,0.54 1,1.13 1.47,1.76a0.09,0.09 0 0 1 0,0.13l0,0a0.07,0.07 0 0 1 -0.1,0.05l0.03,-0.05zm-30.12,-1.18l-0.07,0a0.09,0.09 0 0 1 0,-0.13l0,0c0.6,-0.49 1.21,-1 1.82,-1.41a0.09,0.09 0 0 1 0.13,0l0,0a0.1,0.1 0 0 1 0,0.13l0,0c-0.61,0.44 -1.22,0.92 -1.81,1.41a0.09,0.09 0 0 1 -0.11,0l0.04,0zm57.12,-1l-0.06,0a18.37,18.37 0 0 0 -1.79,-1.4a0.09,0.09 0 0 1 0,-0.13l0,0a0.1,0.1 0 0 1 0.13,0a17.45,17.45 0 0 1 1.8,1.41a0.09,0.09 0 0 1 0,0.13l0,0a0.08,0.08 0 0 1 -0.12,0l0,0l0.04,-0.01zm-23.36,-0.49a0.12,0.12 0 0 1 -0.08,0a0.1,0.1 0 0 1 0,-0.13c0.66,-0.42 1.33,-0.78 2,-1.16a0.11,0.11 0 0 1 0.15,0.15l-0.05,0c-0.66,0.35 -1.33,0.73 -2,1.14l-0.02,0zm19.57,-2l0,0l-0.38,-0.17a18.33,18.33 0 0 0 -1.73,-0.69a0.09,0.09 0 0 1 -0.06,-0.12l0,0a0.09,0.09 0 0 1 0.11,-0.07l0,0a18.69,18.69 0 0 1 1.75,0.69l0.38,0.18a0.11,0.11 0 0 1 0,0.13a0.1,0.1 0 0 1 -0.1,0l0.03,0.05zm-15.52,-0.1a0.08,0.08 0 0 1 -0.09,-0.05a0.1,0.1 0 0 1 0,-0.12a21.44,21.44 0 0 1 2.16,-0.78a0.08,0.08 0 0 1 0.11,0.05l0,0a0.11,0.11 0 0 1 -0.06,0.12l0,0c-0.71,0.22 -1.43,0.49 -2.15,0.77l0.03,0.01zm4.37,-1.35a0.09,0.09 0 1 1 0,-0.18a17.34,17.34 0 0 1 2.28,-0.3a0.09,0.09 0 0 1 0.1,0.08l0,0a0.11,0.11 0 0 1 -0.09,0.1a19,19 0 0 0 -2.25,0.29l-0.04,0.01zm6.82,0l0,0a19.13,19.13 0 0 0 -2.26,-0.29a0.09,0.09 0 0 1 -0.09,-0.09l0,0a0.09,0.09 0 0 1 0.1,-0.09a17.57,17.57 0 0 1 2.28,0.3a0.09,0.09 0 0 1 0.08,0.1l0,0a0.09,0.09 0 0 1 -0.12,0.06l0,0l0.01,0.01z"/>
   <path id="svg_420" fill="#407BFF" d="m147.49,251.15l0,0a0.1,0.1 0 0 1 -0.09,-0.1l0,0c0,-0.77 0.06,-1.51 0.09,-2.29a0.08,0.08 0 0 1 0.08,-0.09l0,0a0.09,0.09 0 0 1 0.09,0.09l0,0c0,0.78 0,1.55 -0.08,2.29a0.09,0.09 0 0 1 -0.09,0.09l0,0.01zm0.15,-4.58l0,0a0.11,0.11 0 0 1 -0.09,-0.1c0,-0.78 0,-1.52 0,-2.29c0,-0.06 0.05,-0.09 0.11,-0.1a0.11,0.11 0 0 1 0.09,0.1c0,0.78 0,1.56 -0.06,2.29a0.11,0.11 0 0 1 -0.1,0.1l0.05,0zm0.1,-4.59l0,0s-0.08,0 -0.09,-0.07l0,-2.31a0.09,0.09 0 0 1 0.09,-0.09l0,0a0.1,0.1 0 0 1 0.1,0.09l0,2.29a0.1,0.1 0 0 1 -0.1,0.09zm0,-4.57l0,0a0.1,0.1 0 0 1 -0.09,-0.1l0,-2.31a0.11,0.11 0 0 1 0.09,-0.1l0,0a0.1,0.1 0 0 1 0.1,0.1l0,0l0,2.29a0.1,0.1 0 0 1 -0.09,0.1l-0.01,0.02zm0,-4.58a0.11,0.11 0 0 1 -0.1,-0.1l0,0l0,-2.29a0.09,0.09 0 0 1 0.1,-0.09l0,0a0.09,0.09 0 0 1 0.09,0.09l0,2.29a0.11,0.11 0 0 1 -0.09,0.1zm-0.07,-4.58a0.13,0.13 0 0 1 -0.1,-0.1c0,-0.77 0,-1.55 -0.06,-2.29a0.1,0.1 0 0 1 0.07,-0.12a0.09,0.09 0 0 1 0.12,0.07a0,0 0 0 1 0,0.05c0,0.78 0,1.56 0.06,2.29a0.1,0.1 0 0 1 -0.09,0.1zm-0.14,-4.59a0.1,0.1 0 0 1 -0.1,-0.08c0,-0.78 -0.05,-1.56 -0.09,-2.33a0.09,0.09 0 0 1 0.08,-0.1l0,0a0.08,0.08 0 0 1 0.1,0.08l0,0l0.1,2.33a0.09,0.09 0 0 1 -0.1,0.09l0.01,0.01zm-0.21,-4.57a0.1,0.1 0 0 1 -0.09,-0.1c0,-0.77 -0.08,-1.55 -0.13,-2.29a0.1,0.1 0 0 1 0.08,-0.1l0,0a0.11,0.11 0 0 1 0.1,0.09c0,0.77 0.08,1.55 0.13,2.33a0.11,0.11 0 0 1 -0.09,0.1l0,0l0,-0.03zm-0.27,-4.59a0.1,0.1 0 0 1 -0.1,-0.08l-0.16,-2.29a0.08,0.08 0 0 1 0.1,-0.07a0.1,0.1 0 0 1 0.1,0.09c0.06,0.78 0.12,1.55 0.17,2.28a0.08,0.08 0 0 1 -0.08,0.1l0,0l-0.03,-0.03zm-0.36,-4.56a0.09,0.09 0 0 1 -0.09,-0.09l-0.21,-2.28a0.09,0.09 0 0 1 0.08,-0.1l0,0a0.1,0.1 0 0 1 0.1,0.07l0,0c0.08,0.77 0.15,1.55 0.22,2.27a0.11,0.11 0 0 1 -0.09,0.11l-0.01,0.02zm-0.44,-4.55a0.1,0.1 0 0 1 -0.1,-0.09c-0.08,-0.76 -0.17,-1.52 -0.26,-2.28a0.09,0.09 0 0 1 0.08,-0.1a0.08,0.08 0 0 1 0.1,0.08l0,0c0.09,0.77 0.17,1.51 0.26,2.27a0.1,0.1 0 0 1 -0.08,0.11l0,0.01zm-0.55,-4.56a0.09,0.09 0 0 1 -0.1,-0.07l0,0c-0.1,-0.78 -0.21,-1.55 -0.32,-2.28a0.09,0.09 0 0 1 0.08,-0.1l0,0a0.09,0.09 0 0 1 0.11,0.07l0,0c0.11,0.78 0.22,1.51 0.32,2.27a0.09,0.09 0 0 1 -0.08,0.1l-0.01,0.01zm-0.67,-4.53a0.08,0.08 0 0 1 -0.09,-0.08c-0.13,-0.78 -0.26,-1.55 -0.39,-2.26a0.09,0.09 0 0 1 0.07,-0.11l0,0a0.09,0.09 0 0 1 0.1,0.08l0,0c0.14,0.78 0.27,1.5 0.39,2.26a0.09,0.09 0 0 1 -0.07,0.11l0,0l-0.01,0zm-0.78,-4.51a0.09,0.09 0 0 1 -0.09,-0.08c-0.15,-0.77 -0.3,-1.55 -0.46,-2.24a0.08,0.08 0 0 1 0.06,-0.1l0,0a0.11,0.11 0 0 1 0.12,0.07l0,0c0.15,0.73 0.31,1.49 0.46,2.25a0.1,0.1 0 0 1 -0.07,0.11l-0.02,-0.01zm-1,-4.48s-0.08,0 -0.09,-0.07c-0.19,-0.78 -0.37,-1.51 -0.56,-2.22a0.1,0.1 0 0 1 0.19,0c0.18,0.72 0.37,1.47 0.55,2.23a0.09,0.09 0 0 1 -0.07,0.11l0,0l-0.02,-0.05zm-1.17,-4.43a0.11,0.11 0 0 1 -0.09,-0.06c-0.21,-0.78 -0.44,-1.49 -0.67,-2.19a0.1,0.1 0 0 1 0.06,-0.13a0.1,0.1 0 0 1 0.12,0.06l0,0c0.22,0.71 0.45,1.45 0.66,2.19a0.09,0.09 0 0 1 -0.06,0.12l0,0l-0.02,0.01zm-1.44,-4.36a0.1,0.1 0 0 1 -0.08,-0.06c-0.26,-0.73 -0.54,-1.45 -0.82,-2.14a0.1,0.1 0 0 1 0.05,-0.12a0.11,0.11 0 0 1 0.13,0c0.27,0.69 0.55,1.41 0.82,2.14a0.11,0.11 0 0 1 -0.06,0.13l-0.04,0.05zm-42.37,-1.19l0,0a0.09,0.09 0 0 1 0,-0.13c0.39,-0.61 0.83,-1.25 1.31,-1.88a0.09,0.09 0 0 1 0.13,0a0.09,0.09 0 0 1 0,0.13l0,0c-0.47,0.64 -0.9,1.28 -1.31,1.88a0.07,0.07 0 0 1 -0.11,0l-0.02,0zm40.71,-3.04a0.11,0.11 0 0 1 -0.09,0c-0.33,-0.71 -0.67,-1.4 -1,-2.05a0.1,0.1 0 0 1 0,-0.13a0.08,0.08 0 0 1 0.12,0c0.35,0.65 0.69,1.35 1,2.05a0.11,0.11 0 0 1 -0.05,0.14l0.02,-0.01zm-78.64,2.4l40.66,0a0.1,0.1 0 0 1 0,-0.13l0,0c0.48,-0.59 1,-1.18 1.49,-1.75a0.09,0.09 0 0 1 0.13,0l0,0a0.09,0.09 0 0 1 0,0.13l0,0c-0.51,0.57 -1,1.16 -1.49,1.74a0.09,0.09 0 0 1 -0.09,0l-40.7,0.01zm35.78,-3.4s-0.07,0 -0.08,0c-0.41,-0.66 -0.84,-1.3 -1.27,-1.9a0.09,0.09 0 0 1 0,-0.13a0.09,0.09 0 0 1 0.13,0s0,0 0,0c0.45,0.59 0.87,1.23 1.29,1.9a0.1,0.1 0 0 1 0,0.13a0.06,0.06 0 0 1 40.66,-3.04l-40.73,3.04zm-32.74,0l-0.06,0a0.1,0.1 0 0 1 0,-0.13l0,0c0.54,-0.55 1.1,-1.09 1.65,-1.6a0.12,0.12 0 0 1 0.14,0l0,0a0.1,0.1 0 0 1 0,0.13l0,0c-0.55,0.52 -1.11,1 -1.65,1.59a0.1,0.1 0 0 1 -0.09,0l0.01,0.01zm3.39,-3.1l-0.07,0a0.09,0.09 0 0 1 0,-0.13l0,0c0.6,-0.5 1.21,-1 1.82,-1.4a0.1,0.1 0 0 1 0.14,0.14c-0.61,0.43 -1.22,0.9 -1.82,1.39a0.08,0.08 0 0 1 -0.09,0l0.02,0zm26.63,-0.56a0.08,0.08 0 0 1 -0.07,0a20.26,20.26 0 0 0 -1.62,-1.59a0.1,0.1 0 0 1 0,-0.14l0,0a0.12,0.12 0 0 1 0.14,0a20.76,20.76 0 0 1 1.63,1.62a0.1,0.1 0 0 1 0,0.14l-0.05,0l-0.03,-0.03zm-22.88,-2.1a0.12,0.12 0 0 1 -0.09,-0.05a0.1,0.1 0 0 1 0,-0.13c0.67,-0.41 1.35,-0.77 2,-1.12a0.09,0.09 0 0 1 0.12,0l0,0a0.11,0.11 0 0 1 0,0.13c-0.66,0.33 -1.33,0.71 -2,1.12l-0.03,0.05zm19.39,-0.89l0,0a13,13 0 0 0 -1.71,-0.94l-0.29,-0.13a0.11,0.11 0 0 1 0,-0.13l0,0a0.09,0.09 0 0 1 0.12,0l0,0l0.29,0.12a16.27,16.27 0 0 1 1.74,1a0.12,0.12 0 0 1 0,0.14l-0.15,-0.06zm-15.34,-1.17a0.09,0.09 0 0 1 -0.06,-0.12a0.09,0.09 0 0 1 0.06,-0.06a20.6,20.6 0 0 1 2.18,-0.72a0.1,0.1 0 0 1 0.12,0.07a0.09,0.09 0 0 1 -0.07,0.11l0,0a20.42,20.42 0 0 0 -2.17,0.72l-0.06,0zm11.21,-0.69l0,0a16.4,16.4 0 0 0 -2.21,-0.48a0.1,0.1 0 0 1 -0.09,-0.1l0,0a0.09,0.09 0 0 1 0.11,-0.07l0,0a14.54,14.54 0 0 1 2.25,0.48a0.09,0.09 0 0 1 0.07,0.11a0.11,0.11 0 0 1 -0.13,0.07l0,-0.01zm-6.8,-0.48a0.11,0.11 0 0 1 -0.09,-0.08a0.09,0.09 0 0 1 0.07,-0.11l0,0a18.09,18.09 0 0 1 2.32,-0.16l0,0a0.09,0.09 0 0 1 0.1,0.09l0,0a0.09,0.09 0 0 1 -0.08,0.09l0,0a17.17,17.17 0 0 0 -2.26,0.16l-0.06,0.01z"/>
   <path id="svg_421" fill="#407BFF" d="m144,254.48l0,0a0.1,0.1 0 0 1 -0.09,-0.1c0.05,-0.61 0.09,-1.23 0.13,-1.86a0.1,0.1 0 0 1 0.2,0l0,0c-0.05,0.64 -0.09,1.26 -0.14,1.86a0.1,0.1 0 0 1 -0.1,0.1zm0.28,-4.14l0,0a0.09,0.09 0 0 1 -0.09,-0.09l0,0c0.05,-0.78 0.09,-1.51 0.13,-2.29a0.1,0.1 0 0 1 0.1,-0.09l0,0a0.1,0.1 0 0 1 0.09,0.1l0,0c0,0.78 -0.08,1.56 -0.13,2.28a0.1,0.1 0 0 1 -0.12,0.09l0.02,0zm0.24,-4.58l0,0a0.09,0.09 0 0 1 -0.08,-0.08l0,0c0,-0.78 0.06,-1.55 0.09,-2.29a0.09,0.09 0 0 1 0.09,-0.09l0,0a0.1,0.1 0 0 1 0.1,0.09l0,0c0,0.77 -0.07,1.55 -0.1,2.29a0.11,0.11 0 0 1 -0.12,0.08l0.02,0zm0.18,-4.57l0,0a0.1,0.1 0 0 1 -0.09,-0.1c0,-0.77 0,-1.55 0.06,-2.29a0.11,0.11 0 0 1 0.1,-0.09a0.09,0.09 0 0 1 0.09,0.09c0,0.78 0,1.56 -0.07,2.33a0.09,0.09 0 0 1 -0.11,0.06l0.02,0zm0.12,-4.58a0.11,0.11 0 0 1 -0.1,-0.09c0,-0.78 0,-1.56 0,-2.33a0.11,0.11 0 0 1 0.1,-0.09l0,0a0.1,0.1 0 0 1 0.1,0.1l0,0c0,0.77 0,1.55 0,2.29a0.08,0.08 0 0 1 -0.06,0.11l-0.04,0.01zm0.06,-4.58l0,0a0.09,0.09 0 0 1 -0.09,-0.09l0,0l0,-2.29a0.09,0.09 0 1 1 0.18,0l0,2.35a0.1,0.1 0 0 1 -0.09,0.06l0,-0.03zm0,-4.58a0.09,0.09 0 0 1 -0.09,-0.09l0,-2.29a0.1,0.1 0 0 1 0.09,-0.1l0,0a0.09,0.09 0 0 1 0.09,0.1l0,2.29a0.09,0.09 0 0 1 -0.11,0.09l0.02,0zm-0.07,-4.58a0.09,0.09 0 0 1 -0.09,-0.09c0,-0.78 0,-1.55 -0.07,-2.29a0.11,0.11 0 0 1 0.09,-0.1l0,0a0.09,0.09 0 0 1 0.09,0.09c0,0.78 0,1.55 0.06,2.29a0.09,0.09 0 0 1 -0.1,0.1l0,0l0.02,0zm-0.13,-4.58a0.1,0.1 0 0 1 -0.1,-0.09c0,-0.78 -0.07,-1.56 -0.1,-2.33a0.1,0.1 0 0 1 0.1,-0.1a0.09,0.09 0 0 1 0.09,0.09c0,0.78 0.07,1.55 0.1,2.33a0.11,0.11 0 0 1 -0.11,0.1l0.02,0zm-0.22,-4.59a0.09,0.09 0 0 1 -0.09,-0.09c0,-0.77 -0.09,-1.55 -0.14,-2.33a0.09,0.09 0 0 1 0.07,-0.12a0.09,0.09 0 0 1 0.12,0.07a0,0 0 0 1 0,0c0,0.78 0.09,1.56 0.13,2.29a0.08,0.08 0 0 1 -0.08,0.1l0,0l-0.01,0.08zm-0.29,-4.56a0.1,0.1 0 0 1 -0.1,-0.1c-0.05,-0.77 -0.11,-1.55 -0.18,-2.27a0.1,0.1 0 0 1 0.07,-0.1l0,0a0.08,0.08 0 0 1 0.1,0.08l0,0c0.06,0.78 0.12,1.52 0.18,2.28a0.08,0.08 0 0 1 -0.08,0.1l0.01,0.01zm-0.39,-4.56a0.12,0.12 0 0 1 -0.1,-0.09c-0.07,-0.76 -0.15,-1.52 -0.23,-2.28a0.08,0.08 0 0 1 0.07,-0.1l0,0a0.07,0.07 0 0 1 0.09,0.05a0,0 0 0 1 0,0c0.08,0.77 0.16,1.55 0.23,2.32a0.08,0.08 0 0 1 -0.08,0.1l0,0l0.02,0zm-0.49,-4.56a0.1,0.1 0 0 1 -0.1,-0.08c-0.09,-0.78 -0.19,-1.55 -0.29,-2.28a0.09,0.09 0 0 1 0.09,-0.09a0.1,0.1 0 0 1 0.1,0.09l0,0c0.1,0.78 0.2,1.56 0.29,2.28a0.08,0.08 0 0 1 -0.07,0.1l0,0l-0.02,-0.02zm-0.62,-4.54a0.09,0.09 0 0 1 -0.09,-0.08c-0.12,-0.78 -0.25,-1.55 -0.36,-2.27a0.08,0.08 0 0 1 0.07,-0.1l0,0a0.09,0.09 0 0 1 0.1,0.07c0.13,0.74 0.25,1.5 0.36,2.27a0.09,0.09 0 0 1 -0.07,0.11l0,0l-0.01,0zm-0.78,-4.52a0.09,0.09 0 0 1 -0.09,-0.08c-0.14,-0.77 -0.29,-1.51 -0.44,-2.24a0.09,0.09 0 0 1 0.07,-0.11a0.08,0.08 0 0 1 0.11,0.06l0,0c0.16,0.73 0.31,1.49 0.45,2.25a0.09,0.09 0 0 1 -0.07,0.11l0,0l-0.03,0.01zm-0.91,-4.49a0.1,0.1 0 0 1 -0.1,-0.08c-0.17,-0.77 -0.36,-1.5 -0.55,-2.21a0.1,0.1 0 0 1 0.07,-0.12a0.08,0.08 0 0 1 0.11,0.05l0,0c0.19,0.72 0.37,1.47 0.55,2.24a0.08,0.08 0 0 1 -0.07,0.1l0,0l-0.01,0.02zm-1.19,-4.45a0.1,0.1 0 0 1 -0.09,-0.07c-0.22,-0.74 -0.44,-1.47 -0.68,-2.18a0.11,0.11 0 0 1 0.07,-0.12l0,0a0.1,0.1 0 0 1 0.12,0.06c0.22,0.7 0.46,1.44 0.67,2.19a0.08,0.08 0 0 1 0,0.11l0,0l-0.09,0.01zm-39.69,0.86a0,0 0 0 1 -0.05,0a0.09,0.09 0 0 1 0,-0.13c0.42,-0.61 0.87,-1.24 1.35,-1.86a0.09,0.09 0 0 1 0.13,0l0,0a0.09,0.09 0 0 1 0,0.13l0,0c-0.47,0.62 -0.92,1.24 -1.34,1.85a0.1,0.1 0 0 1 -0.09,0l0,0.01zm80.28,2.85a0.09,0.09 0 0 1 -0.09,-0.06c-0.27,-0.74 -0.56,-1.45 -0.84,-2.12a0.09,0.09 0 0 1 0,-0.13l0,0a0.09,0.09 0 0 1 0.12,0l0,0c0.29,0.67 0.57,1.38 0.85,2.12a0.11,0.11 0 0 1 -0.05,0.13l0.01,0.06zm-36.63,-2.91l-0.06,0a0.1,0.1 0 0 1 0,-0.14c0.49,-0.59 1,-1.18 1.5,-1.74a0.09,0.09 0 0 1 0.13,0l0,0a0.09,0.09 0 0 1 0,0.12l0,0c-0.5,0.56 -1,1.14 -1.49,1.73a0.08,0.08 0 0 1 -0.08,0l0,0.03zm34.83,-1.3a0.08,0.08 0 0 1 -0.09,0c-0.35,-0.71 -0.71,-1.39 -1.08,-2a0.12,0.12 0 0 1 0,-0.14a0.1,0.1 0 0 1 0.13,0a22.94,22.94 0 0 1 1.09,2a0.09,0.09 0 0 1 0,0.12l0,0l-0.05,0.02zm-31.76,-2.1l-0.06,0a0.12,0.12 0 0 1 0,-0.14c0.55,-0.55 1.11,-1.08 1.66,-1.55a0.1,0.1 0 0 1 0.14,0a0.09,0.09 0 0 1 0,0.13l0,0c-0.55,0.5 -1.11,1 -1.65,1.55a0.15,0.15 0 0 1 -0.09,0l0,0.01zm29.43,-1.83a0.1,0.1 0 0 1 -0.08,0a22,22 0 0 0 -1.41,-1.78a0.09,0.09 0 0 1 0,-0.13l0,0a0.1,0.1 0 0 1 0.14,0a22.57,22.57 0 0 1 1.42,1.8a0.09,0.09 0 0 1 0,0.13l0,0a0.08,0.08 0 0 1 -0.07,0l0,-0.02zm-26,-1.24a0.12,0.12 0 0 1 -0.08,0a0.1,0.1 0 0 1 0,-0.13l0,0c0.61,-0.49 1.22,-1 1.83,-1.38a0.09,0.09 0 0 1 0.13,0l0,0a0.09,0.09 0 0 1 0,0.13l0,0c-0.6,0.43 -1.21,0.89 -1.82,1.37a0.09,0.09 0 0 1 -0.06,0.06l0,-0.05zm23,-2.16a0.06,0.06 0 0 1 -0.06,0a13.15,13.15 0 0 0 -1.84,-1.32a0.12,0.12 0 0 1 0,-0.14a0.11,0.11 0 0 1 0.13,0l0,0a13.79,13.79 0 0 1 1.86,1.35a0.09,0.09 0 0 1 0,0.13l0,0a0.1,0.1 0 0 1 -0.09,0l0,-0.02zm-61.25,-8.53a0.08,0.08 0 0 1 -0.08,-0.05a0.09,0.09 0 0 1 0,-0.13l0,0a20,20 0 0 1 2,-1.08a0.09,0.09 0 0 1 0.12,0.05l0,0a0.07,0.07 0 0 1 0,0.11l0,0c-0.67,0.32 -1.34,0.68 -2,1.07l-0.04,0.03zm76.59,6.66l0,0a16.49,16.49 0 0 0 -2.17,-0.67a0.09,0.09 0 0 1 -61.42,-8.65a0.1,0.1 0 0 1 0.11,-0.08a17,17 0 0 1 2.2,0.69a0.1,0.1 0 0 1 0,0.12a0.08,0.08 0 0 1 -0.08,0.06l61.36,8.53zm-11.2,-0.08a0.09,0.09 0 0 1 -0.09,-0.06a0.11,0.11 0 0 1 0.06,-0.13a18.55,18.55 0 0 1 2.21,-0.62a0.09,0.09 0 0 1 0.11,0.07l0,0a0.1,0.1 0 0 1 -0.07,0.12a18.24,18.24 0 0 0 -2.19,0.62l-0.03,0zm6.75,-0.94l0,0a14.34,14.34 0 0 0 -2.27,0c-0.05,0 -0.1,0 -0.11,-0.08a0.09,0.09 0 0 1 0.09,-0.1l0,0a18,18 0 0 1 2.32,0a0.13,0.13 0 0 1 0.1,0.11a0.11,0.11 0 0 1 -0.11,0.09l-0.02,-0.02z"/>
   <path id="svg_422" fill="#407BFF" d="m140.72,254l0,0s-0.08,0 -0.08,-0.08l0,0q0.11,-1.11 0.21,-2.28a0.08,0.08 0 0 1 0.1,-0.08l0,0a0.08,0.08 0 0 1 0.08,0.1l0,0c-0.07,0.77 -0.14,1.55 -0.21,2.28a0.09,0.09 0 0 1 -0.09,0.09l-0.01,-0.03zm0.42,-4.53l0,0a0.1,0.1 0 0 1 -0.09,-0.1l0,0c0.06,-0.77 0.12,-1.5 0.18,-2.28c0,-0.05 0.06,-0.08 0.1,-0.09a0.12,0.12 0 0 1 0.09,0.11c-0.06,0.77 -0.12,1.55 -0.17,2.28a0.1,0.1 0 0 1 -0.1,0.08l-0.01,0zm0.33,-4.56l0,0c-0.05,0 -0.08,0 -0.09,-0.09a0,0 0 0 0 0,0c0,-0.77 0.09,-1.51 0.13,-2.28a0.11,0.11 0 0 1 0.1,-0.09a0.1,0.1 0 0 1 0.09,0.1c0,0.78 -0.09,1.55 -0.14,2.29a0.1,0.1 0 0 1 -0.06,0.09l-0.03,-0.02zm0.26,-4.57l0,0a0.1,0.1 0 0 1 -0.1,-0.1l0,0c0,-0.78 0.08,-1.56 0.11,-2.33c0,-0.06 0,-0.09 0.1,-0.09s0.09,0 0.09,0.1l0,0c0,0.77 -0.06,1.55 -0.1,2.28a0.1,0.1 0 0 1 -0.07,0.13l0,0l-0.03,0.01zm0.2,-4.58l0,0a0.09,0.09 0 0 1 -0.09,-0.09l0,0c0,-0.78 0,-1.55 0.07,-2.29a0.11,0.11 0 0 1 0.1,-0.09l0,0a0.08,0.08 0 0 1 0.08,0.1l0,0c0,0.77 0,1.55 -0.07,2.29a0.09,0.09 0 0 1 -0.08,0.09l-0.01,-0.01zm0.13,-4.58l0,0a0.09,0.09 0 0 1 -0.09,-0.1c0,-0.77 0,-1.55 0,-2.28a0.1,0.1 0 0 1 0.1,-0.1l0,0a0.09,0.09 0 0 1 0.09,0.1l0,2.32a0.09,0.09 0 0 1 -0.12,0.06l0.02,0zm0.06,-4.58l0,0a0.09,0.09 0 0 1 -0.09,-0.09l0,-2.31a0.09,0.09 0 0 1 0.09,-0.09l0,0a0.09,0.09 0 0 1 0.09,0.09l0,2.29a0.08,0.08 0 0 1 -0.08,0.09l-0.01,0.02zm0,-4.58a0.11,0.11 0 0 1 -0.1,-0.09l0,-2.33a0.11,0.11 0 0 1 0.09,-0.1l0,0a0.12,0.12 0 0 1 0.1,0.1l0,2.32a0.09,0.09 0 0 1 -0.1,0.08l0.01,0.02zm-0.07,-4.59a0.09,0.09 0 0 1 -0.1,-0.09c0,-0.78 0,-1.55 -0.06,-2.29a0.09,0.09 0 0 1 0.09,-0.1l0,0a0.1,0.1 0 0 1 0.1,0.09c0,0.78 0,1.55 0.07,2.29a0.1,0.1 0 0 1 -0.09,0.1l-0.01,0zm-0.15,-4.58a0.09,0.09 0 0 1 -0.09,-0.09c0,-0.77 -0.07,-1.55 -0.11,-2.32c0,-0.05 0,-0.1 0.07,-0.1l0,0a0.1,0.1 0 0 1 0.1,0.09l0,0c0,0.77 0.08,1.55 0.11,2.32a0.09,0.09 0 0 1 -0.09,0.1l0.01,0zm-0.23,-4.57a0.11,0.11 0 0 1 -0.1,-0.09c0,-0.77 -0.09,-1.55 -0.15,-2.28a0.11,0.11 0 0 1 0.09,-0.11a0.1,0.1 0 0 1 0.1,0.09l0,0c0.06,0.77 0.11,1.55 0.16,2.28a0.11,0.11 0 0 1 -0.09,0.1l-0.01,0.01zm-0.33,-4.57a0.09,0.09 0 0 1 -0.09,-0.08c-0.07,-0.78 -0.14,-1.56 -0.21,-2.28a0.1,0.1 0 0 1 0.08,-0.11a0.11,0.11 0 0 1 0.11,0.09c0.07,0.78 0.14,1.55 0.2,2.28a0.08,0.08 0 0 1 -0.07,0.1l0,0l-0.02,0zm-0.44,-4.56a0.11,0.11 0 0 1 -0.1,-0.09c-0.08,-0.77 -0.17,-1.55 -0.26,-2.27a0.09,0.09 0 0 1 0.09,-0.09a0.1,0.1 0 0 1 0.1,0.09l0,0c0.09,0.78 0.18,1.51 0.26,2.28a0.08,0.08 0 0 1 -0.08,0.1l-0.01,-0.02zm-0.57,-4.55s-0.08,0 -0.09,-0.07c-0.11,-0.78 -0.23,-1.55 -0.34,-2.27a0.09,0.09 0 0 1 0.07,-0.11l0,0a0.09,0.09 0 0 1 0.11,0.08l0,0c0.13,0.78 0.24,1.51 0.34,2.27a0.08,0.08 0 0 1 -0.07,0.1l0,0l-0.02,0zm-0.72,-4.52a0.08,0.08 0 0 1 -0.09,-0.07c-0.14,-0.78 -0.28,-1.56 -0.44,-2.25a0.1,0.1 0 0 1 0.2,-0.06l0,0.06c0.14,0.72 0.28,1.48 0.42,2.25a0.09,0.09 0 0 1 -0.07,0.11l-0.02,-0.04zm-0.92,-4.49a0.09,0.09 0 0 1 -0.09,-0.08c-0.17,-0.77 -0.36,-1.49 -0.54,-2.21a0.1,0.1 0 0 1 0.07,-0.12a0.08,0.08 0 0 1 0.11,0l0,0c0.19,0.72 0.38,1.47 0.55,2.23a0.1,0.1 0 0 1 -0.07,0.11l0,0l-0.03,0.07zm-1.15,-4.44a0.08,0.08 0 0 1 -0.09,-0.06c-0.22,-0.77 -0.45,-1.48 -0.69,-2.18a0.09,0.09 0 1 1 0.18,-0.06c0.23,0.7 0.47,1.44 0.69,2.19a0.08,0.08 0 0 1 -0.06,0.11l0,0l-0.03,0zm-37.91,-1.64l-0.06,0a0.11,0.11 0 0 1 0,-0.13c0.47,-0.64 0.93,-1.23 1.39,-1.83a0.09,0.09 0 0 1 0.13,0l0,0a0.09,0.09 0 0 1 0,0.13l0,0c-0.46,0.58 -0.91,1.18 -1.38,1.82l-0.08,0.01zm36.45,-2.71a0.1,0.1 0 0 1 -0.09,-0.07q-0.43,-1.1 -0.9,-2.1a0.1,0.1 0 0 1 0.08,-0.11a0.12,0.12 0 0 1 0.1,0c0.31,0.67 0.61,1.38 0.9,2.11a0.12,0.12 0 0 1 -0.06,0.13l-0.03,0.04zm-33.64,-0.9l-0.06,0a0.12,0.12 0 0 1 0,-0.14c0.5,-0.59 1,-1.17 1.51,-1.72a0.09,0.09 0 0 1 0.13,0a0.1,0.1 0 0 1 0,0.14l0,0c-0.5,0.55 -1,1.13 -1.5,1.72a0.09,0.09 0 0 1 -0.08,0zm31.7,-3.25a0.14,0.14 0 0 1 -0.08,0a21.33,21.33 0 0 0 -1.2,-1.94a0.11,0.11 0 0 1 0,-0.13l0,0a0.1,0.1 0 0 1 0.14,0c0.41,0.6 0.82,1.26 1.2,2a0.1,0.1 0 0 1 0,0.13a0.07,0.07 0 0 1 0,0.07l-0.06,-0.13zm-28.6,-0.12a0.08,0.08 0 0 1 -0.07,0a0.1,0.1 0 0 1 0,-0.14c0.55,-0.55 1.11,-1.08 1.66,-1.55a0.12,0.12 0 0 1 0.14,0a0.11,0.11 0 0 1 0,0.13l0,0c-0.56,0.5 -1.11,1 -1.66,1.55l-0.07,0.01zm3.4,-3.1l-0.08,0a0.12,0.12 0 0 1 0,-0.14c0.62,-0.48 1.24,-1 1.85,-1.37a0.09,0.09 0 0 1 0.13,0a0.09,0.09 0 0 1 0,0.13l0,0c-0.61,0.42 -1.23,0.87 -1.84,1.36l-0.06,0.02zm22.61,-0.56a0.09,0.09 0 0 1 -0.07,0a14,14 0 0 0 -1.63,-1.55a0.1,0.1 0 0 1 0,-0.13l0,0a0.1,0.1 0 0 1 0.14,0a13.84,13.84 0 0 1 1.65,1.6a0.1,0.1 0 0 1 0,0.13l0,0a0.08,0.08 0 0 1 -0.09,0l0,-0.05zm-18.83,-2a0.12,0.12 0 0 1 -0.08,0a0.1,0.1 0 0 1 0,-0.14l0,0a22,22 0 0 1 2.06,-1a0.09,0.09 0 0 1 0.12,0a0.09,0.09 0 0 1 -0.05,0.12l0,0c-0.67,0.31 -1.36,0.65 -2,1l-0.05,0.02zm15.23,-0.85l0,0c-0.15,-0.09 -0.31,-0.16 -0.45,-0.23a16.51,16.51 0 0 0 -1.64,-0.66a0.09,0.09 0 0 1 -0.07,-0.11l0,0a0.09,0.09 0 0 1 0.12,-0.06l0,0a16.69,16.69 0 0 1 1.65,0.66l0.47,0.24a0.11,0.11 0 0 1 0,0.13a0.09,0.09 0 0 1 -0.08,0.09l0,0l0,-0.06zm-26.34,-0.15a0.09,0.09 0 0 1 -0.09,-0.09a0.09,0.09 0 0 1 0.09,-0.1l0,0a15.87,15.87 0 0 1 2.25,-0.5a0.09,0.09 0 0 1 0.1,0.08a0.08,0.08 0 0 1 -0.07,0.1l0,0a15.47,15.47 0 0 0 -2.22,0.5l-0.06,0.01zm6.79,-0.47l0,0a13.19,13.19 0 0 0 -2.26,-0.2a0.1,0.1 0 0 1 -0.1,-0.09l0,0a0.1,0.1 0 0 1 0.1,-0.09l0,0a13.89,13.89 0 0 1 2.32,0.2a0.1,0.1 0 0 1 0.08,0.11l0,0a0.11,0.11 0 0 1 -0.17,0.13l0,0l0.03,-0.06z"/>
   <path id="svg_423" fill="#407BFF" d="m137.13,257.1l0,0a0.08,0.08 0 0 1 -0.08,-0.1l0,0c0.08,-0.57 0.17,-1.16 0.25,-1.77a0.08,0.08 0 0 1 0.1,-0.08l0,0a0.09,0.09 0 0 1 0.07,0.11l0,0c-0.07,0.61 -0.16,1.2 -0.24,1.77a0.1,0.1 0 0 1 -0.1,0.07zm0.54,-4.05l0,0a0.1,0.1 0 0 1 -0.09,-0.1l0,0c0.09,-0.73 0.18,-1.5 0.27,-2.28a0.09,0.09 0 0 1 0.1,-0.08a0.08,0.08 0 0 1 0.08,0.1l0,0c-0.08,0.79 -0.16,1.55 -0.25,2.29a0.1,0.1 0 0 1 -0.11,0.07zm0.5,-4.55l0,0a0.09,0.09 0 0 1 -0.09,-0.1l0,0c0.08,-0.78 0.15,-1.51 0.22,-2.28a0.1,0.1 0 0 1 0.1,-0.09l0,0a0.09,0.09 0 0 1 0.08,0.09l0,0c-0.07,0.78 -0.14,1.56 -0.21,2.28a0.09,0.09 0 0 1 -0.06,0.11l0,0l-0.04,-0.01zm0.41,-4.56l0,0a0.1,0.1 0 0 1 -0.09,-0.1l0,0c0.06,-0.78 0.13,-1.51 0.18,-2.29a0.1,0.1 0 0 1 0.19,0l0,0l-0.18,2.32a0.09,0.09 0 0 1 -0.1,0.07zm0.34,-4.57l0,0a0.09,0.09 0 0 1 -0.09,-0.08l0,0c0,-0.78 0.1,-1.51 0.14,-2.29a0.09,0.09 0 0 1 0.1,-0.08l0,0a0.1,0.1 0 0 1 0.1,0.09l0,0c0,0.77 -0.1,1.55 -0.15,2.29a0.1,0.1 0 0 1 -0.1,0.08l0,-0.01zm0.27,-4.57l0,0a0.11,0.11 0 0 1 -0.09,-0.1l0.11,-2.29a0.09,0.09 0 0 1 0.1,-0.09a0.09,0.09 0 0 1 0.09,0.09l0,0c0,0.78 -0.07,1.55 -0.11,2.29a0.1,0.1 0 0 1 -0.11,0.09l0,0l0.01,0.01zm0.2,-4.57l0,0a0.09,0.09 0 0 1 -0.08,-0.1l0,0c0,-0.77 0.05,-1.55 0.07,-2.28a0.11,0.11 0 0 1 0.1,-0.1a0.09,0.09 0 0 1 0.09,0.1l0,0c0,0.78 0,1.56 -0.08,2.33a0.11,0.11 0 0 1 -0.1,0.06l0,-0.01zm0.13,-4.59l0,0a0.09,0.09 0 0 1 -0.09,-0.09l0,-2.29a0.08,0.08 0 0 1 0.08,-0.1l0,0a0.1,0.1 0 0 1 0.09,0.1c0,0.78 0,1.55 0,2.29a0.09,0.09 0 0 1 -0.09,0.09l0.01,0zm0.07,-4.57l0,0a0.11,0.11 0 0 1 -0.09,-0.11l0,-2.28a0.09,0.09 0 0 1 0.09,-0.1l0,0a0.1,0.1 0 0 1 0.1,0.1l0,2.32a0.12,0.12 0 0 1 -0.1,0.07zm0,-4.59a0.09,0.09 0 0 1 -0.09,-0.09l0,-2.29a0.08,0.08 0 0 1 0.08,-0.1l0,0a0.09,0.09 0 0 1 0.1,0.09l0,2.33a0.09,0.09 0 0 1 -0.09,0.09l0,-0.03zm-0.08,-4.58a0.11,0.11 0 0 1 -0.1,-0.09l-0.07,-2.29a0.11,0.11 0 0 1 0.09,-0.1l0,0a0.1,0.1 0 0 1 0.1,0.09l0,0c0,0.77 0.05,1.55 0.08,2.28a0.09,0.09 0 0 1 -0.1,0.1l0,0.01zm-0.17,-4.57a0.09,0.09 0 0 1 -0.1,-0.09c0,-0.78 -0.07,-1.56 -0.12,-2.33a0.1,0.1 0 0 1 0.09,-0.1l0,0a0.09,0.09 0 0 1 0.1,0.09c0,0.78 0.09,1.55 0.12,2.29a0.09,0.09 0 0 1 -0.09,0.1l0,0l0,0.04zm-0.28,-4.58a0.09,0.09 0 0 1 -0.09,-0.08c-0.05,-0.78 -0.11,-1.55 -0.18,-2.28a0.1,0.1 0 0 1 0.08,-0.11l0,0a0.08,0.08 0 0 1 0.1,0.08l0,0l0.18,2.33a0.08,0.08 0 0 1 -0.07,0.1l0,0l-0.02,-0.04zm-0.38,-4.56a0.11,0.11 0 0 1 -0.1,-0.08c-0.07,-0.78 -0.16,-1.56 -0.24,-2.28a0.09,0.09 0 0 1 0.08,-0.11a0.1,0.1 0 0 1 0.11,0.08c0.09,0.78 0.16,1.51 0.24,2.28a0.1,0.1 0 0 1 -0.08,0.11l-0.01,0zm-0.53,-4.55a0.09,0.09 0 0 1 -0.09,-0.09c-0.1,-0.77 -0.21,-1.55 -0.32,-2.26a0.09,0.09 0 0 1 0.07,-0.11l0,0a0.09,0.09 0 0 1 0.1,0.08c0.11,0.77 0.22,1.5 0.33,2.27a0.1,0.1 0 0 1 -0.08,0.11l-0.01,0zm-0.69,-4.53a0.08,0.08 0 0 1 -0.09,-0.08c-0.14,-0.77 -0.28,-1.55 -0.42,-2.25a0.09,0.09 0 0 1 0.07,-0.11a0.09,0.09 0 0 1 0.11,0.07l0,0c0.15,0.73 0.29,1.49 0.42,2.25a0.09,0.09 0 0 1 -0.06,0.12l0,0l-0.03,0zm-0.9,-4.49a0.1,0.1 0 0 1 -0.09,-0.08c-0.17,-0.78 -0.36,-1.5 -0.55,-2.22a0.09,0.09 0 0 1 0.07,-0.11a0.08,0.08 0 0 1 0.11,0.06l0,0c0.2,0.7 0.37,1.45 0.55,2.22c0,0.05 0,0.09 -0.06,0.11l0,0l-0.03,0.02zm-36.22,-4.06l-0.08,-0.05l-0.07,-0.07c0.42,-0.53 0.89,-1.14 1.42,-1.78a0.09,0.09 0 0 1 0.13,0a0.09,0.09 0 0 1 0,0.13l-1.4,1.77zm35,-0.37a0.1,0.1 0 0 1 -0.09,-0.06c-0.24,-0.78 -0.48,-1.48 -0.72,-2.18a0.1,0.1 0 0 1 0.05,-0.12a0.1,0.1 0 0 1 0.12,0l0,0c0.25,0.69 0.5,1.42 0.73,2.17a0.1,0.1 0 0 1 -0.06,0.13l-0.03,0.06zm-32.24,-3.14l-0.07,0a0.1,0.1 0 0 1 0,-0.13l0,0c0.52,-0.6 1,-1.18 1.56,-1.73a0.1,0.1 0 0 1 0.14,0.13c-0.5,0.54 -1,1.12 -1.52,1.72a0.1,0.1 0 0 1 -0.12,0l0.01,0.01zm30.67,-1.16a0.08,0.08 0 0 1 -0.08,-0.06c-0.32,-0.72 -0.65,-1.42 -1,-2.06a0.11,0.11 0 0 1 0,-0.13a0.1,0.1 0 0 1 0.13,0c0.35,0.65 0.67,1.34 1,2.07a0.11,0.11 0 0 1 -0.05,0.14l0,0.04zm-27.57,-2.22a0.09,0.09 0 0 1 -0.07,0a0.08,0.08 0 0 1 0,-0.12l0,0c0.56,-0.56 1.12,-1.09 1.67,-1.55a0.09,0.09 0 0 1 0.13,0l0,0a0.08,0.08 0 0 1 0,0.12l0,0c-0.54,0.49 -1.1,1 -1.65,1.55a0.07,0.07 0 0 1 -0.09,0l0.01,0zm25.43,-1.82a0.1,0.1 0 0 1 -0.09,0a17.29,17.29 0 0 0 -1.34,-1.85a0.09,0.09 0 0 1 0,-0.13l0,0a0.12,0.12 0 0 1 0.14,0a19.24,19.24 0 0 1 1.4,1.83a0.1,0.1 0 0 1 0,0.13l0,0s-0.05,0 -0.08,0l0,0l-0.03,0.02zm-22,-1.23l-0.08,0a0.12,0.12 0 0 1 0,-0.14c0.64,-0.49 1.26,-0.94 1.87,-1.35a0.1,0.1 0 0 1 0.13,0.06a0.12,0.12 0 0 1 0,0.1c-0.61,0.4 -1.23,0.85 -1.85,1.34l-0.07,-0.01zm19,-2.14l-0.07,0a9.52,9.52 0 0 0 -1.72,-1.07l-0.21,-0.09a0.1,0.1 0 0 1 0,-0.13a0.09,0.09 0 0 1 0.12,-0.05l0,0l0.2,0.1a9,9 0 0 1 1.77,1.09a0.09,0.09 0 0 1 0,0.13l0,0l-0.06,0l-0.03,0.02zm-15.15,-0.39a0.11,0.11 0 0 1 -0.09,-0.05a0.11,0.11 0 0 1 0,-0.13a19.81,19.81 0 0 1 2.09,-1a0.09,0.09 0 0 1 0.12,0.05l0,0a0.1,0.1 0 0 1 0,0.12a18.41,18.41 0 0 0 -2.06,1l-0.06,0.01zm11,-1.55l0,0a14.13,14.13 0 0 0 -2.23,-0.42a0.09,0.09 0 0 1 -0.09,-0.09l0,0a0.11,0.11 0 0 1 0.1,-0.09l0,0a13.45,13.45 0 0 1 2.26,0.43a0.09,0.09 0 0 1 0.08,0.09a0,0 0 0 0 0,0a0.1,0.1 0 0 1 -0.12,0l0,0.08zm-6.79,-0.09a0.09,0.09 0 0 1 -0.09,-0.08a0.1,0.1 0 0 1 0.07,-0.11l0,0a14.62,14.62 0 0 1 2.28,-0.36a0.1,0.1 0 1 1 0,0.19l0,0a15.56,15.56 0 0 0 -2.24,0.35l-0.02,0.01z"/>
   <path id="svg_424" fill="#407BFF" d="m134.05,256.56l0,0a0.11,0.11 0 0 1 -0.07,-0.12c0.12,-0.71 0.24,-1.47 0.37,-2.25a0.09,0.09 0 0 1 0.11,-0.08l0,0a0.1,0.1 0 0 1 0.08,0.1l0,0c-0.13,0.77 -0.25,1.55 -0.37,2.25a0.1,0.1 0 0 1 -0.11,0.09l-0.01,0.01zm0.7,-4.54l0,0a0.08,0.08 0 0 1 -0.08,-0.1l0,0c0.1,-0.74 0.2,-1.49 0.3,-2.27a0.1,0.1 0 0 1 0.11,-0.08l0,0a0.12,0.12 0 0 1 0.09,0.11c-0.11,0.77 -0.21,1.55 -0.31,2.26c-0.01,0.06 -0.06,0.06 -0.12,0.06l0.01,0.02zm0.59,-4.55l0,0a0.09,0.09 0 0 1 -0.09,-0.1l0,0c0.09,-0.74 0.17,-1.5 0.26,-2.28a0.08,0.08 0 0 1 0.08,-0.08l0,0a0.08,0.08 0 0 1 0.08,0.1l0,0c-0.08,0.77 -0.17,1.55 -0.25,2.27a0.12,0.12 0 0 1 -0.11,0.09l0,0l0.03,0zm0.48,-4.55l0,0a0.09,0.09 0 0 1 -0.08,-0.1l0,0c0.07,-0.78 0.15,-1.55 0.22,-2.28a0.09,0.09 0 0 1 0.18,0l0,0c-0.07,0.78 -0.14,1.55 -0.21,2.28a0.1,0.1 0 0 1 -0.09,0.1l-0.02,0zm0.42,-4.56l0,0a0.09,0.09 0 0 1 -0.09,-0.1l0,0l0.18,-2.28a0.09,0.09 0 0 1 0.09,-0.09a0.11,0.11 0 0 1 0.1,0.09c-0.06,0.78 -0.12,1.55 -0.18,2.28a0.1,0.1 0 0 1 -0.08,0.11l-0.02,-0.01zm0.34,-4.57l0,0a0.1,0.1 0 0 1 -0.09,-0.1l0,0l0.14,-2.29a0.1,0.1 0 0 1 0.1,-0.08a0.1,0.1 0 0 1 0.1,0.09l0,0c0,0.77 -0.1,1.55 -0.15,2.28a0.1,0.1 0 0 1 -0.1,0.08l0,0.02zm0.27,-4.58l0,0a0.09,0.09 0 0 1 -0.09,-0.1l0,0c0,-0.77 0.08,-1.55 0.11,-2.28a0.11,0.11 0 0 1 0.1,-0.09l0,0a0.09,0.09 0 0 1 0.09,0.09l0,0l-0.12,2.29a0.08,0.08 0 0 1 -0.08,0.08l0,0l-0.01,0.01zm0.2,-4.57l0,0a0.09,0.09 0 0 1 -0.09,-0.09l0,0c0,-0.78 0.05,-1.55 0.07,-2.29a0.1,0.1 0 0 1 0.1,-0.09a0.09,0.09 0 0 1 0.09,0.09l0,0l-0.07,2.32a0.11,0.11 0 0 1 -0.1,0.06zm0.13,-4.59l0,0a0.09,0.09 0 0 1 -0.09,-0.09c0,-0.77 0,-1.55 0,-2.33c0,-0.05 0,-0.08 0.09,-0.09l0,0a0.1,0.1 0 0 1 0.1,0.1l0,0c0,0.78 0,1.55 0,2.29a0.09,0.09 0 0 1 -0.05,0.12l-0.05,0zm0.06,-4.57l0,0a0.11,0.11 0 0 1 -0.1,-0.1l0,0l0,-2.28a0.1,0.1 0 0 1 0.1,-0.09l0,0a0.09,0.09 0 0 1 0.1,0.08l0,0l0,2.33a0.12,0.12 0 0 1 -0.1,0.06zm0,-4.58a0.1,0.1 0 0 1 -0.09,-0.1c0,-0.76 0,-1.52 0,-2.28a0.1,0.1 0 0 1 0.09,-0.1l0,0a0.1,0.1 0 0 1 0.1,0.08l0,0l0.05,2.29a0.13,0.13 0 0 1 -0.1,0.1l-0.05,0.01zm-0.1,-4.57a0.13,0.13 0 0 1 -0.11,-0.1c0,-0.77 -0.05,-1.55 -0.09,-2.32a0.09,0.09 0 0 1 0.09,-0.1l0,0a0.1,0.1 0 0 1 0.1,0.1c0,0.77 0.07,1.55 0.1,2.29a0.11,0.11 0 0 1 -0.09,0.1l0,0.03zm-0.23,-4.58a0.09,0.09 0 0 1 -0.09,-0.09c-0.05,-0.78 -0.1,-1.55 -0.16,-2.28a0.11,0.11 0 0 1 0.1,-0.11a0.11,0.11 0 0 1 0.1,0.09c0.05,0.78 0.11,1.55 0.15,2.33a0.11,0.11 0 0 1 -0.09,0.1l-0.01,-0.04zm-0.34,-4.57a0.09,0.09 0 0 1 -0.09,-0.09c-0.07,-0.78 -0.14,-1.55 -0.23,-2.27a0.11,0.11 0 0 1 0.09,-0.11a0.08,0.08 0 0 1 0.1,0.07l0,0c0.07,0.78 0.15,1.51 0.22,2.28a0.11,0.11 0 0 1 -0.09,0.11l0,0.01zm-0.48,-4.56a0.08,0.08 0 0 1 -0.09,-0.08l0,0c-0.11,-0.77 -0.21,-1.55 -0.31,-2.27a0.09,0.09 0 0 1 0.07,-0.11l0,0a0.1,0.1 0 0 1 0.11,0.08l0,0c0.11,0.77 0.21,1.49 0.31,2.26a0.09,0.09 0 0 1 -0.07,0.11l0,0l-0.02,0.01zm-0.67,-4.53a0.1,0.1 0 0 1 -0.1,-0.08c-0.13,-0.77 -0.27,-1.55 -0.41,-2.25a0.09,0.09 0 0 1 0.09,-0.09a0.1,0.1 0 0 1 0.1,0.09l0,0c0.14,0.72 0.28,1.48 0.41,2.26a0.09,0.09 0 0 1 -0.07,0.11l-0.02,-0.04zm-0.91,-4.49a0.1,0.1 0 0 1 -0.09,-0.07c-0.18,-0.78 -0.37,-1.51 -0.57,-2.22a0.11,0.11 0 0 1 0.07,-0.12l0,0a0.11,0.11 0 0 1 0.12,0.07c0.19,0.71 0.39,1.46 0.57,2.22a0.11,0.11 0 0 1 -0.07,0.12l-0.03,0zm-33.58,-1.91a0.06,0.06 0 0 1 -0.06,0a0.1,0.1 0 0 1 0,-0.14l1.08,-1.29l0.38,-0.46a0.1,0.1 0 0 1 0.14,0a0.09,0.09 0 0 1 0,0.13l0,0l-0.38,0.46c-0.39,0.47 -0.77,0.91 -1.08,1.3a0.11,0.11 0 0 1 -0.11,0l0.03,0zm32.35,-2.5a0.1,0.1 0 0 1 -0.09,-0.07c-0.25,-0.77 -0.51,-1.47 -0.78,-2.14a0.1,0.1 0 0 1 0.06,-0.12a0.1,0.1 0 0 1 0.12,0l0,0c0.27,0.67 0.54,1.4 0.78,2.15a0.12,0.12 0 0 1 -0.07,0.13l-0.02,0.05zm-29.41,-1l-0.06,0a0.1,0.1 0 0 1 0,-0.14c0.53,-0.62 1,-1.18 1.55,-1.72a0.1,0.1 0 0 1 0.17,0.11l0,0c-0.49,0.52 -1,1.08 -1.56,1.7a0.09,0.09 0 0 1 -0.11,0l0.01,0.05zm27.69,-3.14a0.11,0.11 0 0 1 -0.09,-0.05a19.42,19.42 0 0 0 -1.13,-2a0.1,0.1 0 0 1 0,-0.13a0.09,0.09 0 0 1 0.13,0a19.65,19.65 0 0 1 1.14,2a0.09,0.09 0 0 1 0,0.13l-0.05,0.05zm-52.3,3.02l-0.07,0a0.1,0.1 0 0 1 0,-0.14c0.56,-0.56 1.11,-1.09 1.67,-1.55a0.09,0.09 0 0 1 0.13,0a0.11,0.11 0 0 1 0,0.14l0,0c-0.54,0.48 -1.1,1 -1.66,1.55l-0.07,0zm3.42,-3a0.12,0.12 0 0 1 -0.08,0a0.09,0.09 0 0 1 0,-0.13l0,0c0.63,-0.49 1.26,-0.94 1.88,-1.34a0.1,0.1 0 0 1 0.13,0a0.09,0.09 0 0 1 0,0.13l0,0c-0.61,0.4 -1.24,0.84 -1.86,1.32l0,0l-0.07,0.02zm18.61,-0.62l-0.07,0a9.66,9.66 0 0 0 -1.69,-1.5a0.11,0.11 0 0 1 0,-0.13a0.1,0.1 0 0 1 0.14,0a10.13,10.13 0 0 1 1.72,1.55a0.1,0.1 0 0 1 0,0.13l0,0a0.07,0.07 0 0 1 -0.07,-0.07l0,0l-0.03,0.02zm-14.78,-1.85a0.11,0.11 0 0 1 -0.09,-0.05a0.11,0.11 0 0 1 0,-0.13a15.21,15.21 0 0 1 2.13,-0.89a0.08,0.08 0 0 1 0.11,0l0,0a0.11,0.11 0 0 1 -0.06,0.13a16.07,16.07 0 0 0 -2.1,0.88l0.01,0.06zm11.06,-0.71l0,0a12.63,12.63 0 0 0 25.43,-3.89a0.1,0.1 0 0 1 -0.08,-0.11a0.11,0.11 0 0 1 0.12,-0.07a12.11,12.11 0 0 1 2.2,0.66a0.09,0.09 0 0 1 0,0.18l0,0l-27.67,3.23zm-6.74,-0.74a0.08,0.08 0 0 1 -0.09,-0.08a0.09,0.09 0 0 1 0.07,-0.11a12.2,12.2 0 0 1 2.09,-0.18l0.21,0a0.1,0.1 0 0 1 0.09,0.1a0.09,0.09 0 0 1 -0.09,0.09l-0.21,0a11.66,11.66 0 0 0 -2.05,0.18l-0.02,0z"/>
  </g>
 </g>
</svg>