<svg xmlns="http://www.w3.org/2000/svg" version="1.1" xmlns:xlink="http://www.w3.org/1999/xlink" xmlns:svgjs="http://svgjs.com/svgjs" width="512" height="512" x="0" y="0" viewBox="0 0 512 512" style="enable-background:new 0 0 512 512" xml:space="preserve"><g><circle xmlns="http://www.w3.org/2000/svg" cx="256" cy="256" fill="#ffd053" r="177.5" transform="matrix(.707 -.707 .707 .707 -106.039 256)" data-original="#ffd053" style=""/><path xmlns="http://www.w3.org/2000/svg" d="m348.866 104.5a177.526 177.526 0 0 1 -242.44 246.9 177.514 177.514 0 1 0 242.44-246.9z" fill="#ffc448" data-original="#ffc448" style=""/><path xmlns="http://www.w3.org/2000/svg" d="m102.625 274.726a164.8 164.8 0 0 1 295.432-100.459 164.81 164.81 0 1 0 -273.535 182.6 164.044 164.044 0 0 1 -21.897-82.141z" fill="#ffd77a" data-original="#ffd77a" style=""/><path xmlns="http://www.w3.org/2000/svg" d="m323.118 278.586c1.856-.212 2.919 2.08 2.9 3.8a54.117 54.117 0 0 1 -6.252 23.945 66.968 66.968 0 0 1 -15.98 19.772 76.03 76.03 0 0 1 -47.778 17.325 72.265 72.265 0 0 1 -48.1-17.226c-13.47-11.523-21.674-27.889-21.93-43.765-.029-1.815 1.195-4.157 3.217-3.795 1.668.3 3.029 2.564 4.254 3.584 1.893 1.575 3.856 3.067 5.869 4.487a118.736 118.736 0 0 0 12.57 7.687c15.986 8.527 34.115 13.136 52.276 11.551a90.123 90.123 0 0 0 33.1-9.76 115.807 115.807 0 0 0 17.575-11.191c2.093-1.6 5.533-5.9 8.114-6.393.056-.007.11-.015.165-.021z" fill="#654735" data-original="#654735" style=""/><path xmlns="http://www.w3.org/2000/svg" d="m201.6 224.235c0 12.175-5.856 22.044-13.079 22.044s-13.078-9.869-13.078-22.044 5.855-22.045 13.078-22.045 13.079 9.87 13.079 22.045z" fill="#2c2c2c" data-original="#2c2c2c" style=""/><path xmlns="http://www.w3.org/2000/svg" d="m347.376 231.552a32.885 32.885 0 0 0 -60.814-.606 5.287 5.287 0 0 0 8.546 5.851c9.847-9.55 25.416-17.215 43.67.517a5.288 5.288 0 0 0 8.6-5.762z" fill="#2c2c2c" data-original="#2c2c2c" style=""/><path xmlns="http://www.w3.org/2000/svg" d="m371.169 120.029c-8.754 42.521-42.076 52.525-42.076 52.525s33.322 10 42.076 52.526c8.754-42.521 42.076-52.526 42.076-52.526s-33.322-10.004-42.076-52.525z" fill="#ffffff" data-original="#ffffff" style=""/><path xmlns="http://www.w3.org/2000/svg" d="m371.169 120.029c-8.754 42.52-42.076 52.525-42.076 52.525s44.723 6.546 42.076-52.525z" fill="#f0f1f1" data-original="#f0f1f1" style=""/></g></svg>