<svg xmlns="http://www.w3.org/2000/svg" version="1.1" xmlns:xlink="http://www.w3.org/1999/xlink" xmlns:svgjs="http://svgjs.com/svgjs" width="512" height="512" x="0" y="0" viewBox="0 0 512 512" style="enable-background:new 0 0 512 512" xml:space="preserve"><g><circle xmlns="http://www.w3.org/2000/svg" cx="256" cy="256" fill="#ffd053" r="177.5" transform="matrix(.707 -.707 .707 .707 -106.039 256)" data-original="#ffd053" style=""/><path xmlns="http://www.w3.org/2000/svg" d="m348.866 104.5a177.526 177.526 0 0 1 -242.44 246.9 177.514 177.514 0 1 0 242.44-246.9z" fill="#ffc448" data-original="#ffc448" style=""/><path xmlns="http://www.w3.org/2000/svg" d="m102.625 274.726a164.8 164.8 0 0 1 295.432-100.459 164.81 164.81 0 1 0 -273.535 182.6 164.044 164.044 0 0 1 -21.897-82.141z" fill="#ffd77a" data-original="#ffd77a" style=""/><circle xmlns="http://www.w3.org/2000/svg" cx="176.301" cy="223.598" fill="#ffffff" r="40.694" transform="matrix(.16 -.987 .987 .16 -72.65 361.806)" data-original="#ffffff" style=""/><path xmlns="http://www.w3.org/2000/svg" d="m204.838 194.607a40.561 40.561 0 0 0 -49.094-6.086 10.088 10.088 0 0 0 -2.2 5.262c-.795 8.489 10.159 16.457 24.468 17.8s26.553-4.453 27.348-12.942a9.661 9.661 0 0 0 -.522-4.034z" fill="#2c2c2c" data-original="#2c2c2c" style=""/><circle xmlns="http://www.w3.org/2000/svg" cx="335.699" cy="223.598" fill="#ffffff" r="40.694" transform="matrix(.707 -.707 .707 .707 -59.784 302.865)" data-original="#ffffff" style=""/><path xmlns="http://www.w3.org/2000/svg" d="m364.236 194.607a40.561 40.561 0 0 0 -49.094-6.086 10.088 10.088 0 0 0 -2.2 5.262c-.8 8.489 10.159 16.457 24.468 17.8s26.552-4.453 27.348-12.942a9.661 9.661 0 0 0 -.522-4.034z" fill="#2c2c2c" data-original="#2c2c2c" style=""/><path xmlns="http://www.w3.org/2000/svg" d="m322.057 296.679c-8.481-8.391-20.074-14.561-33.544-17.851a90.6 90.6 0 0 0 -38.282-.7 95.886 95.886 0 0 0 -35.153 14.572c-11.2 7.647-19.884 16.78-25.819 27.145a4.165 4.165 0 0 0 5.455 5.806l3.888-1.921c9.139-4.523 17.772-8.8 26.534-12.217a166.277 166.277 0 0 1 29.831-8.858 146.97 146.97 0 0 1 30.739-2.638c9.478.143 19.552 1.29 32.664 3.716a4.166 4.166 0 0 0 3.687-7.057z" fill="#654735" data-original="#654735" style=""/></g></svg>