<svg xmlns="http://www.w3.org/2000/svg" version="1.1" xmlns:xlink="http://www.w3.org/1999/xlink" xmlns:svgjs="http://svgjs.com/svgjs" width="512" height="512" x="0" y="0" viewBox="0 0 512 512" style="enable-background:new 0 0 512 512" xml:space="preserve"><g><circle xmlns="http://www.w3.org/2000/svg" cx="256" cy="256" fill="#ffd053" r="177.5" transform="matrix(.707 -.707 .707 .707 -106.039 256)" data-original="#ffd053" style=""/><path xmlns="http://www.w3.org/2000/svg" d="m348.866 104.5a177.526 177.526 0 0 1 -242.44 246.9 177.514 177.514 0 1 0 242.44-246.9z" fill="#ffc448" data-original="#ffc448" style=""/><path xmlns="http://www.w3.org/2000/svg" d="m102.625 274.727a164.8 164.8 0 0 1 295.432-100.46 164.81 164.81 0 1 0 -273.535 182.6 164.043 164.043 0 0 1 -21.897-82.14z" fill="#ffd77a" data-original="#ffd77a" style=""/><path xmlns="http://www.w3.org/2000/svg" d="m203.685 212.937c0 12.175-5.855 22.044-13.078 22.044s-13.079-9.869-13.079-22.044 5.856-22.045 13.079-22.045 13.078 9.869 13.078 22.045z" fill="#2c2c2c" data-original="#2c2c2c" style=""/><path xmlns="http://www.w3.org/2000/svg" d="m334.472 212.937c0 12.175-5.856 22.044-13.079 22.044s-13.079-9.869-13.079-22.044 5.856-22.045 13.079-22.045 13.079 9.869 13.079 22.045z" fill="#2c2c2c" data-original="#2c2c2c" style=""/><path xmlns="http://www.w3.org/2000/svg" d="m369.412 169.168c-2.067-.6-4.076-1.165-6.039-1.714-4.314-1.207-8.389-2.347-12.326-3.714a109.275 109.275 0 0 1 -16.178-6.877 96.229 96.229 0 0 1 -14.623-9.487 144.813 144.813 0 0 1 -13.914-12.752.833.833 0 0 0 -1.426.625c.319 6.555 2.911 13.331 7.5 19.6a47.888 47.888 0 0 0 16.242 13.813 50.559 50.559 0 0 0 19.625 5.642c.263.019.527.037.79.052a42.291 42.291 0 0 0 20.47-3.633.834.834 0 0 0 -.122-1.555z" fill="#3f3e40" data-original="#3f3e40" style=""/><path xmlns="http://www.w3.org/2000/svg" d="m142.588 169.168c2.067-.6 4.076-1.165 6.039-1.714 4.314-1.207 8.389-2.347 12.326-3.714a109.275 109.275 0 0 0 16.178-6.877 96.229 96.229 0 0 0 14.623-9.487 144.813 144.813 0 0 0 13.914-12.752.833.833 0 0 1 1.426.625c-.319 6.555-2.911 13.331-7.5 19.6a47.882 47.882 0 0 1 -16.243 13.813 50.549 50.549 0 0 1 -19.624 5.642c-.263.019-.527.037-.79.052a42.291 42.291 0 0 1 -20.47-3.633.834.834 0 0 1 .122-1.555z" fill="#3f3e40" data-original="#3f3e40" style=""/><path xmlns="http://www.w3.org/2000/svg" d="m183.4 338.622c-2.008.23-3.157-2.249-3.137-4.109a58.552 58.552 0 0 1 6.763-25.9 72.449 72.449 0 0 1 17.286-21.387 82.24 82.24 0 0 1 51.68-18.741 78.181 78.181 0 0 1 52.026 18.633c14.569 12.465 23.444 30.168 23.72 47.341.032 1.963-1.292 4.5-3.479 4.1-1.805-.323-3.277-2.774-4.6-3.877q-3.073-2.554-6.348-4.853a128.473 128.473 0 0 0 -13.6-8.315c-17.292-9.224-36.9-14.21-56.547-12.494a97.452 97.452 0 0 0 -35.8 10.556 125.189 125.189 0 0 0 -19.008 12.1c-2.264 1.733-5.986 6.385-8.777 6.915-.061.015-.121.025-.179.031z" fill="#654735" data-original="#654735" style=""/></g></svg>