<svg width="48" height="48" viewBox="0 0 48 48" xmlns="http://www.w3.org/2000/svg">
    <!-- Фон с градиентом -->
    <defs>
        <linearGradient id="bgGradient" x1="0%" y1="0%" x2="100%" y2="100%">
            <stop offset="0%" style="stop-color:#E5E7EB;stop-opacity:1" />
            <stop offset="100%" style="stop-color:#F3F4F6;stop-opacity:1" />
        </linearGradient>
    </defs>

    <!-- Круглый фон -->
    <circle cx="24" cy="24" r="24" fill="url(#bgGradient)" />

    <!-- Иконка здания/компании -->
    <g transform="translate(12, 10)">
        <!-- Основное здание -->
        <rect x="8" y="8" width="16" height="20" rx="1" fill="#9CA3AF" />

        <!-- Левая башня -->
        <rect x="2" y="12" width="8" height="16" rx="1" fill="#D1D5DB" />

        <!-- Окна на основном здании -->
        <rect x="10" y="11" width="2" height="2" rx="0.5" fill="#F9FAFB" />
        <rect x="14" y="11" width="2" height="2" rx="0.5" fill="#F9FAFB" />
        <rect x="18" y="11" width="2" height="2" rx="0.5" fill="#F9FAFB" />

        <rect x="10" y="15" width="2" height="2" rx="0.5" fill="#F9FAFB" />
        <rect x="14" y="15" width="2" height="2" rx="0.5" fill="#F9FAFB" />
        <rect x="18" y="15" width="2" height="2" rx="0.5" fill="#F9FAFB" />

        <rect x="10" y="19" width="2" height="2" rx="0.5" fill="#F9FAFB" />
        <rect x="14" y="19" width="2" height="2" rx="0.5" fill="#F9FAFB" />
        <rect x="18" y="19" width="2" height="2" rx="0.5" fill="#F9FAFB" />

        <!-- Окна на левой башне -->
        <rect x="4" y="15" width="1.5" height="1.5" rx="0.3" fill="#F9FAFB" />
        <rect x="6.5" y="15" width="1.5" height="1.5" rx="0.3" fill="#F9FAFB" />

        <rect x="4" y="18" width="1.5" height="1.5" rx="0.3" fill="#F9FAFB" />
        <rect x="6.5" y="18" width="1.5" height="1.5" rx="0.3" fill="#F9FAFB" />

        <rect x="4" y="21" width="1.5" height="1.5" rx="0.3" fill="#F9FAFB" />
        <rect x="6.5" y="21" width="1.5" height="1.5" rx="0.3" fill="#F9FAFB" />

        <!-- Вход -->
        <rect x="16" y="23" width="4" height="5" rx="0.5" fill="#6B7280" />
    </g>
</svg>
