<svg width="24" height="24" viewBox="0 0 24 24" fill="none" xmlns="http://www.w3.org/2000/svg">
    <path d="M10.373 4.26283C11.0383 2.9145 12.963 2.91517 13.6279 4.2638L15.4115 7.8804C15.4406 7.93946 15.4969 7.9804 15.5621 7.98986L19.5518 8.56947C21.0412 8.78602 21.6342 10.6156 20.5576 11.6652L17.6691 14.4775C17.6219 14.5235 17.6004 14.5897 17.6115 14.6546L18.293 18.6281C18.5468 20.1096 16.992 21.2397 15.6611 20.5411L12.093 18.6662C12.0348 18.6356 11.9652 18.6356 11.907 18.6662L8.33886 20.5411C7.00649 21.2419 5.45342 20.1082 5.70703 18.6281L6.02257 16.7833C6.03185 16.7291 6.06304 16.6811 6.10882 16.6506L11.2881 13.1998C11.4563 13.0877 11.3711 12.8254 11.1691 12.8335L4.98732 13.0826C4.93245 13.0848 4.87907 13.0644 4.83973 13.026L3.44238 11.6652C2.36521 10.615 2.96067 8.78588 4.44824 8.56947L8.4379 7.98986C8.50306 7.98039 8.55939 7.93947 8.58852 7.88042L10.373 4.26283Z" fill="#FFD900"/>
</svg>
